STARTFONT 2.1
COMMENT
COMMENT Converted from OpenType font "MultiTypeGamerChess-Regular.otf" by "otf2bdf 3.0".
COMMENT
FONT -FreeType-MultiType Gamer Chess-Medium-R-Normal--55-400-100-100-P-333-ISO10646-1
SIZE 40 100 100
FONTBOUNDINGBOX 145 98 -49 -17
STARTPROPERTIES 19
FOUNDRY "FreeType"
FAMILY_NAME "MultiType Gamer Chess"
WEIGHT_NAME "Medium"
SLANT "R"
SETWIDTH_NAME "Normal"
ADD_STYLE_NAME ""
PIXEL_SIZE 55
POINT_SIZE 400
RESOLUTION_X 100
RESOLUTION_Y 100
SPACING "P"
AVERAGE_WIDTH 333
CHARSET_REGISTRY "ISO10646"
CHARSET_ENCODING "1"
FONT_ASCENT 61
FONT_DESCENT 5
COPYRIGHT "-FreeType-MultiType Gamer Chess-Medium-R-Normal--55-400-100-100-P-333-ISO10646-1"
_OTF_FONTFILE "MultiTypeGamerChess-Regular.otf"
_OTF_PSNAME "MultiTypeGamer-Chess"
ENDPROPERTIES
CHARS 758
STARTCHAR 0020
ENCODING 32
SWIDTH 288 0
DWIDTH 16 0
BBX 0 0 0 0
BITMAP
ENDCHAR
STARTCHAR 0021
ENCODING 33
SWIDTH 288 0
DWIDTH 16 0
BBX 9 42 4 0
BITMAP
E380
E380
E380
1C00
1C00
1C00
E380
E380
E380
1C00
1C00
E380
E380
E380
1C00
1C00
1C00
E380
E380
E380
1C00
1C00
1C00
E380
E380
1C00
1C00
1C00
0000
0000
0000
0000
0000
0000
E380
E380
1C00
1C00
1C00
E380
E380
E380
ENDCHAR
STARTCHAR 0022
ENCODING 34
SWIDTH 450 0
DWIDTH 25 0
BBX 23 14 1 33
BITMAP
E3838E
E3838E
E3838E
1C0070
1C0070
E3838E
E3838E
E3838E
1C0070
1C0070
1C0070
E3838E
E3838E
E3838E
ENDCHAR
STARTCHAR 0023
ENCODING 35
SWIDTH 900 0
DWIDTH 50 0
BBX 42 53 4 -6
BITMAP
00E38071C000
00E38071C000
00E38071C000
001C000E0000
001C000E0000
00E38071C000
00E38071C000
00E38071C000
001C000E0000
001C000E0000
001C000E0000
00E38071C000
00E38071C000
00E38071C000
E39C738E71C0
E39C738E71C0
1CE38C71CE00
1CE38C71CE00
1CE38C71CE00
E39C738E71C0
E39C738E71C0
E39C738E71C0
00E38071C000
00E38071C000
00E38071C000
001C000E0000
001C000E0000
001C000E0000
00E38071C000
00E38071C000
E39C738E71C0
E39C738E71C0
E39C738E71C0
1CE38C71CE00
1CE38C71CE00
1CE38C71CE00
E39C738E71C0
E39C738E71C0
E39C738E71C0
00E38071C000
00E38071C000
001C000E0000
001C000E0000
001C000E0000
00E38071C000
00E38071C000
00E38071C000
001C000E0000
001C000E0000
001C000E0000
00E38071C000
00E38071C000
00E38071C000
ENDCHAR
STARTCHAR 0024
ENCODING 36
SWIDTH 684 0
DWIDTH 38 0
BBX 31 53 4 -6
BITMAP
001C7000
001C7000
001C7000
00038000
00038000
039C738E
039C738E
039C738E
1CE38C70
1CE38C70
1CE38C70
E39C738E
E39C738E
E39C738E
1C000000
1C000000
E3800000
E3800000
E3800000
1C000000
1C000000
1C000000
E39C7380
E39C7380
E39C7380
1CE38C70
1CE38C70
1CE38C70
039C738E
039C738E
00000070
00000070
00000070
0000038E
0000038E
0000038E
00000070
00000070
00000070
E39C738E
E39C738E
1CE38C70
1CE38C70
1CE38C70
E39C7380
E39C7380
E39C7380
00038000
00038000
00038000
001C7000
001C7000
001C7000
ENDCHAR
STARTCHAR 0025
ENCODING 37
SWIDTH 1296 0
DWIDTH 72 0
BBX 64 42 4 0
BITMAP
039C700071C00000
039C700071C00000
039C700071C00000
1CE38C000E000000
1CE38C000E000000
1CE38C000E000000
E39C738071C00000
E39C738071C00000
E39C738071C00000
1C000C01CE000000
1C000C01CE000000
E380738070000000
E380738070000000
E380738070000000
1C000C01CE000000
1C000C01CE000000
1C000C01CE000000
E39C738E700638E0
E39C738E700638E0
E39C738E700638E0
1CE38C01C039C738
1CE38C01C039C738
1CE38C01C039C738
039C700E71C638E7
039C700E71C638E7
00000071C0380038
00000071C0380038
00000071C0380038
0000000E01C600E7
0000000E01C600E7
0000000E01C600E7
00000071C0380038
00000071C0380038
00000071C0380038
0000038E01C638E7
0000038E01C638E7
000000700039C738
000000700039C738
000000700039C738
0000038E000638E0
0000038E000638E0
0000038E000638E0
ENDCHAR
STARTCHAR 0026
ENCODING 38
SWIDTH 792 0
DWIDTH 44 0
BBX 36 42 4 0
BITMAP
039C738000
039C738000
039C738000
1CE38C0000
1CE38C0000
1CE38C0000
E39C738000
E39C738000
E39C738000
1C00000000
1C00000000
E380038E00
E380038E00
E380038E00
1CE0007000
1CE0007000
1CE0007000
039C738E70
039C738E70
039C738E70
00E38C71C0
00E38C71C0
00E38C71C0
039C738E70
039C738E70
1CE0007000
1CE0007000
1CE0007000
E380038E00
E380038E00
E380038E00
1C00007000
1C00007000
1C00007000
E39C738E70
E39C738E70
1CE38C71C0
1CE38C71C0
1CE38C71C0
039C738E70
039C738E70
039C738E70
ENDCHAR
STARTCHAR 0027
ENCODING 39
SWIDTH 198 0
DWIDTH 11 0
BBX 9 14 1 33
BITMAP
E380
E380
E380
1C00
1C00
E380
E380
E380
1C00
1C00
1C00
E380
E380
E380
ENDCHAR
STARTCHAR 0028
ENCODING 40
SWIDTH 288 0
DWIDTH 16 0
BBX 14 64 4 -11
BITMAP
039C
039C
039C
1CE0
1CE0
1CE0
E380
E380
E380
1C00
1C00
E380
E380
E380
1C00
1C00
1C00
E380
E380
E380
1C00
1C00
E380
E380
E380
1C00
1C00
1C00
E380
E380
E380
1C00
1C00
1C00
E380
E380
1C00
1C00
1C00
E380
E380
E380
1C00
1C00
1C00
E380
E380
1C00
1C00
1C00
E380
E380
E380
1C00
1C00
1C00
E380
E380
E380
1CE0
1CE0
039C
039C
039C
ENDCHAR
STARTCHAR 0029
ENCODING 41
SWIDTH 288 0
DWIDTH 16 0
BBX 14 64 -1 -11
BITMAP
C700
C700
C700
38E0
38E0
38E0
071C
071C
071C
00E0
00E0
071C
071C
071C
00E0
00E0
00E0
071C
071C
071C
00E0
00E0
071C
071C
071C
00E0
00E0
00E0
071C
071C
071C
00E0
00E0
00E0
071C
071C
00E0
00E0
00E0
071C
071C
071C
00E0
00E0
00E0
071C
071C
00E0
00E0
00E0
071C
071C
071C
00E0
00E0
00E0
071C
071C
071C
38E0
38E0
C700
C700
C700
ENDCHAR
STARTCHAR 002A
ENCODING 42
SWIDTH 900 0
DWIDTH 50 0
BBX 42 36 4 11
BITMAP
E380738071C0
E380738071C0
E380738071C0
1C000C000E00
1C000C000E00
E380738071C0
E380738071C0
E380738071C0
1CE00C01CE00
1CE00C01CE00
1CE00C01CE00
039C738E7000
039C738E7000
039C738E7000
00E38C71C000
00E38C71C000
001C738E0000
001C738E0000
001C738E0000
00E38C71C000
00E38C71C000
00E38C71C000
039C738E7000
039C738E7000
039C738E7000
1CE00C01CE00
1CE00C01CE00
1CE00C01CE00
E380738071C0
E380738071C0
1C000C000E00
1C000C000E00
1C000C000E00
E380738071C0
E380738071C0
E380738071C0
ENDCHAR
STARTCHAR 002B
ENCODING 43
SWIDTH 684 0
DWIDTH 38 0
BBX 31 30 4 6
BITMAP
001C7000
001C7000
001C7000
00038000
00038000
001C7000
001C7000
001C7000
00038000
00038000
00038000
E39C738E
E39C738E
E39C738E
1CE38C70
1CE38C70
1CE38C70
E39C738E
E39C738E
00038000
00038000
00038000
001C7000
001C7000
001C7000
00038000
00038000
00038000
001C7000
001C7000
ENDCHAR
STARTCHAR 002C
ENCODING 44
SWIDTH 198 0
DWIDTH 11 0
BBX 9 14 1 -6
BITMAP
E380
E380
1C00
1C00
1C00
E380
E380
E380
1C00
1C00
1C00
E000
E000
E000
ENDCHAR
STARTCHAR 002D
ENCODING 45
SWIDTH 486 0
DWIDTH 27 0
BBX 25 8 1 17
BITMAP
E39C7180
E39C7180
E39C7180
1C738E00
1C738E00
1C738E00
E39C7180
E39C7180
ENDCHAR
STARTCHAR 002E
ENCODING 46
SWIDTH 198 0
DWIDTH 11 0
BBX 9 8 1 0
BITMAP
E380
E380
1C00
1C00
1C00
E380
E380
E380
ENDCHAR
STARTCHAR 002F
ENCODING 47
SWIDTH 396 0
DWIDTH 22 0
BBX 20 42 1 0
BITMAP
001C70
001C70
001C70
000380
000380
000380
001C70
001C70
001C70
007380
007380
001C00
001C00
001C00
007380
007380
007380
039C00
039C00
039C00
007000
007000
007000
039C00
039C00
1C7000
1C7000
1C7000
038000
038000
038000
1C7000
1C7000
1C7000
E38000
E38000
1C0000
1C0000
1C0000
E38000
E38000
E38000
ENDCHAR
STARTCHAR 0030
ENCODING 48
SWIDTH 684 0
DWIDTH 38 0
BBX 31 42 4 0
BITMAP
001C7000
001C7000
001C7000
00E38C00
00E38C00
00E38C00
039C7380
039C7380
039C7380
1CE00C70
1CE00C70
E380038E
E380038E
E380038E
1C000070
1C000070
1C000070
E380038E
E380038E
E380038E
1C000070
1C000070
1C000070
E380038E
E380038E
1C000070
1C000070
1C000070
E380038E
E380038E
E380038E
1CE00C70
1CE00C70
1CE00C70
039C7380
039C7380
00E38C00
00E38C00
00E38C00
001C7000
001C7000
001C7000
ENDCHAR
STARTCHAR 0031
ENCODING 49
SWIDTH 396 0
DWIDTH 22 0
BBX 14 42 4 0
BITMAP
E39C
E39C
E39C
1CE0
1CE0
1CE0
E39C
E39C
E39C
00E0
00E0
039C
039C
039C
00E0
00E0
00E0
039C
039C
039C
00E0
00E0
00E0
039C
039C
00E0
00E0
00E0
039C
039C
039C
00E0
00E0
00E0
039C
039C
00E0
00E0
00E0
039C
039C
039C
ENDCHAR
STARTCHAR 0032
ENCODING 50
SWIDTH 684 0
DWIDTH 38 0
BBX 31 42 4 0
BITMAP
039C7380
039C7380
039C7380
1CE38C70
1CE38C70
1CE38C70
E39C738E
E39C738E
E39C738E
1C000070
1C000070
E380038E
E380038E
E380038E
00000C70
00000C70
00000C70
00007380
00007380
00007380
00038C00
00038C00
00038C00
001C7000
001C7000
00E38000
00E38000
00E38000
039C0000
039C0000
039C0000
1CE00000
1CE00000
1CE00000
E39C738E
E39C738E
1CE38C70
1CE38C70
1CE38C70
E39C738E
E39C738E
E39C738E
ENDCHAR
STARTCHAR 0033
ENCODING 51
SWIDTH 684 0
DWIDTH 38 0
BBX 31 42 4 0
BITMAP
039C7380
039C7380
039C7380
1CE38C70
1CE38C70
1CE38C70
E39C738E
E39C738E
E39C738E
1C000070
1C000070
E380038E
E380038E
E380038E
00000C70
00000C70
00000C70
001C7380
001C7380
001C7380
00038C70
00038C70
00038C70
001C738E
001C738E
00000070
00000070
00000070
E380038E
E380038E
E380038E
1C000070
1C000070
1C000070
E39C738E
E39C738E
1CE38C70
1CE38C70
1CE38C70
039C7380
039C7380
039C7380
ENDCHAR
STARTCHAR 0034
ENCODING 52
SWIDTH 684 0
DWIDTH 38 0
BBX 31 42 4 0
BITMAP
00007380
00007380
00007380
00038C00
00038C00
00038C00
001C7380
001C7380
001C7380
00E38C00
00E38C00
039C7380
039C7380
039C7380
1CE00C00
1CE00C00
1CE00C00
E3807380
E3807380
E3807380
1C000C00
1C000C00
1C000C00
E39C738E
E39C738E
1CE38C70
1CE38C70
1CE38C70
E39C738E
E39C738E
E39C738E
00000C00
00000C00
00000C00
00007380
00007380
00000C00
00000C00
00000C00
00007380
00007380
00007380
ENDCHAR
STARTCHAR 0035
ENCODING 53
SWIDTH 684 0
DWIDTH 38 0
BBX 31 42 4 0
BITMAP
E39C738E
E39C738E
E39C738E
1CE38C70
1CE38C70
1CE38C70
E39C738E
E39C738E
E39C738E
1C000000
1C000000
E3800000
E3800000
E3800000
1C000000
1C000000
1C000000
E39C7380
E39C7380
E39C7380
1CE38C70
1CE38C70
1CE38C70
E39C738E
E39C738E
00000070
00000070
00000070
0000038E
0000038E
0000038E
00000070
00000070
00000070
E39C738E
E39C738E
1CE38C70
1CE38C70
1CE38C70
E39C7380
E39C7380
E39C7380
ENDCHAR
STARTCHAR 0036
ENCODING 54
SWIDTH 684 0
DWIDTH 38 0
BBX 31 42 4 0
BITMAP
001C738E
001C738E
001C738E
00E38C70
00E38C70
00E38C70
039C738E
039C738E
039C738E
1CE00000
1CE00000
E3800000
E3800000
E3800000
1C000000
1C000000
1C000000
E39C7380
E39C7380
E39C7380
1CE38C70
1CE38C70
1CE38C70
E39C738E
E39C738E
1C000070
1C000070
1C000070
E380038E
E380038E
E380038E
1C000070
1C000070
1C000070
E39C738E
E39C738E
1CE38C70
1CE38C70
1CE38C70
039C7380
039C7380
039C7380
ENDCHAR
STARTCHAR 0037
ENCODING 55
SWIDTH 684 0
DWIDTH 38 0
BBX 31 42 4 0
BITMAP
E39C738E
E39C738E
E39C738E
1CE38C70
1CE38C70
1CE38C70
E39C738E
E39C738E
E39C738E
00000070
00000070
0000038E
0000038E
0000038E
00000C70
00000C70
00000C70
00007380
00007380
00007380
00038C00
00038C00
00038C00
001C7000
001C7000
00E38000
00E38000
00E38000
039C0000
039C0000
039C0000
00E00000
00E00000
00E00000
039C0000
039C0000
00E00000
00E00000
00E00000
039C0000
039C0000
039C0000
ENDCHAR
STARTCHAR 0038
ENCODING 56
SWIDTH 684 0
DWIDTH 38 0
BBX 31 42 4 0
BITMAP
039C7380
039C7380
039C7380
1CE38C70
1CE38C70
1CE38C70
E39C738E
E39C738E
E39C738E
1C000070
1C000070
E380038E
E380038E
E380038E
1CE00C70
1CE00C70
1CE00C70
039C7380
039C7380
039C7380
00E38C00
00E38C00
00E38C00
039C7380
039C7380
1CE00C70
1CE00C70
1CE00C70
E380038E
E380038E
E380038E
1C000070
1C000070
1C000070
E39C738E
E39C738E
1CE38C70
1CE38C70
1CE38C70
039C7380
039C7380
039C7380
ENDCHAR
STARTCHAR 0039
ENCODING 57
SWIDTH 684 0
DWIDTH 38 0
BBX 31 42 4 0
BITMAP
039C7380
039C7380
039C7380
1CE38C70
1CE38C70
1CE38C70
E39C738E
E39C738E
E39C738E
1C000070
1C000070
E380038E
E380038E
E380038E
1C000070
1C000070
1C000070
E39C738E
E39C738E
E39C738E
1CE38C70
1CE38C70
1CE38C70
039C738E
039C738E
00000070
00000070
00000070
0000038E
0000038E
0000038E
00000C70
00000C70
00000C70
E39C7380
E39C7380
1CE38C00
1CE38C00
1CE38C00
E39C7000
E39C7000
E39C7000
ENDCHAR
STARTCHAR 003A
ENCODING 58
SWIDTH 198 0
DWIDTH 11 0
BBX 9 25 1 8
BITMAP
E380
E380
1C00
1C00
1C00
E380
E380
E380
0000
0000
0000
0000
0000
0000
0000
0000
E380
E380
E380
1C00
1C00
1C00
E380
E380
E380
ENDCHAR
STARTCHAR 003B
ENCODING 59
SWIDTH 198 0
DWIDTH 11 0
BBX 9 31 1 -6
BITMAP
E380
E380
E380
1C00
1C00
1C00
E380
E380
0000
0000
0000
0000
0000
0000
0000
0000
0000
E380
E380
1C00
1C00
1C00
E380
E380
E380
1C00
1C00
1C00
E000
E000
E000
ENDCHAR
STARTCHAR 003C
ENCODING 60
SWIDTH 648 0
DWIDTH 36 0
BBX 28 42 1 0
BITMAP
00000E70
00000E70
00000E70
00007180
00007180
00007180
00038E00
00038E00
00038E00
001C7000
001C7000
00738000
00738000
00738000
039C0000
039C0000
039C0000
1C700000
1C700000
1C700000
E3800000
E3800000
E3800000
1C700000
1C700000
039C0000
039C0000
039C0000
00738000
00738000
00738000
001C7000
001C7000
001C7000
00038E00
00038E00
00007180
00007180
00007180
00000E70
00000E70
00000E70
ENDCHAR
STARTCHAR 003D
ENCODING 61
SWIDTH 684 0
DWIDTH 38 0
BBX 31 25 4 6
BITMAP
E39C738E
E39C738E
E39C738E
1CE38C70
1CE38C70
1CE38C70
E39C738E
E39C738E
E39C738E
00000000
00000000
00000000
00000000
00000000
00000000
00000000
00000000
E39C738E
E39C738E
E39C738E
1CE38C70
1CE38C70
1CE38C70
E39C738E
E39C738E
ENDCHAR
STARTCHAR 003E
ENCODING 62
SWIDTH 648 0
DWIDTH 36 0
BBX 28 42 7 0
BITMAP
E7000000
E7000000
E7000000
1CE00000
1CE00000
1CE00000
071C0000
071C0000
071C0000
00E38000
00E38000
001C6000
001C6000
001C6000
00039C00
00039C00
00039C00
00006380
00006380
00006380
00001C70
00001C70
00001C70
00006380
00006380
00039C00
00039C00
00039C00
001C6000
001C6000
001C6000
00E38000
00E38000
00E38000
071C0000
071C0000
1CE00000
1CE00000
1CE00000
E7000000
E7000000
E7000000
ENDCHAR
STARTCHAR 003F
ENCODING 63
SWIDTH 684 0
DWIDTH 38 0
BBX 31 42 4 0
BITMAP
039C7380
039C7380
039C7380
1CE38C70
1CE38C70
1CE38C70
E39C738E
E39C738E
E39C738E
1C000070
1C000070
E380038E
E380038E
E380038E
00000070
00000070
00000070
0000738E
0000738E
0000738E
00038C70
00038C70
00038C70
001C7380
001C7380
00038000
00038000
00038000
001C7000
001C7000
001C7000
00000000
00000000
00000000
001C7000
001C7000
00038000
00038000
00038000
001C7000
001C7000
001C7000
ENDCHAR
STARTCHAR 0040
ENCODING 64
SWIDTH 1188 0
DWIDTH 66 0
BBX 59 59 4 -6
BITMAP
001C738E71C60000
001C738E71C60000
001C738E71C60000
00E38C71CE39C000
00E38C71CE39C000
00E38C71CE39C000
039C738E71C63800
039C738E71C63800
039C738E71C63800
1CE000000001C700
1CE000000001C700
E3800000000038E0
E3800000000038E0
E3800000000038E0
1C00000000000700
1C00000000000700
1C00000000000700
E380038E71C038E0
E380038E71C038E0
E380038E71C038E0
1C000C71CE000700
1C000C71CE000700
E380738E71C038E0
E380738E71C038E0
E380738E71C038E0
1C000C000E000700
1C000C000E000700
1C000C000E000700
E380738071C038E0
E380738071C038E0
E380738071C038E0
1C000C000E000700
1C000C000E000700
1C000C000E000700
E380738E71C638E0
E380738E71C638E0
1C000C71CE39C700
1C000C71CE39C700
1C000C71CE39C700
E380038E71C63800
E380038E71C63800
E380038E71C63800
1C00000000000000
1C00000000000000
1C00000000000000
E380000000000000
E380000000000000
1CE0000000000000
1CE0000000000000
1CE0000000000000
039C738E71C638E0
039C738E71C638E0
039C738E71C638E0
00E38C71CE39C700
00E38C71CE39C700
00E38C71CE39C700
001C738E71C638E0
001C738E71C638E0
001C738E71C638E0
ENDCHAR
STARTCHAR 0041
ENCODING 65
SWIDTH 684 0
DWIDTH 38 0
BBX 31 42 4 0
BITMAP
001C7000
001C7000
001C7000
00E38C00
00E38C00
00E38C00
039C7380
039C7380
039C7380
1CE00C70
1CE00C70
E380038E
E380038E
E380038E
1C000070
1C000070
1C000070
E380038E
E380038E
E380038E
1C000070
1C000070
1C000070
E39C738E
E39C738E
1CE38C70
1CE38C70
1CE38C70
E39C738E
E39C738E
E39C738E
1C000070
1C000070
1C000070
E380038E
E380038E
1C000070
1C000070
1C000070
E380038E
E380038E
E380038E
ENDCHAR
STARTCHAR 0042
ENCODING 66
SWIDTH 684 0
DWIDTH 38 0
BBX 31 42 4 0
BITMAP
E39C7380
E39C7380
E39C7380
1CE38C70
1CE38C70
1CE38C70
E39C738E
E39C738E
E39C738E
1C000070
1C000070
E380038E
E380038E
E380038E
1C000C70
1C000C70
1C000C70
E39C7380
E39C7380
E39C7380
1CE38C70
1CE38C70
1CE38C70
E39C738E
E39C738E
1C000070
1C000070
1C000070
E380038E
E380038E
E380038E
1C000070
1C000070
1C000070
E39C738E
E39C738E
1CE38C70
1CE38C70
1CE38C70
E39C7380
E39C7380
E39C7380
ENDCHAR
STARTCHAR 0043
ENCODING 67
SWIDTH 792 0
DWIDTH 44 0
BBX 36 42 4 0
BITMAP
001C738000
001C738000
001C738000
00E38C7000
00E38C7000
00E38C7000
039C738E00
039C738E00
039C738E00
1CE00071C0
1CE00071C0
E380000E70
E380000E70
E380000E70
1C000001C0
1C000001C0
1C000001C0
E380000E70
E380000E70
E380000E70
1C00000000
1C00000000
1C00000000
E380000000
E380000000
1C00000000
1C00000000
1C00000000
E380000E70
E380000E70
E380000E70
1CE00071C0
1CE00071C0
1CE00071C0
039C738E00
039C738E00
00E38C7000
00E38C7000
00E38C7000
001C738000
001C738000
001C738000
ENDCHAR
STARTCHAR 0044
ENCODING 68
SWIDTH 792 0
DWIDTH 44 0
BBX 36 42 4 0
BITMAP
E39C738000
E39C738000
E39C738000
1CE38C7000
1CE38C7000
1CE38C7000
E39C738E00
E39C738E00
E39C738E00
1C000071C0
1C000071C0
E380000E70
E380000E70
E380000E70
1C000001C0
1C000001C0
1C000001C0
E380000E70
E380000E70
E380000E70
1C000001C0
1C000001C0
1C000001C0
E380000E70
E380000E70
1C000001C0
1C000001C0
1C000001C0
E380000E70
E380000E70
E380000E70
1C000071C0
1C000071C0
1C000071C0
E39C738E00
E39C738E00
1CE38C7000
1CE38C7000
1CE38C7000
E39C738000
E39C738000
E39C738000
ENDCHAR
STARTCHAR 0045
ENCODING 69
SWIDTH 684 0
DWIDTH 38 0
BBX 31 42 4 0
BITMAP
001C738E
001C738E
001C738E
00E38C70
00E38C70
00E38C70
039C738E
039C738E
039C738E
1CE00000
1CE00000
E3800000
E3800000
E3800000
1C000000
1C000000
1C000000
E39C7380
E39C7380
E39C7380
1CE38C00
1CE38C00
1CE38C00
E39C7380
E39C7380
1C000000
1C000000
1C000000
E3800000
E3800000
E3800000
1CE00000
1CE00000
1CE00000
039C738E
039C738E
00E38C70
00E38C70
00E38C70
001C738E
001C738E
001C738E
ENDCHAR
STARTCHAR 0046
ENCODING 70
SWIDTH 684 0
DWIDTH 38 0
BBX 31 42 4 0
BITMAP
001C738E
001C738E
001C738E
00E38C70
00E38C70
00E38C70
039C738E
039C738E
039C738E
1CE00000
1CE00000
E3800000
E3800000
E3800000
1C000000
1C000000
1C000000
E39C7380
E39C7380
E39C7380
1CE38C00
1CE38C00
1CE38C00
E39C7380
E39C7380
1C000000
1C000000
1C000000
E3800000
E3800000
E3800000
1C000000
1C000000
1C000000
E3800000
E3800000
1C000000
1C000000
1C000000
E3800000
E3800000
E3800000
ENDCHAR
STARTCHAR 0047
ENCODING 71
SWIDTH 792 0
DWIDTH 44 0
BBX 36 42 4 0
BITMAP
001C738E70
001C738E70
001C738E70
00E38C71C0
00E38C71C0
00E38C71C0
039C738E70
039C738E70
039C738E70
1CE0000000
1CE0000000
E380000000
E380000000
E380000000
1C00000000
1C00000000
1C00000000
E380738E70
E380738E70
E380738E70
1C000C71C0
1C000C71C0
1C000C71C0
E380738E70
E380738E70
1C000001C0
1C000001C0
1C000001C0
E380000E70
E380000E70
E380000E70
1CE00001C0
1CE00001C0
1CE00001C0
039C738E70
039C738E70
00E38C71C0
00E38C71C0
00E38C71C0
001C738E70
001C738E70
001C738E70
ENDCHAR
STARTCHAR 0048
ENCODING 72
SWIDTH 792 0
DWIDTH 44 0
BBX 36 42 4 0
BITMAP
E380000E70
E380000E70
E380000E70
1C000001C0
1C000001C0
1C000001C0
E380000E70
E380000E70
E380000E70
1C000001C0
1C000001C0
E380000E70
E380000E70
E380000E70
1C000001C0
1C000001C0
1C000001C0
E39C738E70
E39C738E70
E39C738E70
1CE38C71C0
1CE38C71C0
1CE38C71C0
E39C738E70
E39C738E70
1C000001C0
1C000001C0
1C000001C0
E380000E70
E380000E70
E380000E70
1C000001C0
1C000001C0
1C000001C0
E380000E70
E380000E70
1C000001C0
1C000001C0
1C000001C0
E380000E70
E380000E70
E380000E70
ENDCHAR
STARTCHAR 0049
ENCODING 73
SWIDTH 486 0
DWIDTH 27 0
BBX 20 42 4 0
BITMAP
E39C70
E39C70
E39C70
1CE380
1CE380
1CE380
E39C70
E39C70
E39C70
00E000
00E000
039C00
039C00
039C00
00E000
00E000
00E000
039C00
039C00
039C00
00E000
00E000
00E000
039C00
039C00
00E000
00E000
00E000
039C00
039C00
039C00
00E000
00E000
00E000
E39C70
E39C70
1CE380
1CE380
1CE380
E39C70
E39C70
E39C70
ENDCHAR
STARTCHAR 004A
ENCODING 74
SWIDTH 594 0
DWIDTH 33 0
BBX 25 42 4 0
BITMAP
E39C7380
E39C7380
E39C7380
1CE38C00
1CE38C00
1CE38C00
E39C7380
E39C7380
E39C7380
00000C00
00000C00
00007380
00007380
00007380
00000C00
00000C00
00000C00
00007380
00007380
00007380
00000C00
00000C00
00000C00
00007380
00007380
00000C00
00000C00
00000C00
00007380
00007380
00007380
00038C00
00038C00
00038C00
E39C7000
E39C7000
1CE38000
1CE38000
1CE38000
E39C0000
E39C0000
E39C0000
ENDCHAR
STARTCHAR 004B
ENCODING 75
SWIDTH 684 0
DWIDTH 38 0
BBX 31 42 4 0
BITMAP
E380038E
E380038E
E380038E
1C000070
1C000070
1C000070
E380038E
E380038E
E380038E
1C000C70
1C000C70
E3807380
E3807380
E3807380
1C038C00
1C038C00
1C038C00
E39C7000
E39C7000
E39C7000
1CE38000
1CE38000
1CE38000
E39C7000
E39C7000
1C038C00
1C038C00
1C038C00
E3807380
E3807380
E3807380
1C000C70
1C000C70
1C000C70
E380038E
E380038E
1C000070
1C000070
1C000070
E380038E
E380038E
E380038E
ENDCHAR
STARTCHAR 004C
ENCODING 76
SWIDTH 684 0
DWIDTH 38 0
BBX 31 42 4 0
BITMAP
E3800000
E3800000
E3800000
1C000000
1C000000
1C000000
E3800000
E3800000
E3800000
1C000000
1C000000
E3800000
E3800000
E3800000
1C000000
1C000000
1C000000
E3800000
E3800000
E3800000
1C000000
1C000000
1C000000
E3800000
E3800000
1C000000
1C000000
1C000000
E3800000
E3800000
E3800000
1C000000
1C000000
1C000000
E39C738E
E39C738E
1CE38C70
1CE38C70
1CE38C70
039C738E
039C738E
039C738E
ENDCHAR
STARTCHAR 004D
ENCODING 77
SWIDTH 990 0
DWIDTH 55 0
BBX 47 42 4 0
BITMAP
E380000001C6
E380000001C6
E380000001C6
1CE000000E38
1CE000000E38
1CE000000E38
E39C000071C6
E39C000071C6
E39C000071C6
1CE38001CE38
1CE38001CE38
E39C700E71C6
E39C700E71C6
E39C700E71C6
1C038C71C038
1C038C71C038
1C038C71C038
E380738E01C6
E380738E01C6
E380738E01C6
1C000C700038
1C000C700038
1C000C700038
E380038001C6
E380038001C6
1C0000000038
1C0000000038
1C0000000038
E380000001C6
E380000001C6
E380000001C6
1C0000000038
1C0000000038
1C0000000038
E380000001C6
E380000001C6
1C0000000038
1C0000000038
1C0000000038
E380000001C6
E380000001C6
E380000001C6
ENDCHAR
STARTCHAR 004E
ENCODING 78
SWIDTH 792 0
DWIDTH 44 0
BBX 36 42 4 0
BITMAP
E380000E70
E380000E70
E380000E70
1CE00001C0
1CE00001C0
1CE00001C0
E39C000E70
E39C000E70
E39C000E70
1CE38001C0
1CE38001C0
E39C700E70
E39C700E70
E39C700E70
1C038C01C0
1C038C01C0
1C038C01C0
E380738E70
E380738E70
E380738E70
1C000C71C0
1C000C71C0
1C000C71C0
E380038E70
E380038E70
1C000071C0
1C000071C0
1C000071C0
E380000E70
E380000E70
E380000E70
1C000001C0
1C000001C0
1C000001C0
E380000E70
E380000E70
1C000001C0
1C000001C0
1C000001C0
E380000E70
E380000E70
E380000E70
ENDCHAR
STARTCHAR 004F
ENCODING 79
SWIDTH 792 0
DWIDTH 44 0
BBX 36 42 4 0
BITMAP
001C738000
001C738000
001C738000
00E38C7000
00E38C7000
00E38C7000
039C738E00
039C738E00
039C738E00
1CE00071C0
1CE00071C0
E380000E70
E380000E70
E380000E70
1C000001C0
1C000001C0
1C000001C0
E380000E70
E380000E70
E380000E70
1C000001C0
1C000001C0
1C000001C0
E380000E70
E380000E70
1C000001C0
1C000001C0
1C000001C0
E380000E70
E380000E70
E380000E70
1CE00071C0
1CE00071C0
1CE00071C0
039C738E00
039C738E00
00E38C7000
00E38C7000
00E38C7000
001C738000
001C738000
001C738000
ENDCHAR
STARTCHAR 0050
ENCODING 80
SWIDTH 684 0
DWIDTH 38 0
BBX 31 42 4 0
BITMAP
E39C7000
E39C7000
E39C7000
1CE38C00
1CE38C00
1CE38C00
E39C7380
E39C7380
E39C7380
1C000C70
1C000C70
E380038E
E380038E
E380038E
1C000070
1C000070
1C000070
E380038E
E380038E
E380038E
1C000070
1C000070
1C000070
E380038E
E380038E
1C000C70
1C000C70
1C000C70
E39C7380
E39C7380
E39C7380
1CE38C00
1CE38C00
1CE38C00
E39C7000
E39C7000
1C000000
1C000000
1C000000
E3800000
E3800000
E3800000
ENDCHAR
STARTCHAR 0051
ENCODING 81
SWIDTH 792 0
DWIDTH 44 0
BBX 36 48 4 -6
BITMAP
001C738000
001C738000
001C738000
00E38C7000
00E38C7000
00E38C7000
039C738E00
039C738E00
039C738E00
1CE00071C0
1CE00071C0
E380000E70
E380000E70
E380000E70
1C000001C0
1C000001C0
1C000001C0
E380000E70
E380000E70
E380000E70
1C000001C0
1C000001C0
1C000001C0
E380000E70
E380000E70
1C000001C0
1C000001C0
1C000001C0
E380000E70
E380000E70
E380000E70
1CE00071C0
1CE00071C0
1CE00071C0
039C738E00
039C738E00
00E38C7000
00E38C7000
00E38C7000
001C738000
001C738000
001C738000
00000C7000
00000C7000
00000C7000
0000038E00
0000038E00
0000038E00
ENDCHAR
STARTCHAR 0052
ENCODING 82
SWIDTH 684 0
DWIDTH 38 0
BBX 31 42 4 0
BITMAP
E39C7000
E39C7000
E39C7000
1CE38C00
1CE38C00
1CE38C00
E39C7380
E39C7380
E39C7380
1C000C70
1C000C70
E380038E
E380038E
E380038E
1C000070
1C000070
1C000070
E380038E
E380038E
E380038E
1C000070
1C000070
1C000070
E380038E
E380038E
1C000C70
1C000C70
1C000C70
E39C7380
E39C7380
E39C7380
1CE38C00
1CE38C00
1CE38C00
E39C7380
E39C7380
1C000C70
1C000C70
1C000C70
E380038E
E380038E
E380038E
ENDCHAR
STARTCHAR 0053
ENCODING 83
SWIDTH 684 0
DWIDTH 38 0
BBX 31 42 4 0
BITMAP
039C7380
039C7380
039C7380
1CE38C70
1CE38C70
1CE38C70
E39C738E
E39C738E
E39C738E
1C000070
1C000070
E380038E
E380038E
E380038E
1C000000
1C000000
1C000000
E39C7380
E39C7380
E39C7380
1CE38C70
1CE38C70
1CE38C70
039C738E
039C738E
00000070
00000070
00000070
E380038E
E380038E
E380038E
1C000070
1C000070
1C000070
E39C738E
E39C738E
1CE38C70
1CE38C70
1CE38C70
039C7380
039C7380
039C7380
ENDCHAR
STARTCHAR 0054
ENCODING 84
SWIDTH 684 0
DWIDTH 38 0
BBX 31 42 4 0
BITMAP
E39C738E
E39C738E
E39C738E
1CE38C70
1CE38C70
1CE38C70
E39C738E
E39C738E
E39C738E
00038000
00038000
001C7000
001C7000
001C7000
00038000
00038000
00038000
001C7000
001C7000
001C7000
00038000
00038000
00038000
001C7000
001C7000
00038000
00038000
00038000
001C7000
001C7000
001C7000
00038000
00038000
00038000
001C7000
001C7000
00038000
00038000
00038000
001C7000
001C7000
001C7000
ENDCHAR
STARTCHAR 0055
ENCODING 85
SWIDTH 792 0
DWIDTH 44 0
BBX 36 42 4 0
BITMAP
E380000E70
E380000E70
E380000E70
1C000001C0
1C000001C0
1C000001C0
E380000E70
E380000E70
E380000E70
1C000001C0
1C000001C0
E380000E70
E380000E70
E380000E70
1C000001C0
1C000001C0
1C000001C0
E380000E70
E380000E70
E380000E70
1C000001C0
1C000001C0
1C000001C0
E380000E70
E380000E70
1C000001C0
1C000001C0
1C000001C0
E380000E70
E380000E70
E380000E70
1CE00071C0
1CE00071C0
1CE00071C0
039C738E00
039C738E00
00E38C7000
00E38C7000
00E38C7000
001C738000
001C738000
001C738000
ENDCHAR
STARTCHAR 0056
ENCODING 86
SWIDTH 684 0
DWIDTH 38 0
BBX 31 42 4 0
BITMAP
E380038E
E380038E
E380038E
1C000070
1C000070
1C000070
E380038E
E380038E
E380038E
1C000070
1C000070
E380038E
E380038E
E380038E
1C000070
1C000070
1C000070
E380038E
E380038E
E380038E
1C000070
1C000070
1C000070
E380038E
E380038E
1C000070
1C000070
1C000070
E380038E
E380038E
E380038E
1CE00C70
1CE00C70
1CE00C70
039C7380
039C7380
00E38C00
00E38C00
00E38C00
001C7000
001C7000
001C7000
ENDCHAR
STARTCHAR 0057
ENCODING 87
SWIDTH 1098 0
DWIDTH 61 0
BBX 53 42 4 0
BITMAP
E380038E000638
E380038E000638
E380038E000638
1C0000700001C0
1C0000700001C0
1C0000700001C0
E380038E000638
E380038E000638
E380038E000638
1C0000700001C0
1C0000700001C0
E380038E000638
E380038E000638
E380038E000638
1C0000700001C0
1C0000700001C0
1C0000700001C0
E380038E000638
E380038E000638
E380038E000638
1C0000700001C0
1C0000700001C0
1C0000700001C0
E380038E000638
E380038E000638
1C0000700001C0
1C0000700001C0
1C0000700001C0
E380038E000638
E380038E000638
E380038E000638
1CE00C71C039C0
1CE00C71C039C0
1CE00C71C039C0
039C738E71C600
039C738E71C600
00E38C01CE3800
00E38C01CE3800
00E38C01CE3800
001C700071C000
001C700071C000
001C700071C000
ENDCHAR
STARTCHAR 0058
ENCODING 88
SWIDTH 792 0
DWIDTH 44 0
BBX 36 42 4 0
BITMAP
E380000E70
E380000E70
E380000E70
1C000001C0
1C000001C0
1C000001C0
E380000E70
E380000E70
E380000E70
1C000001C0
1C000001C0
E380000E70
E380000E70
E380000E70
1CE00071C0
1CE00071C0
1CE00071C0
039C738E00
039C738E00
039C738E00
00E38C7000
00E38C7000
00E38C7000
039C738E00
039C738E00
1CE00071C0
1CE00071C0
1CE00071C0
E380000E70
E380000E70
E380000E70
1C000001C0
1C000001C0
1C000001C0
E380000E70
E380000E70
1C000001C0
1C000001C0
1C000001C0
E380000E70
E380000E70
E380000E70
ENDCHAR
STARTCHAR 0059
ENCODING 89
SWIDTH 684 0
DWIDTH 38 0
BBX 31 42 4 0
BITMAP
E380038E
E380038E
E380038E
1C000070
1C000070
1C000070
E380038E
E380038E
E380038E
1C000070
1C000070
E380038E
E380038E
E380038E
1C000070
1C000070
1C000070
E380038E
E380038E
E380038E
1CE00C70
1CE00C70
1CE00C70
039C7380
039C7380
00E38C00
00E38C00
00E38C00
001C7000
001C7000
001C7000
00038000
00038000
00038000
001C7000
001C7000
00038000
00038000
00038000
001C7000
001C7000
001C7000
ENDCHAR
STARTCHAR 005A
ENCODING 90
SWIDTH 684 0
DWIDTH 38 0
BBX 31 42 4 0
BITMAP
E39C738E
E39C738E
E39C738E
1CE38C70
1CE38C70
1CE38C70
E39C738E
E39C738E
E39C738E
00000C70
00000C70
00007380
00007380
00007380
00038C00
00038C00
00038C00
001C7000
001C7000
001C7000
00E38000
00E38000
00E38000
039C0000
039C0000
1CE00000
1CE00000
1CE00000
E3800000
E3800000
E3800000
1C000000
1C000000
1C000000
E39C738E
E39C738E
1CE38C70
1CE38C70
1CE38C70
E39C738E
E39C738E
E39C738E
ENDCHAR
STARTCHAR 005B
ENCODING 91
SWIDTH 342 0
DWIDTH 19 0
BBX 14 64 4 -11
BITMAP
E39C
E39C
E39C
1CE0
1CE0
1CE0
E39C
E39C
E39C
1C00
1C00
E380
E380
E380
1C00
1C00
1C00
E380
E380
E380
1C00
1C00
E380
E380
E380
1C00
1C00
1C00
E380
E380
E380
1C00
1C00
1C00
E380
E380
1C00
1C00
1C00
E380
E380
E380
1C00
1C00
1C00
E380
E380
1C00
1C00
1C00
E380
E380
E380
1C00
1C00
1C00
E39C
E39C
E39C
1CE0
1CE0
E39C
E39C
E39C
ENDCHAR
STARTCHAR 005C
ENCODING 92
SWIDTH 396 0
DWIDTH 22 0
BBX 20 42 1 0
BITMAP
E38000
E38000
E38000
1C0000
1C0000
1C0000
E38000
E38000
E38000
1C7000
1C7000
038000
038000
038000
1C7000
1C7000
1C7000
039C00
039C00
039C00
007000
007000
007000
039C00
039C00
007380
007380
007380
001C00
001C00
001C00
007380
007380
007380
001C70
001C70
000380
000380
000380
001C70
001C70
001C70
ENDCHAR
STARTCHAR 005D
ENCODING 93
SWIDTH 342 0
DWIDTH 19 0
BBX 14 64 1 -11
BITMAP
E39C
E39C
E39C
1C70
1C70
1C70
E39C
E39C
E39C
0070
0070
039C
039C
039C
0070
0070
0070
039C
039C
039C
0070
0070
039C
039C
039C
0070
0070
0070
039C
039C
039C
0070
0070
0070
039C
039C
0070
0070
0070
039C
039C
039C
0070
0070
0070
039C
039C
0070
0070
0070
039C
039C
039C
0070
0070
0070
E39C
E39C
E39C
1C70
1C70
E39C
E39C
E39C
ENDCHAR
STARTCHAR 005F
ENCODING 95
SWIDTH 792 0
DWIDTH 44 0
BBX 42 9 1 -6
BITMAP
E39C718E39C0
E39C718E39C0
E39C718E39C0
1C738E71CE00
1C738E71CE00
1C738E71CE00
E39C718E39C0
E39C718E39C0
E39C718E39C0
ENDCHAR
STARTCHAR 0060
ENCODING 96
SWIDTH 342 0
DWIDTH 19 0
BBX 19 14 -4 44
BITMAP
E70000
E70000
18E000
18E000
18E000
071C00
071C00
071C00
00E380
00E380
00E380
001CE0
001CE0
001CE0
ENDCHAR
STARTCHAR 0061
ENCODING 97
SWIDTH 684 0
DWIDTH 38 0
BBX 31 42 4 0
BITMAP
039C7380
039C7380
039C7380
1CE38C70
1CE38C70
1CE38C70
E39C738E
E39C738E
E39C738E
1C000070
1C000070
E380038E
E380038E
E380038E
1C000070
1C000070
1C000070
E380038E
E380038E
E380038E
1C000070
1C000070
1C000070
E39C738E
E39C738E
1CE38C70
1CE38C70
1CE38C70
E39C738E
E39C738E
E39C738E
1C000070
1C000070
1C000070
E380038E
E380038E
1C000070
1C000070
1C000070
E380038E
E380038E
E380038E
ENDCHAR
STARTCHAR 0062
ENCODING 98
SWIDTH 684 0
DWIDTH 38 0
BBX 31 42 4 0
BITMAP
E39C7380
E39C7380
E39C7380
1CE38C70
1CE38C70
1CE38C70
E39C738E
E39C738E
E39C738E
1C000070
1C000070
E380038E
E380038E
E380038E
1C000C70
1C000C70
1C000C70
E39C7380
E39C7380
E39C7380
1CE38C00
1CE38C00
1CE38C00
E39C7380
E39C7380
1C000C70
1C000C70
1C000C70
E380038E
E380038E
E380038E
1C000070
1C000070
1C000070
E39C738E
E39C738E
1CE38C70
1CE38C70
1CE38C70
E39C7380
E39C7380
E39C7380
ENDCHAR
STARTCHAR 0063
ENCODING 99
SWIDTH 684 0
DWIDTH 38 0
BBX 31 42 4 0
BITMAP
039C7380
039C7380
039C7380
1CE38C70
1CE38C70
1CE38C70
E39C738E
E39C738E
E39C738E
1C000070
1C000070
E380038E
E380038E
E380038E
1C000070
1C000070
1C000070
E380038E
E380038E
E380038E
1C000000
1C000000
1C000000
E3800000
E3800000
1C000000
1C000000
1C000000
E380038E
E380038E
E380038E
1C000070
1C000070
1C000070
E39C738E
E39C738E
1CE38C70
1CE38C70
1CE38C70
039C7380
039C7380
039C7380
ENDCHAR
STARTCHAR 0064
ENCODING 100
SWIDTH 684 0
DWIDTH 38 0
BBX 31 42 4 0
BITMAP
E39C7380
E39C7380
E39C7380
1CE38C70
1CE38C70
1CE38C70
E39C738E
E39C738E
E39C738E
1C000070
1C000070
E380038E
E380038E
E380038E
1C000070
1C000070
1C000070
E380038E
E380038E
E380038E
1C000070
1C000070
1C000070
E380038E
E380038E
1C000070
1C000070
1C000070
E380038E
E380038E
E380038E
1C000070
1C000070
1C000070
E39C738E
E39C738E
1CE38C70
1CE38C70
1CE38C70
E39C7380
E39C7380
E39C7380
ENDCHAR
STARTCHAR 0065
ENCODING 101
SWIDTH 684 0
DWIDTH 38 0
BBX 31 42 4 0
BITMAP
039C738E
039C738E
039C738E
1CE38C70
1CE38C70
1CE38C70
E39C738E
E39C738E
E39C738E
1C000000
1C000000
E3800000
E3800000
E3800000
1C000000
1C000000
1C000000
E39C7380
E39C7380
E39C7380
1CE38C00
1CE38C00
1CE38C00
E39C7380
E39C7380
1C000000
1C000000
1C000000
E3800000
E3800000
E3800000
1C000000
1C000000
1C000000
E39C738E
E39C738E
1CE38C70
1CE38C70
1CE38C70
039C738E
039C738E
039C738E
ENDCHAR
STARTCHAR 0066
ENCODING 102
SWIDTH 684 0
DWIDTH 38 0
BBX 31 42 4 0
BITMAP
039C738E
039C738E
039C738E
1CE38C70
1CE38C70
1CE38C70
E39C738E
E39C738E
E39C738E
1C000000
1C000000
E3800000
E3800000
E3800000
1C000000
1C000000
1C000000
E39C7380
E39C7380
E39C7380
1CE38C00
1CE38C00
1CE38C00
E39C7380
E39C7380
1C000000
1C000000
1C000000
E3800000
E3800000
E3800000
1C000000
1C000000
1C000000
E3800000
E3800000
1C000000
1C000000
1C000000
E3800000
E3800000
E3800000
ENDCHAR
STARTCHAR 0067
ENCODING 103
SWIDTH 684 0
DWIDTH 38 0
BBX 31 42 4 0
BITMAP
039C738E
039C738E
039C738E
1CE38C70
1CE38C70
1CE38C70
E39C738E
E39C738E
E39C738E
1C000000
1C000000
E3800000
E3800000
E3800000
1C000000
1C000000
1C000000
E380738E
E380738E
E380738E
1C000C70
1C000C70
1C000C70
E380738E
E380738E
1C000070
1C000070
1C000070
E380038E
E380038E
E380038E
1C000070
1C000070
1C000070
E39C738E
E39C738E
1CE38C70
1CE38C70
1CE38C70
039C7380
039C7380
039C7380
ENDCHAR
STARTCHAR 0068
ENCODING 104
SWIDTH 684 0
DWIDTH 38 0
BBX 31 42 4 0
BITMAP
E380038E
E380038E
E380038E
1C000070
1C000070
1C000070
E380038E
E380038E
E380038E
1C000070
1C000070
E380038E
E380038E
E380038E
1C000070
1C000070
1C000070
E39C738E
E39C738E
E39C738E
1CE38C70
1CE38C70
1CE38C70
E39C738E
E39C738E
1C000070
1C000070
1C000070
E380038E
E380038E
E380038E
1C000070
1C000070
1C000070
E380038E
E380038E
1C000070
1C000070
1C000070
E380038E
E380038E
E380038E
ENDCHAR
STARTCHAR 0069
ENCODING 105
SWIDTH 288 0
DWIDTH 16 0
BBX 9 42 4 0
BITMAP
E380
E380
E380
1C00
1C00
1C00
E380
E380
E380
1C00
1C00
E380
E380
E380
1C00
1C00
1C00
E380
E380
E380
1C00
1C00
1C00
E380
E380
1C00
1C00
1C00
E380
E380
E380
1C00
1C00
1C00
E380
E380
1C00
1C00
1C00
E380
E380
E380
ENDCHAR
STARTCHAR 006A
ENCODING 106
SWIDTH 486 0
DWIDTH 27 0
BBX 20 42 4 0
BITMAP
001C70
001C70
001C70
000380
000380
000380
001C70
001C70
001C70
000380
000380
001C70
001C70
001C70
000380
000380
000380
001C70
001C70
001C70
000380
000380
000380
001C70
001C70
000380
000380
000380
001C70
001C70
001C70
000380
000380
000380
E39C70
E39C70
1CE380
1CE380
1CE380
E39C00
E39C00
E39C00
ENDCHAR
STARTCHAR 006B
ENCODING 107
SWIDTH 684 0
DWIDTH 38 0
BBX 31 42 4 0
BITMAP
E380038E
E380038E
E380038E
1C000070
1C000070
1C000070
E380038E
E380038E
E380038E
1C000070
1C000070
E380038E
E380038E
E380038E
1C000C70
1C000C70
1C000C70
E39C7380
E39C7380
E39C7380
1CE38C00
1CE38C00
1CE38C00
E39C7380
E39C7380
1C000C70
1C000C70
1C000C70
E380038E
E380038E
E380038E
1C000070
1C000070
1C000070
E380038E
E380038E
1C000070
1C000070
1C000070
E380038E
E380038E
E380038E
ENDCHAR
STARTCHAR 006C
ENCODING 108
SWIDTH 594 0
DWIDTH 33 0
BBX 25 42 4 0
BITMAP
E3800000
E3800000
E3800000
1C000000
1C000000
1C000000
E3800000
E3800000
E3800000
1C000000
1C000000
E3800000
E3800000
E3800000
1C000000
1C000000
1C000000
E3800000
E3800000
E3800000
1C000000
1C000000
1C000000
E3800000
E3800000
1C000000
1C000000
1C000000
E3800000
E3800000
E3800000
1C000000
1C000000
1C000000
E39C7380
E39C7380
1CE38C00
1CE38C00
1CE38C00
039C7380
039C7380
039C7380
ENDCHAR
STARTCHAR 006D
ENCODING 109
SWIDTH 900 0
DWIDTH 50 0
BBX 42 42 4 0
BITMAP
E380000071C0
E380000071C0
E380000071C0
1CE00001CE00
1CE00001CE00
1CE00001CE00
E39C000E71C0
E39C000E71C0
E39C000E71C0
1CE38071CE00
1CE38071CE00
E39C738E71C0
E39C738E71C0
E39C738E71C0
1C038C700E00
1C038C700E00
1C038C700E00
E380738071C0
E380738071C0
E380738071C0
1C000C000E00
1C000C000E00
1C000C000E00
E380000071C0
E380000071C0
1C0000000E00
1C0000000E00
1C0000000E00
E380000071C0
E380000071C0
E380000071C0
1C0000000E00
1C0000000E00
1C0000000E00
E380000071C0
E380000071C0
1C0000000E00
1C0000000E00
1C0000000E00
E380000071C0
E380000071C0
E380000071C0
ENDCHAR
STARTCHAR 006E
ENCODING 110
SWIDTH 684 0
DWIDTH 38 0
BBX 31 42 4 0
BITMAP
E380038E
E380038E
E380038E
1CE00070
1CE00070
1CE00070
E39C038E
E39C038E
E39C038E
1CE38070
1CE38070
E39C738E
E39C738E
E39C738E
1C038C70
1C038C70
1C038C70
E380738E
E380738E
E380738E
1C000C70
1C000C70
1C000C70
E380038E
E380038E
1C000070
1C000070
1C000070
E380038E
E380038E
E380038E
1C000070
1C000070
1C000070
E380038E
E380038E
1C000070
1C000070
1C000070
E380038E
E380038E
E380038E
ENDCHAR
STARTCHAR 006F
ENCODING 111
SWIDTH 684 0
DWIDTH 38 0
BBX 31 42 4 0
BITMAP
039C7380
039C7380
039C7380
1CE38C70
1CE38C70
1CE38C70
E39C738E
E39C738E
E39C738E
1C000070
1C000070
E380038E
E380038E
E380038E
1C000070
1C000070
1C000070
E380038E
E380038E
E380038E
1C000070
1C000070
1C000070
E380038E
E380038E
1C000070
1C000070
1C000070
E380038E
E380038E
E380038E
1C000070
1C000070
1C000070
E39C738E
E39C738E
1CE38C70
1CE38C70
1CE38C70
039C7380
039C7380
039C7380
ENDCHAR
STARTCHAR 0070
ENCODING 112
SWIDTH 684 0
DWIDTH 38 0
BBX 31 42 4 0
BITMAP
E39C7380
E39C7380
E39C7380
1CE38C70
1CE38C70
1CE38C70
E39C738E
E39C738E
E39C738E
1C000070
1C000070
E380038E
E380038E
E380038E
1C000070
1C000070
1C000070
E380038E
E380038E
E380038E
1C000070
1C000070
1C000070
E39C738E
E39C738E
1CE38C70
1CE38C70
1CE38C70
E39C7380
E39C7380
E39C7380
1C000000
1C000000
1C000000
E3800000
E3800000
1C000000
1C000000
1C000000
E3800000
E3800000
E3800000
ENDCHAR
STARTCHAR 0071
ENCODING 113
SWIDTH 684 0
DWIDTH 38 0
BBX 31 48 4 -6
BITMAP
039C7380
039C7380
039C7380
1CE38C70
1CE38C70
1CE38C70
E39C738E
E39C738E
E39C738E
1C000070
1C000070
E380038E
E380038E
E380038E
1C000070
1C000070
1C000070
E380038E
E380038E
E380038E
1C000070
1C000070
1C000070
E380038E
E380038E
1C000070
1C000070
1C000070
E380038E
E380038E
E380038E
1C000070
1C000070
1C000070
E39C738E
E39C738E
1CE38C70
1CE38C70
1CE38C70
039C7380
039C7380
039C7380
00000C70
00000C70
00000C70
0000038E
0000038E
0000038E
ENDCHAR
STARTCHAR 0072
ENCODING 114
SWIDTH 684 0
DWIDTH 38 0
BBX 31 42 4 0
BITMAP
E39C7380
E39C7380
E39C7380
1CE38C70
1CE38C70
1CE38C70
E39C738E
E39C738E
E39C738E
1C000070
1C000070
E380038E
E380038E
E380038E
1C000070
1C000070
1C000070
E380038E
E380038E
E380038E
1C000070
1C000070
1C000070
E39C738E
E39C738E
1CE38C70
1CE38C70
1CE38C70
E39C7380
E39C7380
E39C7380
1C000C70
1C000C70
1C000C70
E380038E
E380038E
1C000070
1C000070
1C000070
E380038E
E380038E
E380038E
ENDCHAR
STARTCHAR 0073
ENCODING 115
SWIDTH 684 0
DWIDTH 38 0
BBX 31 42 4 0
BITMAP
039C7380
039C7380
039C7380
1CE38C70
1CE38C70
1CE38C70
E39C738E
E39C738E
E39C738E
1C000070
1C000070
E380038E
E380038E
E380038E
1C000000
1C000000
1C000000
E39C7380
E39C7380
E39C7380
1CE38C70
1CE38C70
1CE38C70
039C738E
039C738E
00000070
00000070
00000070
E380038E
E380038E
E380038E
1C000070
1C000070
1C000070
E39C738E
E39C738E
1CE38C70
1CE38C70
1CE38C70
039C7380
039C7380
039C7380
ENDCHAR
STARTCHAR 0074
ENCODING 116
SWIDTH 684 0
DWIDTH 38 0
BBX 31 42 4 0
BITMAP
E39C738E
E39C738E
E39C738E
1CE38C70
1CE38C70
1CE38C70
E39C738E
E39C738E
E39C738E
00038000
00038000
001C7000
001C7000
001C7000
00038000
00038000
00038000
001C7000
001C7000
001C7000
00038000
00038000
00038000
001C7000
001C7000
00038000
00038000
00038000
001C7000
001C7000
001C7000
00038000
00038000
00038000
001C7000
001C7000
00038000
00038000
00038000
001C7000
001C7000
001C7000
ENDCHAR
STARTCHAR 0075
ENCODING 117
SWIDTH 684 0
DWIDTH 38 0
BBX 31 42 4 0
BITMAP
E380038E
E380038E
E380038E
1C000070
1C000070
1C000070
E380038E
E380038E
E380038E
1C000070
1C000070
E380038E
E380038E
E380038E
1C000070
1C000070
1C000070
E380038E
E380038E
E380038E
1C000070
1C000070
1C000070
E380038E
E380038E
1C000070
1C000070
1C000070
E380038E
E380038E
E380038E
1C000070
1C000070
1C000070
E39C738E
E39C738E
1CE38C70
1CE38C70
1CE38C70
039C7380
039C7380
039C7380
ENDCHAR
STARTCHAR 0076
ENCODING 118
SWIDTH 684 0
DWIDTH 38 0
BBX 31 42 4 0
BITMAP
E380038E
E380038E
E380038E
1C000070
1C000070
1C000070
E380038E
E380038E
E380038E
1C000070
1C000070
E380038E
E380038E
E380038E
1C000070
1C000070
1C000070
E380038E
E380038E
E380038E
1C000070
1C000070
1C000070
E380038E
E380038E
1C000070
1C000070
1C000070
E380038E
E380038E
E380038E
1CE00C70
1CE00C70
1CE00C70
039C7380
039C7380
00E38C00
00E38C00
00E38C00
001C7000
001C7000
001C7000
ENDCHAR
STARTCHAR 0077
ENCODING 119
SWIDTH 1098 0
DWIDTH 61 0
BBX 53 42 4 0
BITMAP
E380038E000638
E380038E000638
E380038E000638
1C0000700001C0
1C0000700001C0
1C0000700001C0
E380038E000638
E380038E000638
E380038E000638
1C0000700001C0
1C0000700001C0
E380038E000638
E380038E000638
E380038E000638
1C0000700001C0
1C0000700001C0
1C0000700001C0
E380038E000638
E380038E000638
E380038E000638
1C0000700001C0
1C0000700001C0
1C0000700001C0
E380038E000638
E380038E000638
1C0000700001C0
1C0000700001C0
1C0000700001C0
E380038E000638
E380038E000638
E380038E000638
1C000C71C001C0
1C000C71C001C0
1C000C71C001C0
E39C738E71C638
E39C738E71C638
1CE38C01CE39C0
1CE38C01CE39C0
1CE38C01CE39C0
039C700071C600
039C700071C600
039C700071C600
ENDCHAR
STARTCHAR 0078
ENCODING 120
SWIDTH 684 0
DWIDTH 38 0
BBX 31 42 4 0
BITMAP
E380038E
E380038E
E380038E
1C000070
1C000070
1C000070
E380038E
E380038E
E380038E
1C000070
1C000070
E380038E
E380038E
E380038E
1CE00C70
1CE00C70
1CE00C70
039C7380
039C7380
039C7380
00E38C00
00E38C00
00E38C00
039C7380
039C7380
1CE00C70
1CE00C70
1CE00C70
E380038E
E380038E
E380038E
1C000070
1C000070
1C000070
E380038E
E380038E
1C000070
1C000070
1C000070
E380038E
E380038E
E380038E
ENDCHAR
STARTCHAR 0079
ENCODING 121
SWIDTH 684 0
DWIDTH 38 0
BBX 31 42 4 0
BITMAP
E380038E
E380038E
E380038E
1C000070
1C000070
1C000070
E380038E
E380038E
E380038E
1C000070
1C000070
E380038E
E380038E
E380038E
1C000070
1C000070
1C000070
E380038E
E380038E
E380038E
1C000070
1C000070
1C000070
E39C738E
E39C738E
1CE38C70
1CE38C70
1CE38C70
039C7380
039C7380
039C7380
00038000
00038000
00038000
001C7000
001C7000
00038000
00038000
00038000
001C7000
001C7000
001C7000
ENDCHAR
STARTCHAR 007A
ENCODING 122
SWIDTH 684 0
DWIDTH 38 0
BBX 31 42 4 0
BITMAP
E39C738E
E39C738E
E39C738E
1CE38C70
1CE38C70
1CE38C70
E39C738E
E39C738E
E39C738E
00000070
00000070
0000038E
0000038E
0000038E
00000070
00000070
00000070
039C738E
039C738E
039C738E
1CE38C70
1CE38C70
1CE38C70
E39C7380
E39C7380
1C000000
1C000000
1C000000
E3800000
E3800000
E3800000
1C000000
1C000000
1C000000
E39C738E
E39C738E
1CE38C70
1CE38C70
1CE38C70
E39C738E
E39C738E
E39C738E
ENDCHAR
STARTCHAR 007B
ENCODING 123
SWIDTH 396 0
DWIDTH 22 0
BBX 23 64 1 -11
BITMAP
00038E
00038E
00038E
001C70
001C70
001C70
007380
007380
007380
001C00
001C00
007380
007380
007380
001C00
001C00
001C00
007380
007380
007380
001C00
001C00
007380
007380
007380
039C00
039C00
039C00
1C7000
1C7000
1C7000
E38000
E38000
E38000
1C7000
1C7000
039C00
039C00
039C00
007380
007380
007380
001C00
001C00
001C00
007380
007380
001C00
001C00
001C00
007380
007380
007380
001C00
001C00
001C00
007380
007380
007380
001C70
001C70
00038E
00038E
00038E
ENDCHAR
STARTCHAR 007C
ENCODING 124
SWIDTH 288 0
DWIDTH 16 0
BBX 9 53 4 -6
BITMAP
E380
E380
E380
1C00
1C00
E380
E380
E380
1C00
1C00
1C00
E380
E380
E380
1C00
1C00
E380
E380
E380
1C00
1C00
1C00
E380
E380
E380
1C00
1C00
1C00
E380
E380
1C00
1C00
1C00
E380
E380
E380
1C00
1C00
1C00
E380
E380
1C00
1C00
1C00
E380
E380
E380
1C00
1C00
1C00
E380
E380
E380
ENDCHAR
STARTCHAR 007D
ENCODING 125
SWIDTH 396 0
DWIDTH 22 0
BBX 22 64 -1 -11
BITMAP
C70000
C70000
C70000
38E000
38E000
38E000
071C00
071C00
071C00
00E000
00E000
071C00
071C00
071C00
00E000
00E000
00E000
071C00
071C00
071C00
00E000
00E000
071C00
071C00
071C00
00E700
00E700
00E700
001CE0
001CE0
001CE0
00071C
00071C
00071C
001CE0
001CE0
00E700
00E700
00E700
071C00
071C00
071C00
00E000
00E000
00E000
071C00
071C00
00E000
00E000
00E000
071C00
071C00
071C00
00E000
00E000
00E000
071C00
071C00
071C00
38E000
38E000
C70000
C70000
C70000
ENDCHAR
STARTCHAR 00A1
ENCODING 161
SWIDTH 288 0
DWIDTH 16 0
BBX 9 42 4 0
BITMAP
E380
E380
E380
1C00
1C00
1C00
E380
E380
E380
0000
0000
0000
0000
0000
1C00
1C00
1C00
E380
E380
E380
1C00
1C00
1C00
E380
E380
1C00
1C00
1C00
E380
E380
E380
1C00
1C00
1C00
E380
E380
1C00
1C00
1C00
E380
E380
E380
ENDCHAR
STARTCHAR 00A2
ENCODING 162
SWIDTH 684 0
DWIDTH 38 0
BBX 31 53 4 -6
BITMAP
001C7000
001C7000
001C7000
00038000
00038000
039C7380
039C7380
039C7380
1CE38C70
1CE38C70
1CE38C70
E39C738E
E39C738E
E39C738E
1C000070
1C000070
E380038E
E380038E
E380038E
1C000070
1C000070
1C000070
E380038E
E380038E
E380038E
1C000000
1C000000
1C000000
E3800000
E3800000
1C000000
1C000000
1C000000
E380038E
E380038E
E380038E
1C000070
1C000070
1C000070
E39C738E
E39C738E
1CE38C70
1CE38C70
1CE38C70
039C7380
039C7380
039C7380
00038000
00038000
00038000
001C7000
001C7000
001C7000
ENDCHAR
STARTCHAR 00A3
ENCODING 163
SWIDTH 684 0
DWIDTH 38 0
BBX 31 47 4 0
BITMAP
001C7380
001C7380
001C7380
00E38C70
00E38C70
039C738E
039C738E
039C738E
00E00070
00E00070
00E00070
039C038E
039C038E
039C038E
00E00000
00E00000
039C0000
039C0000
039C0000
00E00000
00E00000
00E00000
E39C7380
E39C7380
E39C7380
1CE38C00
1CE38C00
1CE38C00
E39C7380
E39C7380
00E00000
00E00000
00E00000
039C0000
039C0000
039C0000
00E00000
00E00000
00E00000
E39C738E
E39C738E
1CE38C70
1CE38C70
1CE38C70
E39C738E
E39C738E
E39C738E
ENDCHAR
STARTCHAR 00A4
ENCODING 164
SWIDTH 792 0
DWIDTH 44 0
BBX 36 36 4 11
BITMAP
039C000000
039C000000
039C000000
00E0000000
00E0000000
039C738E70
039C738E70
039C738E70
00E38C71C0
00E38C71C0
00E38C71C0
039C738E70
039C738E70
039C738E70
00E0007000
00E0007000
039C038E00
039C038E00
039C038E00
00E0007000
00E0007000
00E0007000
E39C738E00
E39C738E00
E39C738E00
1CE38C7000
1CE38C7000
1CE38C7000
E39C738E00
E39C738E00
0000007000
0000007000
0000007000
0000038E00
0000038E00
0000038E00
ENDCHAR
STARTCHAR 00A5
ENCODING 165
SWIDTH 684 0
DWIDTH 38 0
BBX 31 59 4 -6
BITMAP
E380038E
E380038E
E380038E
1C000070
1C000070
1C000070
E380038E
E380038E
E380038E
1C000070
1C000070
E380038E
E380038E
E380038E
1CE00C70
1CE00C70
1CE00C70
039C7380
039C7380
039C7380
00E38C00
00E38C00
001C7000
001C7000
001C7000
00038000
00038000
00038000
E39C738E
E39C738E
E39C738E
1CE38C70
1CE38C70
1CE38C70
E39C738E
E39C738E
00038000
00038000
00038000
001C7000
001C7000
001C7000
00038000
00038000
00038000
E39C738E
E39C738E
1CE38C70
1CE38C70
1CE38C70
E39C738E
E39C738E
E39C738E
00038000
00038000
00038000
001C7000
001C7000
001C7000
ENDCHAR
STARTCHAR 00A6
ENCODING 166
SWIDTH 288 0
DWIDTH 16 0
BBX 9 53 4 -6
BITMAP
E380
E380
E380
1C00
1C00
E380
E380
E380
1C00
1C00
1C00
E380
E380
E380
1C00
1C00
E380
E380
E380
0000
0000
0000
0000
0000
0000
0000
0000
0000
0000
0000
0000
0000
0000
E380
E380
E380
1C00
1C00
1C00
E380
E380
1C00
1C00
1C00
E380
E380
E380
1C00
1C00
1C00
E380
E380
E380
ENDCHAR
STARTCHAR 00A7
ENCODING 167
SWIDTH 684 0
DWIDTH 38 0
BBX 31 64 4 -11
BITMAP
001C738E
001C738E
001C738E
00E38C70
00E38C70
00E38C70
039C738E
039C738E
039C738E
1CE00000
1CE00000
E3800000
E3800000
E3800000
1C000000
1C000000
1C000000
E39C7000
E39C7000
E39C7000
1CE38C00
1CE38C00
E39C7380
E39C7380
E39C7380
1C000C70
1C000C70
1C000C70
E380038E
E380038E
E380038E
1C000070
1C000070
1C000070
E380038E
E380038E
1CE00070
1CE00070
1CE00070
039C738E
039C738E
039C738E
00E38C70
00E38C70
00E38C70
001C738E
001C738E
00000070
00000070
00000070
0000038E
0000038E
0000038E
00000C70
00000C70
00000C70
E39C7380
E39C7380
E39C7380
1CE38C00
1CE38C00
E39C7000
E39C7000
E39C7000
ENDCHAR
STARTCHAR 00A8
ENCODING 168
SWIDTH 396 0
DWIDTH 22 0
BBX 20 9 1 44
BITMAP
E39C70
E39C70
E39C70
1C0380
1C0380
1C0380
E39C70
E39C70
E39C70
ENDCHAR
STARTCHAR 00AB
ENCODING 171
SWIDTH 846 0
DWIDTH 47 0
BBX 39 30 1 6
BITMAP
00038E01CE
00038E01CE
00038E01CE
001C700E38
001C700E38
00738071C0
00738071C0
00738071C0
039C018E00
039C018E00
039C018E00
1C700E7000
1C700E7000
1C700E7000
E380718000
E380718000
E380718000
1C700E7000
1C700E7000
039C018E00
039C018E00
039C018E00
00738071C0
00738071C0
00738071C0
001C700E38
001C700E38
001C700E38
00038E01CE
00038E01CE
ENDCHAR
STARTCHAR 00AD
ENCODING 173
SWIDTH 486 0
DWIDTH 27 0
BBX 25 8 1 17
BITMAP
E39C7180
E39C7180
E39C7180
1C738E00
1C738E00
1C738E00
E39C7180
E39C7180
ENDCHAR
STARTCHAR 00AF
ENCODING 175
SWIDTH 396 0
DWIDTH 22 0
BBX 20 9 1 44
BITMAP
E39C70
E39C70
E39C70
1C7380
1C7380
1C7380
E39C70
E39C70
E39C70
ENDCHAR
STARTCHAR 00B0
ENCODING 176
SWIDTH 486 0
DWIDTH 27 0
BBX 25 25 1 22
BITMAP
039C7000
039C7000
039C7000
1C738E00
1C738E00
E39C7180
E39C7180
E39C7180
1C000E00
1C000E00
1C000E00
E3807180
E3807180
E3807180
1C000E00
1C000E00
E39C7180
E39C7180
E39C7180
1C738E00
1C738E00
1C738E00
039C7000
039C7000
039C7000
ENDCHAR
STARTCHAR 00B4
ENCODING 180
SWIDTH 342 0
DWIDTH 19 0
BBX 20 14 1 44
BITMAP
001C70
001C70
007380
007380
007380
039C00
039C00
039C00
1C7000
1C7000
1C7000
E38000
E38000
E38000
ENDCHAR
STARTCHAR 00B6
ENCODING 182
SWIDTH 684 0
DWIDTH 38 0
BBX 31 42 4 0
BITMAP
039C738E
039C738E
039C738E
1CE38070
1CE38070
1CE38070
E39C738E
E39C738E
E39C738E
1CE38070
1CE38070
E39C738E
E39C738E
E39C738E
1CE38070
1CE38070
1CE38070
E39C738E
E39C738E
E39C738E
1CE38070
1CE38070
1CE38070
039C738E
039C738E
00038070
00038070
00038070
001C738E
001C738E
001C738E
00038070
00038070
00038070
001C738E
001C738E
00038070
00038070
00038070
001C738E
001C738E
001C738E
ENDCHAR
STARTCHAR 00B7
ENCODING 183
SWIDTH 198 0
DWIDTH 11 0
BBX 9 8 1 17
BITMAP
E380
E380
E380
1C00
1C00
1C00
E380
E380
ENDCHAR
STARTCHAR 00B8
ENCODING 184
SWIDTH 234 0
DWIDTH 13 0
BBX 14 11 -1 -11
BITMAP
00E0
00E0
00E0
C71C
C71C
C71C
38E0
38E0
C700
C700
C700
ENDCHAR
STARTCHAR 00BB
ENCODING 187
SWIDTH 846 0
DWIDTH 47 0
BBX 39 30 7 6
BITMAP
E700638000
E700638000
E700638000
1CE01C7000
1CE01C7000
071C038E00
071C038E00
071C038E00
00E3807380
00E3807380
00E3807380
001C600E70
001C600E70
001C600E70
00039C038E
00039C038E
00039C038E
001C600E70
001C600E70
00E3807380
00E3807380
00E3807380
071C038E00
071C038E00
071C038E00
1CE01C7000
1CE01C7000
1CE01C7000
E700638000
E700638000
ENDCHAR
STARTCHAR 00BF
ENCODING 191
SWIDTH 684 0
DWIDTH 38 0
BBX 31 42 4 0
BITMAP
001C7000
001C7000
001C7000
00038000
00038000
00038000
001C7000
001C7000
001C7000
00000000
00000000
001C7000
001C7000
001C7000
00038000
00038000
00038000
039C7000
039C7000
039C7000
1CE38000
1CE38000
1CE38000
E39C0000
E39C0000
1C000000
1C000000
1C000000
E380038E
E380038E
E380038E
1C000070
1C000070
1C000070
E39C738E
E39C738E
1CE38C70
1CE38C70
1CE38C70
039C7380
039C7380
039C7380
ENDCHAR
STARTCHAR 00C0
ENCODING 192
SWIDTH 684 0
DWIDTH 38 0
BBX 31 58 4 0
BITMAP
E3800000
E3800000
1CE00000
1CE00000
1CE00000
039C0000
039C0000
039C0000
00E38000
00E38000
00E38000
001C7000
001C7000
001C7000
00000000
00000000
001C7000
001C7000
001C7000
00E38C00
00E38C00
00E38C00
039C7380
039C7380
039C7380
1CE00C70
1CE00C70
E380038E
E380038E
E380038E
1C000070
1C000070
1C000070
E380038E
E380038E
E380038E
1C000070
1C000070
1C000070
E39C738E
E39C738E
1CE38C70
1CE38C70
1CE38C70
E39C738E
E39C738E
E39C738E
1C000070
1C000070
1C000070
E380038E
E380038E
1C000070
1C000070
1C000070
E380038E
E380038E
E380038E
ENDCHAR
STARTCHAR 00C1
ENCODING 193
SWIDTH 684 0
DWIDTH 38 0
BBX 31 58 4 0
BITMAP
00000C70
00000C70
00007380
00007380
00007380
00038C00
00038C00
00038C00
001C7000
001C7000
001C7000
00E38000
00E38000
00E38000
00000000
00000000
001C7000
001C7000
001C7000
00E38C00
00E38C00
00E38C00
039C7380
039C7380
039C7380
1CE00C70
1CE00C70
E380038E
E380038E
E380038E
1C000070
1C000070
1C000070
E380038E
E380038E
E380038E
1C000070
1C000070
1C000070
E39C738E
E39C738E
1CE38C70
1CE38C70
1CE38C70
E39C738E
E39C738E
E39C738E
1C000070
1C000070
1C000070
E380038E
E380038E
1C000070
1C000070
1C000070
E380038E
E380038E
E380038E
ENDCHAR
STARTCHAR 00C2
ENCODING 194
SWIDTH 684 0
DWIDTH 38 0
BBX 31 58 4 0
BITMAP
001C7000
001C7000
00E38C00
00E38C00
00E38C00
039C7380
039C7380
039C7380
00E00C00
00E00C00
00E00C00
039C7380
039C7380
039C7380
00000000
00000000
001C7000
001C7000
001C7000
00E38C00
00E38C00
00E38C00
039C7380
039C7380
039C7380
1CE00C70
1CE00C70
E380038E
E380038E
E380038E
1C000070
1C000070
1C000070
E380038E
E380038E
E380038E
1C000070
1C000070
1C000070
E39C738E
E39C738E
1CE38C70
1CE38C70
1CE38C70
E39C738E
E39C738E
E39C738E
1C000070
1C000070
1C000070
E380038E
E380038E
1C000070
1C000070
1C000070
E380038E
E380038E
E380038E
ENDCHAR
STARTCHAR 00C3
ENCODING 195
SWIDTH 684 0
DWIDTH 38 0
BBX 31 58 4 0
BITMAP
039C038E
039C038E
1CE38070
1CE38070
1CE38070
E39C738E
E39C738E
E39C738E
1C038C70
1C038C70
1C038C70
E3807380
E3807380
E3807380
00000000
00000000
001C7000
001C7000
001C7000
00E38C00
00E38C00
00E38C00
039C7380
039C7380
039C7380
1CE00C70
1CE00C70
E380038E
E380038E
E380038E
1C000070
1C000070
1C000070
E380038E
E380038E
E380038E
1C000070
1C000070
1C000070
E39C738E
E39C738E
1CE38C70
1CE38C70
1CE38C70
E39C738E
E39C738E
E39C738E
1C000070
1C000070
1C000070
E380038E
E380038E
1C000070
1C000070
1C000070
E380038E
E380038E
E380038E
ENDCHAR
STARTCHAR 00C4
ENCODING 196
SWIDTH 684 0
DWIDTH 38 0
BBX 31 53 4 0
BITMAP
039C7380
039C7380
039C7380
00E00C00
00E00C00
00E00C00
039C7380
039C7380
039C7380
00000000
00000000
001C7000
001C7000
001C7000
00E38C00
00E38C00
00E38C00
039C7380
039C7380
039C7380
1CE00C70
1CE00C70
E380038E
E380038E
E380038E
1C000070
1C000070
1C000070
E380038E
E380038E
E380038E
1C000070
1C000070
1C000070
E39C738E
E39C738E
1CE38C70
1CE38C70
1CE38C70
E39C738E
E39C738E
E39C738E
1C000070
1C000070
1C000070
E380038E
E380038E
1C000070
1C000070
1C000070
E380038E
E380038E
E380038E
ENDCHAR
STARTCHAR 00C5
ENCODING 197
SWIDTH 684 0
DWIDTH 38 0
BBX 31 69 4 0
BITMAP
00E38C00
00E38C00
039C7380
039C7380
039C7380
1CE38C70
1CE38C70
1CE38C70
03800380
03800380
03800380
1CE00C70
1CE00C70
03800380
03800380
03800380
1CE38C70
1CE38C70
1CE38C70
039C7380
039C7380
039C7380
00E38C00
00E38C00
00E38C00
00000000
00000000
001C7000
001C7000
001C7000
00E38C00
00E38C00
00E38C00
039C7380
039C7380
039C7380
1CE00C70
1CE00C70
E380038E
E380038E
E380038E
1C000070
1C000070
1C000070
E380038E
E380038E
E380038E
1C000070
1C000070
1C000070
E39C738E
E39C738E
1CE38C70
1CE38C70
1CE38C70
E39C738E
E39C738E
E39C738E
1C000070
1C000070
1C000070
E380038E
E380038E
1C000070
1C000070
1C000070
E380038E
E380038E
E380038E
ENDCHAR
STARTCHAR 00C6
ENCODING 198
SWIDTH 1098 0
DWIDTH 61 0
BBX 53 42 4 0
BITMAP
001C738E71C638
001C738E71C638
001C738E71C638
00E38C71CE39C0
00E38C71CE39C0
00E38C71CE39C0
039C738E71C638
039C738E71C638
039C738E71C638
1CE00070000000
1CE00070000000
E380038E000000
E380038E000000
E380038E000000
1C000070000000
1C000070000000
1C000070000000
E380038E71C600
E380038E71C600
E380038E71C600
1C000071CE3800
1C000071CE3800
1C000071CE3800
E39C738E71C600
E39C738E71C600
1CE38C70000000
1CE38C70000000
1CE38C70000000
E39C738E000000
E39C738E000000
E39C738E000000
1C000070000000
1C000070000000
1C000070000000
E380038E71C638
E380038E71C638
1C000071CE39C0
1C000071CE39C0
1C000071CE39C0
E380000E71C638
E380000E71C638
E380000E71C638
ENDCHAR
STARTCHAR 00C7
ENCODING 199
SWIDTH 792 0
DWIDTH 44 0
BBX 36 53 4 -11
BITMAP
001C738000
001C738000
001C738000
00E38C7000
00E38C7000
00E38C7000
039C738E00
039C738E00
039C738E00
1CE00071C0
1CE00071C0
E380000E70
E380000E70
E380000E70
1C000001C0
1C000001C0
1C000001C0
E380000E70
E380000E70
E380000E70
1C00000000
1C00000000
1C00000000
E380000000
E380000000
1C00000000
1C00000000
1C00000000
E380000E70
E380000E70
E380000E70
1CE00071C0
1CE00071C0
1CE00071C0
039C738E00
039C738E00
00E38C7000
00E38C7000
00E38C7000
001C738000
001C738000
001C738000
00000C0000
00000C0000
00000C0000
001C738000
001C738000
001C738000
00038C0000
00038C0000
001C700000
001C700000
001C700000
ENDCHAR
STARTCHAR 00C8
ENCODING 200
SWIDTH 684 0
DWIDTH 38 0
BBX 31 58 4 0
BITMAP
E3800000
E3800000
1CE00000
1CE00000
1CE00000
039C0000
039C0000
039C0000
00E38000
00E38000
00E38000
001C7000
001C7000
001C7000
00000000
00000000
001C738E
001C738E
001C738E
00E38C70
00E38C70
00E38C70
039C738E
039C738E
039C738E
1CE00000
1CE00000
E3800000
E3800000
E3800000
1C000000
1C000000
1C000000
E39C7380
E39C7380
E39C7380
1CE38C00
1CE38C00
1CE38C00
E39C7380
E39C7380
1C000000
1C000000
1C000000
E3800000
E3800000
E3800000
1CE00000
1CE00000
1CE00000
039C738E
039C738E
00E38C70
00E38C70
00E38C70
001C738E
001C738E
001C738E
ENDCHAR
STARTCHAR 00C9
ENCODING 201
SWIDTH 684 0
DWIDTH 38 0
BBX 31 58 4 0
BITMAP
00000C70
00000C70
00007380
00007380
00007380
00038C00
00038C00
00038C00
001C7000
001C7000
001C7000
00E38000
00E38000
00E38000
00000000
00000000
001C738E
001C738E
001C738E
00E38C70
00E38C70
00E38C70
039C738E
039C738E
039C738E
1CE00000
1CE00000
E3800000
E3800000
E3800000
1C000000
1C000000
1C000000
E39C7380
E39C7380
E39C7380
1CE38C00
1CE38C00
1CE38C00
E39C7380
E39C7380
1C000000
1C000000
1C000000
E3800000
E3800000
E3800000
1CE00000
1CE00000
1CE00000
039C738E
039C738E
00E38C70
00E38C70
00E38C70
001C738E
001C738E
001C738E
ENDCHAR
STARTCHAR 00CA
ENCODING 202
SWIDTH 684 0
DWIDTH 38 0
BBX 31 58 4 0
BITMAP
001C7000
001C7000
00E38C00
00E38C00
00E38C00
039C7380
039C7380
039C7380
00E00C00
00E00C00
00E00C00
039C7380
039C7380
039C7380
00000000
00000000
001C738E
001C738E
001C738E
00E38C70
00E38C70
00E38C70
039C738E
039C738E
039C738E
1CE00000
1CE00000
E3800000
E3800000
E3800000
1C000000
1C000000
1C000000
E39C7380
E39C7380
E39C7380
1CE38C00
1CE38C00
1CE38C00
E39C7380
E39C7380
1C000000
1C000000
1C000000
E3800000
E3800000
E3800000
1CE00000
1CE00000
1CE00000
039C738E
039C738E
00E38C70
00E38C70
00E38C70
001C738E
001C738E
001C738E
ENDCHAR
STARTCHAR 00CB
ENCODING 203
SWIDTH 684 0
DWIDTH 38 0
BBX 31 53 4 0
BITMAP
039C7380
039C7380
039C7380
00E00C00
00E00C00
00E00C00
039C7380
039C7380
039C7380
00000000
00000000
001C738E
001C738E
001C738E
00E38C70
00E38C70
00E38C70
039C738E
039C738E
039C738E
1CE00000
1CE00000
E3800000
E3800000
E3800000
1C000000
1C000000
1C000000
E39C7380
E39C7380
E39C7380
1CE38C00
1CE38C00
1CE38C00
E39C7380
E39C7380
1C000000
1C000000
1C000000
E3800000
E3800000
E3800000
1CE00000
1CE00000
1CE00000
039C738E
039C738E
00E38C70
00E38C70
00E38C70
001C738E
001C738E
001C738E
ENDCHAR
STARTCHAR 00CC
ENCODING 204
SWIDTH 486 0
DWIDTH 27 0
BBX 25 58 -1 0
BITMAP
C7000000
C7000000
38E00000
38E00000
38E00000
071C0000
071C0000
071C0000
00E70000
00E70000
00E70000
001CE000
001CE000
001CE000
00000000
00000000
071CE380
071CE380
071CE380
00E71C00
00E71C00
00E71C00
071CE380
071CE380
071CE380
00070000
00070000
001CE000
001CE000
001CE000
00070000
00070000
00070000
001CE000
001CE000
001CE000
00070000
00070000
00070000
001CE000
001CE000
00070000
00070000
00070000
001CE000
001CE000
001CE000
00070000
00070000
00070000
071CE380
071CE380
00E71C00
00E71C00
00E71C00
071CE380
071CE380
071CE380
ENDCHAR
STARTCHAR 00CD
ENCODING 205
SWIDTH 486 0
DWIDTH 27 0
BBX 22 58 4 0
BITMAP
00038C
00038C
001C70
001C70
001C70
00E380
00E380
00E380
039C00
039C00
039C00
1CE000
1CE000
1CE000
000000
000000
E39C70
E39C70
E39C70
1CE380
1CE380
1CE380
E39C70
E39C70
E39C70
00E000
00E000
039C00
039C00
039C00
00E000
00E000
00E000
039C00
039C00
039C00
00E000
00E000
00E000
039C00
039C00
00E000
00E000
00E000
039C00
039C00
039C00
00E000
00E000
00E000
E39C70
E39C70
1CE380
1CE380
1CE380
E39C70
E39C70
E39C70
ENDCHAR
STARTCHAR 00CE
ENCODING 206
SWIDTH 486 0
DWIDTH 27 0
BBX 20 58 4 0
BITMAP
039C00
039C00
1CE380
1CE380
1CE380
E39C70
E39C70
E39C70
1C0380
1C0380
1C0380
E39C70
E39C70
E39C70
000000
000000
E39C70
E39C70
E39C70
1CE380
1CE380
1CE380
E39C70
E39C70
E39C70
00E000
00E000
039C00
039C00
039C00
00E000
00E000
00E000
039C00
039C00
039C00
00E000
00E000
00E000
039C00
039C00
00E000
00E000
00E000
039C00
039C00
039C00
00E000
00E000
00E000
E39C70
E39C70
1CE380
1CE380
1CE380
E39C70
E39C70
E39C70
ENDCHAR
STARTCHAR 00CF
ENCODING 207
SWIDTH 486 0
DWIDTH 27 0
BBX 20 53 4 0
BITMAP
E39C70
E39C70
E39C70
1C0380
1C0380
1C0380
E39C70
E39C70
E39C70
000000
000000
E39C70
E39C70
E39C70
1CE380
1CE380
1CE380
E39C70
E39C70
E39C70
00E000
00E000
039C00
039C00
039C00
00E000
00E000
00E000
039C00
039C00
039C00
00E000
00E000
00E000
039C00
039C00
00E000
00E000
00E000
039C00
039C00
039C00
00E000
00E000
00E000
E39C70
E39C70
1CE380
1CE380
1CE380
E39C70
E39C70
E39C70
ENDCHAR
STARTCHAR 00D0
ENCODING 208
SWIDTH 846 0
DWIDTH 47 0
BBX 42 42 1 0
BITMAP
039C718E0000
039C718E0000
039C718E0000
00738E71C000
00738E71C000
00738E71C000
039C718E3800
039C718E3800
039C718E3800
00700001CE00
00700001CE00
039C000039C0
039C000039C0
039C000039C0
007000000E00
007000000E00
007000000E00
E39C700039C0
E39C700039C0
E39C700039C0
1C7380000E00
1C7380000E00
1C7380000E00
E39C700039C0
E39C700039C0
007000000E00
007000000E00
007000000E00
039C000039C0
039C000039C0
039C000039C0
00700001CE00
00700001CE00
00700001CE00
039C718E3800
039C718E3800
00738E71C000
00738E71C000
00738E71C000
039C718E0000
039C718E0000
039C718E0000
ENDCHAR
STARTCHAR 00D1
ENCODING 209
SWIDTH 792 0
DWIDTH 44 0
BBX 36 58 4 0
BITMAP
00E38071C0
00E38071C0
039C700E00
039C700E00
039C700E00
1CE38C71C0
1CE38C71C0
1CE38C71C0
0380738E00
0380738E00
0380738E00
1CE00C7000
1CE00C7000
1CE00C7000
0000000000
0000000000
E380000E70
E380000E70
E380000E70
1CE00001C0
1CE00001C0
1CE00001C0
E39C000E70
E39C000E70
E39C000E70
1CE38001C0
1CE38001C0
E39C700E70
E39C700E70
E39C700E70
1C038C01C0
1C038C01C0
1C038C01C0
E380738E70
E380738E70
E380738E70
1C000C71C0
1C000C71C0
1C000C71C0
E380038E70
E380038E70
1C000071C0
1C000071C0
1C000071C0
E380000E70
E380000E70
E380000E70
1C000001C0
1C000001C0
1C000001C0
E380000E70
E380000E70
1C000001C0
1C000001C0
1C000001C0
E380000E70
E380000E70
E380000E70
ENDCHAR
STARTCHAR 00D2
ENCODING 210
SWIDTH 792 0
DWIDTH 44 0
BBX 36 58 4 0
BITMAP
1CE0000000
1CE0000000
039C000000
039C000000
039C000000
00E3800000
00E3800000
00E3800000
001C700000
001C700000
001C700000
00038C0000
00038C0000
00038C0000
0000000000
0000000000
001C738000
001C738000
001C738000
00E38C7000
00E38C7000
00E38C7000
039C738E00
039C738E00
039C738E00
1CE00071C0
1CE00071C0
E380000E70
E380000E70
E380000E70
1C000001C0
1C000001C0
1C000001C0
E380000E70
E380000E70
E380000E70
1C000001C0
1C000001C0
1C000001C0
E380000E70
E380000E70
1C000001C0
1C000001C0
1C000001C0
E380000E70
E380000E70
E380000E70
1CE00071C0
1CE00071C0
1CE00071C0
039C738E00
039C738E00
00E38C7000
00E38C7000
00E38C7000
001C738000
001C738000
001C738000
ENDCHAR
STARTCHAR 00D3
ENCODING 211
SWIDTH 792 0
DWIDTH 44 0
BBX 36 58 4 0
BITMAP
0000038E00
0000038E00
00000C7000
00000C7000
00000C7000
0000738000
0000738000
0000738000
00038C0000
00038C0000
00038C0000
001C700000
001C700000
001C700000
0000000000
0000000000
001C738000
001C738000
001C738000
00E38C7000
00E38C7000
00E38C7000
039C738E00
039C738E00
039C738E00
1CE00071C0
1CE00071C0
E380000E70
E380000E70
E380000E70
1C000001C0
1C000001C0
1C000001C0
E380000E70
E380000E70
E380000E70
1C000001C0
1C000001C0
1C000001C0
E380000E70
E380000E70
1C000001C0
1C000001C0
1C000001C0
E380000E70
E380000E70
E380000E70
1CE00071C0
1CE00071C0
1CE00071C0
039C738E00
039C738E00
00E38C7000
00E38C7000
00E38C7000
001C738000
001C738000
001C738000
ENDCHAR
STARTCHAR 00D4
ENCODING 212
SWIDTH 792 0
DWIDTH 44 0
BBX 36 58 4 0
BITMAP
00038C0000
00038C0000
001C738000
001C738000
001C738000
00E38C7000
00E38C7000
00E38C7000
001C038000
001C038000
001C038000
00E38C7000
00E38C7000
00E38C7000
0000000000
0000000000
001C738000
001C738000
001C738000
00E38C7000
00E38C7000
00E38C7000
039C738E00
039C738E00
039C738E00
1CE00071C0
1CE00071C0
E380000E70
E380000E70
E380000E70
1C000001C0
1C000001C0
1C000001C0
E380000E70
E380000E70
E380000E70
1C000001C0
1C000001C0
1C000001C0
E380000E70
E380000E70
1C000001C0
1C000001C0
1C000001C0
E380000E70
E380000E70
E380000E70
1CE00071C0
1CE00071C0
1CE00071C0
039C738E00
039C738E00
00E38C7000
00E38C7000
00E38C7000
001C738000
001C738000
001C738000
ENDCHAR
STARTCHAR 00D5
ENCODING 213
SWIDTH 792 0
DWIDTH 44 0
BBX 36 58 4 0
BITMAP
00E38071C0
00E38071C0
039C700E00
039C700E00
039C700E00
1CE38C71C0
1CE38C71C0
1CE38C71C0
0380738E00
0380738E00
0380738E00
1CE00C7000
1CE00C7000
1CE00C7000
0000000000
0000000000
001C738000
001C738000
001C738000
00E38C7000
00E38C7000
00E38C7000
039C738E00
039C738E00
039C738E00
1CE00071C0
1CE00071C0
E380000E70
E380000E70
E380000E70
1C000001C0
1C000001C0
1C000001C0
E380000E70
E380000E70
E380000E70
1C000001C0
1C000001C0
1C000001C0
E380000E70
E380000E70
1C000001C0
1C000001C0
1C000001C0
E380000E70
E380000E70
E380000E70
1CE00071C0
1CE00071C0
1CE00071C0
039C738E00
039C738E00
00E38C7000
00E38C7000
00E38C7000
001C738000
001C738000
001C738000
ENDCHAR
STARTCHAR 00D6
ENCODING 214
SWIDTH 792 0
DWIDTH 44 0
BBX 36 53 4 0
BITMAP
00E38C7000
00E38C7000
00E38C7000
001C038000
001C038000
001C038000
00E38C7000
00E38C7000
00E38C7000
0000000000
0000000000
001C738000
001C738000
001C738000
00E38C7000
00E38C7000
00E38C7000
039C738E00
039C738E00
039C738E00
1CE00071C0
1CE00071C0
E380000E70
E380000E70
E380000E70
1C000001C0
1C000001C0
1C000001C0
E380000E70
E380000E70
E380000E70
1C000001C0
1C000001C0
1C000001C0
E380000E70
E380000E70
1C000001C0
1C000001C0
1C000001C0
E380000E70
E380000E70
E380000E70
1CE00071C0
1CE00071C0
1CE00071C0
039C738E00
039C738E00
00E38C7000
00E38C7000
00E38C7000
001C738000
001C738000
001C738000
ENDCHAR
STARTCHAR 00D7
ENCODING 215
SWIDTH 684 0
DWIDTH 38 0
BBX 31 33 4 6
BITMAP
1C000070
1C000070
1C000070
E380038E
E380038E
E380038E
1CE00C70
1CE00C70
039C7380
039C7380
039C7380
00E38C00
00E38C00
00E38C00
001C7000
001C7000
001C7000
00E38C00
00E38C00
00E38C00
039C7380
039C7380
1CE00C70
1CE00C70
1CE00C70
E380038E
E380038E
E380038E
1C000070
1C000070
1C000070
E380038E
E380038E
ENDCHAR
STARTCHAR 00D8
ENCODING 216
SWIDTH 900 0
DWIDTH 50 0
BBX 48 42 1 0
BITMAP
0000718E0000
0000718E0000
0000718E0000
00038E71C000
00038E71C000
00038E71C000
001C718E3800
001C718E3800
001C718E3800
00738001CE00
00738001CE00
039C000039C0
039C000039C0
039C000039C0
007000000E00
007000000E00
007000000E00
E39C718E39C7
E39C718E39C7
E39C718E39C7
1C738E71CE38
1C738E71CE38
1C738E71CE38
E39C718E39C7
E39C718E39C7
007000000E00
007000000E00
007000000E00
039C000039C0
039C000039C0
039C000039C0
00738001CE00
00738001CE00
00738001CE00
001C718E3800
001C718E3800
00038E71C000
00038E71C000
00038E71C000
0000718E0000
0000718E0000
0000718E0000
ENDCHAR
STARTCHAR 00D9
ENCODING 217
SWIDTH 792 0
DWIDTH 44 0
BBX 36 58 4 0
BITMAP
1CE0000000
1CE0000000
039C000000
039C000000
039C000000
00E3800000
00E3800000
00E3800000
001C700000
001C700000
001C700000
00038C0000
00038C0000
00038C0000
0000000000
0000000000
E380000E70
E380000E70
E380000E70
1C000001C0
1C000001C0
1C000001C0
E380000E70
E380000E70
E380000E70
1C000001C0
1C000001C0
E380000E70
E380000E70
E380000E70
1C000001C0
1C000001C0
1C000001C0
E380000E70
E380000E70
E380000E70
1C000001C0
1C000001C0
1C000001C0
E380000E70
E380000E70
1C000001C0
1C000001C0
1C000001C0
E380000E70
E380000E70
E380000E70
1CE00071C0
1CE00071C0
1CE00071C0
039C738E00
039C738E00
00E38C7000
00E38C7000
00E38C7000
001C738000
001C738000
001C738000
ENDCHAR
STARTCHAR 00DA
ENCODING 218
SWIDTH 792 0
DWIDTH 44 0
BBX 36 58 4 0
BITMAP
0000038E00
0000038E00
00000C7000
00000C7000
00000C7000
0000738000
0000738000
0000738000
00038C0000
00038C0000
00038C0000
001C700000
001C700000
001C700000
0000000000
0000000000
E380000E70
E380000E70
E380000E70
1C000001C0
1C000001C0
1C000001C0
E380000E70
E380000E70
E380000E70
1C000001C0
1C000001C0
E380000E70
E380000E70
E380000E70
1C000001C0
1C000001C0
1C000001C0
E380000E70
E380000E70
E380000E70
1C000001C0
1C000001C0
1C000001C0
E380000E70
E380000E70
1C000001C0
1C000001C0
1C000001C0
E380000E70
E380000E70
E380000E70
1CE00071C0
1CE00071C0
1CE00071C0
039C738E00
039C738E00
00E38C7000
00E38C7000
00E38C7000
001C738000
001C738000
001C738000
ENDCHAR
STARTCHAR 00DB
ENCODING 219
SWIDTH 792 0
DWIDTH 44 0
BBX 36 58 4 0
BITMAP
00038C0000
00038C0000
001C738000
001C738000
001C738000
00E38C7000
00E38C7000
00E38C7000
001C038000
001C038000
001C038000
00E38C7000
00E38C7000
00E38C7000
0000000000
0000000000
E380000E70
E380000E70
E380000E70
1C000001C0
1C000001C0
1C000001C0
E380000E70
E380000E70
E380000E70
1C000001C0
1C000001C0
E380000E70
E380000E70
E380000E70
1C000001C0
1C000001C0
1C000001C0
E380000E70
E380000E70
E380000E70
1C000001C0
1C000001C0
1C000001C0
E380000E70
E380000E70
1C000001C0
1C000001C0
1C000001C0
E380000E70
E380000E70
E380000E70
1CE00071C0
1CE00071C0
1CE00071C0
039C738E00
039C738E00
00E38C7000
00E38C7000
00E38C7000
001C738000
001C738000
001C738000
ENDCHAR
STARTCHAR 00DC
ENCODING 220
SWIDTH 792 0
DWIDTH 44 0
BBX 36 53 4 0
BITMAP
00E38C7000
00E38C7000
00E38C7000
001C038000
001C038000
001C038000
00E38C7000
00E38C7000
00E38C7000
0000000000
0000000000
E380000E70
E380000E70
E380000E70
1C000001C0
1C000001C0
1C000001C0
E380000E70
E380000E70
E380000E70
1C000001C0
1C000001C0
E380000E70
E380000E70
E380000E70
1C000001C0
1C000001C0
1C000001C0
E380000E70
E380000E70
E380000E70
1C000001C0
1C000001C0
1C000001C0
E380000E70
E380000E70
1C000001C0
1C000001C0
1C000001C0
E380000E70
E380000E70
E380000E70
1CE00071C0
1CE00071C0
1CE00071C0
039C738E00
039C738E00
00E38C7000
00E38C7000
00E38C7000
001C738000
001C738000
001C738000
ENDCHAR
STARTCHAR 00DD
ENCODING 221
SWIDTH 684 0
DWIDTH 38 0
BBX 31 58 4 0
BITMAP
00000C70
00000C70
00007380
00007380
00007380
00038C00
00038C00
00038C00
001C7000
001C7000
001C7000
00E38000
00E38000
00E38000
00000000
00000000
E380038E
E380038E
E380038E
1C000070
1C000070
1C000070
E380038E
E380038E
E380038E
1C000070
1C000070
E380038E
E380038E
E380038E
1C000070
1C000070
1C000070
E380038E
E380038E
E380038E
1CE00C70
1CE00C70
1CE00C70
039C7380
039C7380
00E38C00
00E38C00
00E38C00
001C7000
001C7000
001C7000
00038000
00038000
00038000
001C7000
001C7000
00038000
00038000
00038000
001C7000
001C7000
001C7000
ENDCHAR
STARTCHAR 00DE
ENCODING 222
SWIDTH 684 0
DWIDTH 38 0
BBX 31 42 4 0
BITMAP
E3800000
E3800000
E3800000
1C000000
1C000000
1C000000
E39C7380
E39C7380
E39C7380
1CE38C70
1CE38C70
E39C738E
E39C738E
E39C738E
1C000070
1C000070
1C000070
E380038E
E380038E
E380038E
1C000070
1C000070
1C000070
E380038E
E380038E
1C000070
1C000070
1C000070
E39C738E
E39C738E
E39C738E
1CE38C70
1CE38C70
1CE38C70
E39C7380
E39C7380
1C000000
1C000000
1C000000
E3800000
E3800000
E3800000
ENDCHAR
STARTCHAR 00DF
ENCODING 223
SWIDTH 684 0
DWIDTH 38 0
BBX 31 42 4 0
BITMAP
039C7380
039C7380
039C7380
1CE38C70
1CE38C70
1CE38C70
E39C738E
E39C738E
E39C738E
1C000070
1C000070
E380038E
E380038E
E380038E
1C000C70
1C000C70
1C000C70
E39C7380
E39C7380
E39C7380
1C038C70
1C038C70
1C038C70
E39C738E
E39C738E
1C000070
1C000070
1C000070
E380038E
E380038E
E380038E
1C000070
1C000070
1C000070
E39C738E
E39C738E
1C038C70
1C038C70
1C038C70
E39C7380
E39C7380
E39C7380
ENDCHAR
STARTCHAR 00E0
ENCODING 224
SWIDTH 684 0
DWIDTH 38 0
BBX 31 58 4 0
BITMAP
E3800000
E3800000
1CE00000
1CE00000
1CE00000
039C0000
039C0000
039C0000
00E38000
00E38000
00E38000
001C7000
001C7000
001C7000
00000000
00000000
039C7380
039C7380
039C7380
1CE38C70
1CE38C70
1CE38C70
E39C738E
E39C738E
E39C738E
1C000070
1C000070
E380038E
E380038E
E380038E
1C000070
1C000070
1C000070
E380038E
E380038E
E380038E
1C000070
1C000070
1C000070
E39C738E
E39C738E
1CE38C70
1CE38C70
1CE38C70
E39C738E
E39C738E
E39C738E
1C000070
1C000070
1C000070
E380038E
E380038E
1C000070
1C000070
1C000070
E380038E
E380038E
E380038E
ENDCHAR
STARTCHAR 00E1
ENCODING 225
SWIDTH 684 0
DWIDTH 38 0
BBX 31 58 4 0
BITMAP
00000C70
00000C70
00007380
00007380
00007380
00038C00
00038C00
00038C00
001C7000
001C7000
001C7000
00E38000
00E38000
00E38000
00000000
00000000
039C7380
039C7380
039C7380
1CE38C70
1CE38C70
1CE38C70
E39C738E
E39C738E
E39C738E
1C000070
1C000070
E380038E
E380038E
E380038E
1C000070
1C000070
1C000070
E380038E
E380038E
E380038E
1C000070
1C000070
1C000070
E39C738E
E39C738E
1CE38C70
1CE38C70
1CE38C70
E39C738E
E39C738E
E39C738E
1C000070
1C000070
1C000070
E380038E
E380038E
1C000070
1C000070
1C000070
E380038E
E380038E
E380038E
ENDCHAR
STARTCHAR 00E2
ENCODING 226
SWIDTH 684 0
DWIDTH 38 0
BBX 31 58 4 0
BITMAP
001C7000
001C7000
00E38C00
00E38C00
00E38C00
039C7380
039C7380
039C7380
00E00C00
00E00C00
00E00C00
039C7380
039C7380
039C7380
00000000
00000000
039C7380
039C7380
039C7380
1CE38C70
1CE38C70
1CE38C70
E39C738E
E39C738E
E39C738E
1C000070
1C000070
E380038E
E380038E
E380038E
1C000070
1C000070
1C000070
E380038E
E380038E
E380038E
1C000070
1C000070
1C000070
E39C738E
E39C738E
1CE38C70
1CE38C70
1CE38C70
E39C738E
E39C738E
E39C738E
1C000070
1C000070
1C000070
E380038E
E380038E
1C000070
1C000070
1C000070
E380038E
E380038E
E380038E
ENDCHAR
STARTCHAR 00E3
ENCODING 227
SWIDTH 684 0
DWIDTH 38 0
BBX 31 58 4 0
BITMAP
039C038E
039C038E
1CE38070
1CE38070
1CE38070
E39C738E
E39C738E
E39C738E
1C038C70
1C038C70
1C038C70
E3807380
E3807380
E3807380
00000000
00000000
039C7380
039C7380
039C7380
1CE38C70
1CE38C70
1CE38C70
E39C738E
E39C738E
E39C738E
1C000070
1C000070
E380038E
E380038E
E380038E
1C000070
1C000070
1C000070
E380038E
E380038E
E380038E
1C000070
1C000070
1C000070
E39C738E
E39C738E
1CE38C70
1CE38C70
1CE38C70
E39C738E
E39C738E
E39C738E
1C000070
1C000070
1C000070
E380038E
E380038E
1C000070
1C000070
1C000070
E380038E
E380038E
E380038E
ENDCHAR
STARTCHAR 00E4
ENCODING 228
SWIDTH 684 0
DWIDTH 38 0
BBX 31 53 4 0
BITMAP
039C7380
039C7380
039C7380
00E00C00
00E00C00
00E00C00
039C7380
039C7380
039C7380
00000000
00000000
039C7380
039C7380
039C7380
1CE38C70
1CE38C70
1CE38C70
E39C738E
E39C738E
E39C738E
1C000070
1C000070
E380038E
E380038E
E380038E
1C000070
1C000070
1C000070
E380038E
E380038E
E380038E
1C000070
1C000070
1C000070
E39C738E
E39C738E
1CE38C70
1CE38C70
1CE38C70
E39C738E
E39C738E
E39C738E
1C000070
1C000070
1C000070
E380038E
E380038E
1C000070
1C000070
1C000070
E380038E
E380038E
E380038E
ENDCHAR
STARTCHAR 00E5
ENCODING 229
SWIDTH 684 0
DWIDTH 38 0
BBX 31 69 4 0
BITMAP
00E38C00
00E38C00
039C7380
039C7380
039C7380
1CE38C70
1CE38C70
1CE38C70
03800380
03800380
03800380
1CE00C70
1CE00C70
03800380
03800380
03800380
1CE38C70
1CE38C70
1CE38C70
039C7380
039C7380
039C7380
00E38C00
00E38C00
00E38C00
00000000
00000000
039C7380
039C7380
039C7380
1CE38C70
1CE38C70
1CE38C70
E39C738E
E39C738E
E39C738E
1C000070
1C000070
E380038E
E380038E
E380038E
1C000070
1C000070
1C000070
E380038E
E380038E
E380038E
1C000070
1C000070
1C000070
E39C738E
E39C738E
1CE38C70
1CE38C70
1CE38C70
E39C738E
E39C738E
E39C738E
1C000070
1C000070
1C000070
E380038E
E380038E
1C000070
1C000070
1C000070
E380038E
E380038E
E380038E
ENDCHAR
STARTCHAR 00E6
ENCODING 230
SWIDTH 1098 0
DWIDTH 61 0
BBX 53 42 4 0
BITMAP
039C738E71C638
039C738E71C638
039C738E71C638
1CE38C71CE39C0
1CE38C71CE39C0
1CE38C71CE39C0
E39C738E71C638
E39C738E71C638
E39C738E71C638
1C000070000000
1C000070000000
E380038E000000
E380038E000000
E380038E000000
1C000070000000
1C000070000000
1C000070000000
E380038E71C600
E380038E71C600
E380038E71C600
1C000071CE3800
1C000071CE3800
1C000071CE3800
E39C738E71C600
E39C738E71C600
1CE38C70000000
1CE38C70000000
1CE38C70000000
E39C738E000000
E39C738E000000
E39C738E000000
1C000070000000
1C000070000000
1C000070000000
E380038E71C638
E380038E71C638
1C000071CE39C0
1C000071CE39C0
1C000071CE39C0
E380000E71C638
E380000E71C638
E380000E71C638
ENDCHAR
STARTCHAR 00E7
ENCODING 231
SWIDTH 684 0
DWIDTH 38 0
BBX 31 53 4 -11
BITMAP
039C7380
039C7380
039C7380
1CE38C70
1CE38C70
1CE38C70
E39C738E
E39C738E
E39C738E
1C000070
1C000070
E380038E
E380038E
E380038E
1C000070
1C000070
1C000070
E380038E
E380038E
E380038E
1C000000
1C000000
1C000000
E3800000
E3800000
1C000000
1C000000
1C000000
E380038E
E380038E
E380038E
1C000070
1C000070
1C000070
E39C738E
E39C738E
1CE38C70
1CE38C70
1CE38C70
039C7380
039C7380
039C7380
00038000
00038000
00038000
039C7000
039C7000
039C7000
00E38000
00E38000
039C0000
039C0000
039C0000
ENDCHAR
STARTCHAR 00E8
ENCODING 232
SWIDTH 684 0
DWIDTH 38 0
BBX 31 58 4 0
BITMAP
E3800000
E3800000
1CE00000
1CE00000
1CE00000
039C0000
039C0000
039C0000
00E38000
00E38000
00E38000
001C7000
001C7000
001C7000
00000000
00000000
039C738E
039C738E
039C738E
1CE38C70
1CE38C70
1CE38C70
E39C738E
E39C738E
E39C738E
1C000000
1C000000
E3800000
E3800000
E3800000
1C000000
1C000000
1C000000
E39C7380
E39C7380
E39C7380
1CE38C00
1CE38C00
1CE38C00
E39C7380
E39C7380
1C000000
1C000000
1C000000
E3800000
E3800000
E3800000
1C000000
1C000000
1C000000
E39C738E
E39C738E
1CE38C70
1CE38C70
1CE38C70
039C738E
039C738E
039C738E
ENDCHAR
STARTCHAR 00E9
ENCODING 233
SWIDTH 684 0
DWIDTH 38 0
BBX 31 58 4 0
BITMAP
00000C70
00000C70
00007380
00007380
00007380
00038C00
00038C00
00038C00
001C7000
001C7000
001C7000
00E38000
00E38000
00E38000
00000000
00000000
039C738E
039C738E
039C738E
1CE38C70
1CE38C70
1CE38C70
E39C738E
E39C738E
E39C738E
1C000000
1C000000
E3800000
E3800000
E3800000
1C000000
1C000000
1C000000
E39C7380
E39C7380
E39C7380
1CE38C00
1CE38C00
1CE38C00
E39C7380
E39C7380
1C000000
1C000000
1C000000
E3800000
E3800000
E3800000
1C000000
1C000000
1C000000
E39C738E
E39C738E
1CE38C70
1CE38C70
1CE38C70
039C738E
039C738E
039C738E
ENDCHAR
STARTCHAR 00EA
ENCODING 234
SWIDTH 684 0
DWIDTH 38 0
BBX 31 58 4 0
BITMAP
001C7000
001C7000
00E38C00
00E38C00
00E38C00
039C7380
039C7380
039C7380
00E00C00
00E00C00
00E00C00
039C7380
039C7380
039C7380
00000000
00000000
039C738E
039C738E
039C738E
1CE38C70
1CE38C70
1CE38C70
E39C738E
E39C738E
E39C738E
1C000000
1C000000
E3800000
E3800000
E3800000
1C000000
1C000000
1C000000
E39C7380
E39C7380
E39C7380
1CE38C00
1CE38C00
1CE38C00
E39C7380
E39C7380
1C000000
1C000000
1C000000
E3800000
E3800000
E3800000
1C000000
1C000000
1C000000
E39C738E
E39C738E
1CE38C70
1CE38C70
1CE38C70
039C738E
039C738E
039C738E
ENDCHAR
STARTCHAR 00EB
ENCODING 235
SWIDTH 684 0
DWIDTH 38 0
BBX 31 53 4 0
BITMAP
039C7380
039C7380
039C7380
00E00C00
00E00C00
00E00C00
039C7380
039C7380
039C7380
00000000
00000000
039C738E
039C738E
039C738E
1CE38C70
1CE38C70
1CE38C70
E39C738E
E39C738E
E39C738E
1C000000
1C000000
E3800000
E3800000
E3800000
1C000000
1C000000
1C000000
E39C7380
E39C7380
E39C7380
1CE38C00
1CE38C00
1CE38C00
E39C7380
E39C7380
1C000000
1C000000
1C000000
E3800000
E3800000
E3800000
1C000000
1C000000
1C000000
E39C738E
E39C738E
1CE38C70
1CE38C70
1CE38C70
039C738E
039C738E
039C738E
ENDCHAR
STARTCHAR 00EC
ENCODING 236
SWIDTH 288 0
DWIDTH 16 0
BBX 20 58 -7 0
BITMAP
E30000
E30000
1CE000
1CE000
1CE000
031C00
031C00
031C00
00E380
00E380
00E380
001C70
001C70
001C70
000000
000000
001C70
001C70
001C70
000380
000380
000380
001C70
001C70
001C70
000380
000380
001C70
001C70
001C70
000380
000380
000380
001C70
001C70
001C70
000380
000380
000380
001C70
001C70
000380
000380
000380
001C70
001C70
001C70
000380
000380
000380
001C70
001C70
000380
000380
000380
001C70
001C70
001C70
ENDCHAR
STARTCHAR 00ED
ENCODING 237
SWIDTH 288 0
DWIDTH 16 0
BBX 20 58 1 0
BITMAP
001C70
001C70
007380
007380
007380
039C00
039C00
039C00
1C7000
1C7000
1C7000
E38000
E38000
E38000
000000
000000
1C7000
1C7000
1C7000
038000
038000
038000
1C7000
1C7000
1C7000
038000
038000
1C7000
1C7000
1C7000
038000
038000
038000
1C7000
1C7000
1C7000
038000
038000
038000
1C7000
1C7000
038000
038000
038000
1C7000
1C7000
1C7000
038000
038000
038000
1C7000
1C7000
038000
038000
038000
1C7000
1C7000
1C7000
ENDCHAR
STARTCHAR 00EE
ENCODING 238
SWIDTH 288 0
DWIDTH 16 0
BBX 19 58 -1 0
BITMAP
071C00
071C00
38E700
38E700
38E700
C71CE0
C71CE0
C71CE0
380700
380700
380700
C71CE0
C71CE0
C71CE0
000000
000000
071C00
071C00
071C00
00E000
00E000
00E000
071C00
071C00
071C00
00E000
00E000
071C00
071C00
071C00
00E000
00E000
00E000
071C00
071C00
071C00
00E000
00E000
00E000
071C00
071C00
00E000
00E000
00E000
071C00
071C00
071C00
00E000
00E000
00E000
071C00
071C00
00E000
00E000
00E000
071C00
071C00
071C00
ENDCHAR
STARTCHAR 00EF
ENCODING 239
SWIDTH 288 0
DWIDTH 16 0
BBX 19 53 -1 0
BITMAP
C71CE0
C71CE0
C71CE0
380700
380700
380700
C71CE0
C71CE0
C71CE0
000000
000000
071C00
071C00
071C00
00E000
00E000
00E000
071C00
071C00
071C00
00E000
00E000
071C00
071C00
071C00
00E000
00E000
00E000
071C00
071C00
071C00
00E000
00E000
00E000
071C00
071C00
00E000
00E000
00E000
071C00
071C00
071C00
00E000
00E000
00E000
071C00
071C00
00E000
00E000
00E000
071C00
071C00
071C00
ENDCHAR
STARTCHAR 00F0
ENCODING 240
SWIDTH 738 0
DWIDTH 41 0
BBX 37 42 1 0
BITMAP
039C718E00
039C718E00
039C718E00
00738E71C0
00738E71C0
00738E71C0
039C718E38
039C718E38
039C718E38
00700001C0
00700001C0
039C000E38
039C000E38
039C000E38
00700001C0
00700001C0
00700001C0
E39C700E38
E39C700E38
E39C700E38
1C738001C0
1C738001C0
1C738001C0
E39C700E38
E39C700E38
00700001C0
00700001C0
00700001C0
039C000E38
039C000E38
039C000E38
00700001C0
00700001C0
00700001C0
039C718E38
039C718E38
00738E71C0
00738E71C0
00738E71C0
039C718E00
039C718E00
039C718E00
ENDCHAR
STARTCHAR 00F1
ENCODING 241
SWIDTH 684 0
DWIDTH 38 0
BBX 31 58 4 0
BITMAP
039C038E
039C038E
1CE38070
1CE38070
1CE38070
E39C738E
E39C738E
E39C738E
1C038C70
1C038C70
1C038C70
E3807380
E3807380
E3807380
00000000
00000000
E380038E
E380038E
E380038E
1CE00070
1CE00070
1CE00070
E39C038E
E39C038E
E39C038E
1CE38070
1CE38070
E39C738E
E39C738E
E39C738E
1C038C70
1C038C70
1C038C70
E380738E
E380738E
E380738E
1C000C70
1C000C70
1C000C70
E380038E
E380038E
1C000070
1C000070
1C000070
E380038E
E380038E
E380038E
1C000070
1C000070
1C000070
E380038E
E380038E
1C000070
1C000070
1C000070
E380038E
E380038E
E380038E
ENDCHAR
STARTCHAR 00F2
ENCODING 242
SWIDTH 684 0
DWIDTH 38 0
BBX 31 58 4 0
BITMAP
E3800000
E3800000
1CE00000
1CE00000
1CE00000
039C0000
039C0000
039C0000
00E38000
00E38000
00E38000
001C7000
001C7000
001C7000
00000000
00000000
039C7380
039C7380
039C7380
1CE38C70
1CE38C70
1CE38C70
E39C738E
E39C738E
E39C738E
1C000070
1C000070
E380038E
E380038E
E380038E
1C000070
1C000070
1C000070
E380038E
E380038E
E380038E
1C000070
1C000070
1C000070
E380038E
E380038E
1C000070
1C000070
1C000070
E380038E
E380038E
E380038E
1C000070
1C000070
1C000070
E39C738E
E39C738E
1CE38C70
1CE38C70
1CE38C70
039C7380
039C7380
039C7380
ENDCHAR
STARTCHAR 00F3
ENCODING 243
SWIDTH 684 0
DWIDTH 38 0
BBX 31 58 4 0
BITMAP
00000C70
00000C70
00007380
00007380
00007380
00038C00
00038C00
00038C00
001C7000
001C7000
001C7000
00E38000
00E38000
00E38000
00000000
00000000
039C7380
039C7380
039C7380
1CE38C70
1CE38C70
1CE38C70
E39C738E
E39C738E
E39C738E
1C000070
1C000070
E380038E
E380038E
E380038E
1C000070
1C000070
1C000070
E380038E
E380038E
E380038E
1C000070
1C000070
1C000070
E380038E
E380038E
1C000070
1C000070
1C000070
E380038E
E380038E
E380038E
1C000070
1C000070
1C000070
E39C738E
E39C738E
1CE38C70
1CE38C70
1CE38C70
039C7380
039C7380
039C7380
ENDCHAR
STARTCHAR 00F4
ENCODING 244
SWIDTH 684 0
DWIDTH 38 0
BBX 31 58 4 0
BITMAP
001C7000
001C7000
00E38C00
00E38C00
00E38C00
039C7380
039C7380
039C7380
00E00C00
00E00C00
00E00C00
039C7380
039C7380
039C7380
00000000
00000000
039C7380
039C7380
039C7380
1CE38C70
1CE38C70
1CE38C70
E39C738E
E39C738E
E39C738E
1C000070
1C000070
E380038E
E380038E
E380038E
1C000070
1C000070
1C000070
E380038E
E380038E
E380038E
1C000070
1C000070
1C000070
E380038E
E380038E
1C000070
1C000070
1C000070
E380038E
E380038E
E380038E
1C000070
1C000070
1C000070
E39C738E
E39C738E
1CE38C70
1CE38C70
1CE38C70
039C7380
039C7380
039C7380
ENDCHAR
STARTCHAR 00F5
ENCODING 245
SWIDTH 684 0
DWIDTH 38 0
BBX 31 58 4 0
BITMAP
039C038E
039C038E
1CE38070
1CE38070
1CE38070
E39C738E
E39C738E
E39C738E
1C038C70
1C038C70
1C038C70
E3807380
E3807380
E3807380
00000000
00000000
039C7380
039C7380
039C7380
1CE38C70
1CE38C70
1CE38C70
E39C738E
E39C738E
E39C738E
1C000070
1C000070
E380038E
E380038E
E380038E
1C000070
1C000070
1C000070
E380038E
E380038E
E380038E
1C000070
1C000070
1C000070
E380038E
E380038E
1C000070
1C000070
1C000070
E380038E
E380038E
E380038E
1C000070
1C000070
1C000070
E39C738E
E39C738E
1CE38C70
1CE38C70
1CE38C70
039C7380
039C7380
039C7380
ENDCHAR
STARTCHAR 00F6
ENCODING 246
SWIDTH 684 0
DWIDTH 38 0
BBX 31 53 4 0
BITMAP
039C7380
039C7380
039C7380
00E00C00
00E00C00
00E00C00
039C7380
039C7380
039C7380
00000000
00000000
039C7380
039C7380
039C7380
1CE38C70
1CE38C70
1CE38C70
E39C738E
E39C738E
E39C738E
1C000070
1C000070
E380038E
E380038E
E380038E
1C000070
1C000070
1C000070
E380038E
E380038E
E380038E
1C000070
1C000070
1C000070
E380038E
E380038E
1C000070
1C000070
1C000070
E380038E
E380038E
E380038E
1C000070
1C000070
1C000070
E39C738E
E39C738E
1CE38C70
1CE38C70
1CE38C70
039C7380
039C7380
039C7380
ENDCHAR
STARTCHAR 00F7
ENCODING 247
SWIDTH 684 0
DWIDTH 38 0
BBX 31 30 4 6
BITMAP
001C7000
001C7000
001C7000
00038000
00038000
001C7000
001C7000
001C7000
00000000
00000000
00000000
E39C738E
E39C738E
E39C738E
1CE38C70
1CE38C70
1CE38C70
E39C738E
E39C738E
00000000
00000000
00000000
001C7000
001C7000
001C7000
00038000
00038000
00038000
001C7000
001C7000
ENDCHAR
STARTCHAR 00F8
ENCODING 248
SWIDTH 792 0
DWIDTH 44 0
BBX 42 42 1 0
BITMAP
001C718E0000
001C718E0000
001C718E0000
00738E71C000
00738E71C000
00738E71C000
039C718E3800
039C718E3800
039C718E3800
00700001C000
00700001C000
039C000E3800
039C000E3800
039C000E3800
00700001C000
00700001C000
00700001C000
E39C718E39C0
E39C718E39C0
E39C718E39C0
1C738E71CE00
1C738E71CE00
1C738E71CE00
E39C718E39C0
E39C718E39C0
00700001C000
00700001C000
00700001C000
039C000E3800
039C000E3800
039C000E3800
00700001C000
00700001C000
00700001C000
039C718E3800
039C718E3800
00738E71C000
00738E71C000
00738E71C000
001C718E0000
001C718E0000
001C718E0000
ENDCHAR
STARTCHAR 00F9
ENCODING 249
SWIDTH 684 0
DWIDTH 38 0
BBX 31 58 4 0
BITMAP
E3800000
E3800000
1CE00000
1CE00000
1CE00000
039C0000
039C0000
039C0000
00E38000
00E38000
00E38000
001C7000
001C7000
001C7000
00000000
00000000
E380038E
E380038E
E380038E
1C000070
1C000070
1C000070
E380038E
E380038E
E380038E
1C000070
1C000070
E380038E
E380038E
E380038E
1C000070
1C000070
1C000070
E380038E
E380038E
E380038E
1C000070
1C000070
1C000070
E380038E
E380038E
1C000070
1C000070
1C000070
E380038E
E380038E
E380038E
1C000070
1C000070
1C000070
E39C738E
E39C738E
1CE38C70
1CE38C70
1CE38C70
039C7380
039C7380
039C7380
ENDCHAR
STARTCHAR 00FA
ENCODING 250
SWIDTH 684 0
DWIDTH 38 0
BBX 31 58 4 0
BITMAP
00000C70
00000C70
00007380
00007380
00007380
00038C00
00038C00
00038C00
001C7000
001C7000
001C7000
00E38000
00E38000
00E38000
00000000
00000000
E380038E
E380038E
E380038E
1C000070
1C000070
1C000070
E380038E
E380038E
E380038E
1C000070
1C000070
E380038E
E380038E
E380038E
1C000070
1C000070
1C000070
E380038E
E380038E
E380038E
1C000070
1C000070
1C000070
E380038E
E380038E
1C000070
1C000070
1C000070
E380038E
E380038E
E380038E
1C000070
1C000070
1C000070
E39C738E
E39C738E
1CE38C70
1CE38C70
1CE38C70
039C7380
039C7380
039C7380
ENDCHAR
STARTCHAR 00FB
ENCODING 251
SWIDTH 684 0
DWIDTH 38 0
BBX 31 58 4 0
BITMAP
001C7000
001C7000
00E38C00
00E38C00
00E38C00
039C7380
039C7380
039C7380
00E00C00
00E00C00
00E00C00
039C7380
039C7380
039C7380
00000000
00000000
E380038E
E380038E
E380038E
1C000070
1C000070
1C000070
E380038E
E380038E
E380038E
1C000070
1C000070
E380038E
E380038E
E380038E
1C000070
1C000070
1C000070
E380038E
E380038E
E380038E
1C000070
1C000070
1C000070
E380038E
E380038E
1C000070
1C000070
1C000070
E380038E
E380038E
E380038E
1C000070
1C000070
1C000070
E39C738E
E39C738E
1CE38C70
1CE38C70
1CE38C70
039C7380
039C7380
039C7380
ENDCHAR
STARTCHAR 00FC
ENCODING 252
SWIDTH 684 0
DWIDTH 38 0
BBX 31 53 4 0
BITMAP
039C7380
039C7380
039C7380
00E00C00
00E00C00
00E00C00
039C7380
039C7380
039C7380
00000000
00000000
E380038E
E380038E
E380038E
1C000070
1C000070
1C000070
E380038E
E380038E
E380038E
1C000070
1C000070
E380038E
E380038E
E380038E
1C000070
1C000070
1C000070
E380038E
E380038E
E380038E
1C000070
1C000070
1C000070
E380038E
E380038E
1C000070
1C000070
1C000070
E380038E
E380038E
E380038E
1C000070
1C000070
1C000070
E39C738E
E39C738E
1CE38C70
1CE38C70
1CE38C70
039C7380
039C7380
039C7380
ENDCHAR
STARTCHAR 00FD
ENCODING 253
SWIDTH 684 0
DWIDTH 38 0
BBX 31 58 4 0
BITMAP
00000C70
00000C70
00007380
00007380
00007380
00038C00
00038C00
00038C00
001C7000
001C7000
001C7000
00E38000
00E38000
00E38000
00000000
00000000
E380038E
E380038E
E380038E
1C000070
1C000070
1C000070
E380038E
E380038E
E380038E
1C000070
1C000070
E380038E
E380038E
E380038E
1C000070
1C000070
1C000070
E380038E
E380038E
E380038E
1C000070
1C000070
1C000070
E39C738E
E39C738E
1CE38C70
1CE38C70
1CE38C70
039C7380
039C7380
039C7380
00038000
00038000
00038000
001C7000
001C7000
00038000
00038000
00038000
001C7000
001C7000
001C7000
ENDCHAR
STARTCHAR 00FE
ENCODING 254
SWIDTH 684 0
DWIDTH 38 0
BBX 31 42 4 0
BITMAP
E3800000
E3800000
E3800000
1C000000
1C000000
1C000000
E39C7380
E39C7380
E39C7380
1CE38C70
1CE38C70
E39C738E
E39C738E
E39C738E
1C000070
1C000070
1C000070
E380038E
E380038E
E380038E
1C000070
1C000070
1C000070
E380038E
E380038E
1C000070
1C000070
1C000070
E39C738E
E39C738E
E39C738E
1CE38C70
1CE38C70
1CE38C70
E39C7380
E39C7380
1C000000
1C000000
1C000000
E3800000
E3800000
E3800000
ENDCHAR
STARTCHAR 00FF
ENCODING 255
SWIDTH 684 0
DWIDTH 38 0
BBX 31 53 4 0
BITMAP
039C7380
039C7380
039C7380
00E00C00
00E00C00
00E00C00
039C7380
039C7380
039C7380
00000000
00000000
E380038E
E380038E
E380038E
1C000070
1C000070
1C000070
E380038E
E380038E
E380038E
1C000070
1C000070
E380038E
E380038E
E380038E
1C000070
1C000070
1C000070
E380038E
E380038E
E380038E
1C000070
1C000070
1C000070
E39C738E
E39C738E
1CE38C70
1CE38C70
1CE38C70
039C7380
039C7380
039C7380
00038000
00038000
00038000
001C7000
001C7000
00038000
00038000
00038000
001C7000
001C7000
001C7000
ENDCHAR
STARTCHAR 0100
ENCODING 256
SWIDTH 684 0
DWIDTH 38 0
BBX 31 53 4 0
BITMAP
039C7380
039C7380
039C7380
00E38C00
00E38C00
00E38C00
039C7380
039C7380
039C7380
00000000
00000000
001C7000
001C7000
001C7000
00E38C00
00E38C00
00E38C00
039C7380
039C7380
039C7380
1CE00C70
1CE00C70
E380038E
E380038E
E380038E
1C000070
1C000070
1C000070
E380038E
E380038E
E380038E
1C000070
1C000070
1C000070
E39C738E
E39C738E
1CE38C70
1CE38C70
1CE38C70
E39C738E
E39C738E
E39C738E
1C000070
1C000070
1C000070
E380038E
E380038E
1C000070
1C000070
1C000070
E380038E
E380038E
E380038E
ENDCHAR
STARTCHAR 0101
ENCODING 257
SWIDTH 684 0
DWIDTH 38 0
BBX 31 53 4 0
BITMAP
039C7380
039C7380
039C7380
00E38C00
00E38C00
00E38C00
039C7380
039C7380
039C7380
00000000
00000000
039C7380
039C7380
039C7380
1CE38C70
1CE38C70
1CE38C70
E39C738E
E39C738E
E39C738E
1C000070
1C000070
E380038E
E380038E
E380038E
1C000070
1C000070
1C000070
E380038E
E380038E
E380038E
1C000070
1C000070
1C000070
E39C738E
E39C738E
1CE38C70
1CE38C70
1CE38C70
E39C738E
E39C738E
E39C738E
1C000070
1C000070
1C000070
E380038E
E380038E
1C000070
1C000070
1C000070
E380038E
E380038E
E380038E
ENDCHAR
STARTCHAR 0102
ENCODING 258
SWIDTH 684 0
DWIDTH 38 0
BBX 31 58 4 0
BITMAP
1CE00C70
1CE00C70
03800380
03800380
03800380
1CE38C70
1CE38C70
1CE38C70
039C7380
039C7380
039C7380
00E38C00
00E38C00
00E38C00
00000000
00000000
001C7000
001C7000
001C7000
00E38C00
00E38C00
00E38C00
039C7380
039C7380
039C7380
1CE00C70
1CE00C70
E380038E
E380038E
E380038E
1C000070
1C000070
1C000070
E380038E
E380038E
E380038E
1C000070
1C000070
1C000070
E39C738E
E39C738E
1CE38C70
1CE38C70
1CE38C70
E39C738E
E39C738E
E39C738E
1C000070
1C000070
1C000070
E380038E
E380038E
1C000070
1C000070
1C000070
E380038E
E380038E
E380038E
ENDCHAR
STARTCHAR 0103
ENCODING 259
SWIDTH 684 0
DWIDTH 38 0
BBX 31 58 4 0
BITMAP
1CE00C70
1CE00C70
03800380
03800380
03800380
1CE38C70
1CE38C70
1CE38C70
039C7380
039C7380
039C7380
00E38C00
00E38C00
00E38C00
00000000
00000000
039C7380
039C7380
039C7380
1CE38C70
1CE38C70
1CE38C70
E39C738E
E39C738E
E39C738E
1C000070
1C000070
E380038E
E380038E
E380038E
1C000070
1C000070
1C000070
E380038E
E380038E
E380038E
1C000070
1C000070
1C000070
E39C738E
E39C738E
1CE38C70
1CE38C70
1CE38C70
E39C738E
E39C738E
E39C738E
1C000070
1C000070
1C000070
E380038E
E380038E
1C000070
1C000070
1C000070
E380038E
E380038E
E380038E
ENDCHAR
STARTCHAR 0104
ENCODING 260
SWIDTH 684 0
DWIDTH 38 0
BBX 36 53 4 -11
BITMAP
001C700000
001C700000
001C700000
00E38C0000
00E38C0000
00E38C0000
039C738000
039C738000
039C738000
1CE00C7000
1CE00C7000
E380038E00
E380038E00
E380038E00
1C00007000
1C00007000
1C00007000
E380038E00
E380038E00
E380038E00
1C00007000
1C00007000
1C00007000
E39C738E00
E39C738E00
1CE38C7000
1CE38C7000
1CE38C7000
E39C738E00
E39C738E00
E39C738E00
1C00007000
1C00007000
1C00007000
E380038E00
E380038E00
1C00007000
1C00007000
1C00007000
E380038E00
E380038E00
E380038E00
0000007000
0000007000
0000007000
0000038E70
0000038E70
0000038E70
00000071C0
00000071C0
0000000E70
0000000E70
0000000E70
ENDCHAR
STARTCHAR 0105
ENCODING 261
SWIDTH 684 0
DWIDTH 38 0
BBX 36 53 4 -11
BITMAP
039C738000
039C738000
039C738000
1CE38C7000
1CE38C7000
1CE38C7000
E39C738E00
E39C738E00
E39C738E00
1C00007000
1C00007000
E380038E00
E380038E00
E380038E00
1C00007000
1C00007000
1C00007000
E380038E00
E380038E00
E380038E00
1C00007000
1C00007000
1C00007000
E39C738E00
E39C738E00
1CE38C7000
1CE38C7000
1CE38C7000
E39C738E00
E39C738E00
E39C738E00
1C00007000
1C00007000
1C00007000
E380038E00
E380038E00
1C00007000
1C00007000
1C00007000
E380038E00
E380038E00
E380038E00
0000007000
0000007000
0000007000
0000038E70
0000038E70
0000038E70
00000071C0
00000071C0
0000000E70
0000000E70
0000000E70
ENDCHAR
STARTCHAR 0106
ENCODING 262
SWIDTH 792 0
DWIDTH 44 0
BBX 36 58 4 0
BITMAP
0000038E00
0000038E00
00000C7000
00000C7000
00000C7000
0000738000
0000738000
0000738000
00038C0000
00038C0000
00038C0000
001C700000
001C700000
001C700000
0000000000
0000000000
001C738000
001C738000
001C738000
00E38C7000
00E38C7000
00E38C7000
039C738E00
039C738E00
039C738E00
1CE00071C0
1CE00071C0
E380000E70
E380000E70
E380000E70
1C000001C0
1C000001C0
1C000001C0
E380000E70
E380000E70
E380000E70
1C00000000
1C00000000
1C00000000
E380000000
E380000000
1C00000000
1C00000000
1C00000000
E380000E70
E380000E70
E380000E70
1CE00071C0
1CE00071C0
1CE00071C0
039C738E00
039C738E00
00E38C7000
00E38C7000
00E38C7000
001C738000
001C738000
001C738000
ENDCHAR
STARTCHAR 0107
ENCODING 263
SWIDTH 684 0
DWIDTH 38 0
BBX 31 58 4 0
BITMAP
00000C70
00000C70
00007380
00007380
00007380
00038C00
00038C00
00038C00
001C7000
001C7000
001C7000
00E38000
00E38000
00E38000
00000000
00000000
039C7380
039C7380
039C7380
1CE38C70
1CE38C70
1CE38C70
E39C738E
E39C738E
E39C738E
1C000070
1C000070
E380038E
E380038E
E380038E
1C000070
1C000070
1C000070
E380038E
E380038E
E380038E
1C000000
1C000000
1C000000
E3800000
E3800000
1C000000
1C000000
1C000000
E380038E
E380038E
E380038E
1C000070
1C000070
1C000070
E39C738E
E39C738E
1CE38C70
1CE38C70
1CE38C70
039C7380
039C7380
039C7380
ENDCHAR
STARTCHAR 010A
ENCODING 266
SWIDTH 792 0
DWIDTH 44 0
BBX 36 53 4 0
BITMAP
00038C0000
00038C0000
00038C0000
0000700000
0000700000
0000700000
00038C0000
00038C0000
00038C0000
0000000000
0000000000
001C738000
001C738000
001C738000
00E38C7000
00E38C7000
00E38C7000
039C738E00
039C738E00
039C738E00
1CE00071C0
1CE00071C0
E380000E70
E380000E70
E380000E70
1C000001C0
1C000001C0
1C000001C0
E380000E70
E380000E70
E380000E70
1C00000000
1C00000000
1C00000000
E380000000
E380000000
1C00000000
1C00000000
1C00000000
E380000E70
E380000E70
E380000E70
1CE00071C0
1CE00071C0
1CE00071C0
039C738E00
039C738E00
00E38C7000
00E38C7000
00E38C7000
001C738000
001C738000
001C738000
ENDCHAR
STARTCHAR 010B
ENCODING 267
SWIDTH 684 0
DWIDTH 38 0
BBX 31 53 4 0
BITMAP
001C7000
001C7000
001C7000
00038000
00038000
00038000
001C7000
001C7000
001C7000
00000000
00000000
039C7380
039C7380
039C7380
1CE38C70
1CE38C70
1CE38C70
E39C738E
E39C738E
E39C738E
1C000070
1C000070
E380038E
E380038E
E380038E
1C000070
1C000070
1C000070
E380038E
E380038E
E380038E
1C000000
1C000000
1C000000
E3800000
E3800000
1C000000
1C000000
1C000000
E380038E
E380038E
E380038E
1C000070
1C000070
1C000070
E39C738E
E39C738E
1CE38C70
1CE38C70
1CE38C70
039C7380
039C7380
039C7380
ENDCHAR
STARTCHAR 010C
ENCODING 268
SWIDTH 792 0
DWIDTH 44 0
BBX 36 58 4 0
BITMAP
00E38C7000
00E38C7000
001C038000
001C038000
001C038000
00E38C7000
00E38C7000
00E38C7000
001C738000
001C738000
001C738000
00038C0000
00038C0000
00038C0000
0000000000
0000000000
001C738000
001C738000
001C738000
00E38C7000
00E38C7000
00E38C7000
039C738E00
039C738E00
039C738E00
1CE00071C0
1CE00071C0
E380000E70
E380000E70
E380000E70
1C000001C0
1C000001C0
1C000001C0
E380000E70
E380000E70
E380000E70
1C00000000
1C00000000
1C00000000
E380000000
E380000000
1C00000000
1C00000000
1C00000000
E380000E70
E380000E70
E380000E70
1CE00071C0
1CE00071C0
1CE00071C0
039C738E00
039C738E00
00E38C7000
00E38C7000
00E38C7000
001C738000
001C738000
001C738000
ENDCHAR
STARTCHAR 010D
ENCODING 269
SWIDTH 684 0
DWIDTH 38 0
BBX 31 58 4 0
BITMAP
039C7380
039C7380
00E00C00
00E00C00
00E00C00
039C7380
039C7380
039C7380
00E38C00
00E38C00
00E38C00
001C7000
001C7000
001C7000
00000000
00000000
039C7380
039C7380
039C7380
1CE38C70
1CE38C70
1CE38C70
E39C738E
E39C738E
E39C738E
1C000070
1C000070
E380038E
E380038E
E380038E
1C000070
1C000070
1C000070
E380038E
E380038E
E380038E
1C000000
1C000000
1C000000
E3800000
E3800000
1C000000
1C000000
1C000000
E380038E
E380038E
E380038E
1C000070
1C000070
1C000070
E39C738E
E39C738E
1CE38C70
1CE38C70
1CE38C70
039C7380
039C7380
039C7380
ENDCHAR
STARTCHAR 010E
ENCODING 270
SWIDTH 792 0
DWIDTH 44 0
BBX 36 58 4 0
BITMAP
00E38C7000
00E38C7000
001C038000
001C038000
001C038000
00E38C7000
00E38C7000
00E38C7000
001C738000
001C738000
001C738000
00038C0000
00038C0000
00038C0000
0000000000
0000000000
E39C738000
E39C738000
E39C738000
1CE38C7000
1CE38C7000
1CE38C7000
E39C738E00
E39C738E00
E39C738E00
1C000071C0
1C000071C0
E380000E70
E380000E70
E380000E70
1C000001C0
1C000001C0
1C000001C0
E380000E70
E380000E70
E380000E70
1C000001C0
1C000001C0
1C000001C0
E380000E70
E380000E70
1C000001C0
1C000001C0
1C000001C0
E380000E70
E380000E70
E380000E70
1C000071C0
1C000071C0
1C000071C0
E39C738E00
E39C738E00
1CE38C7000
1CE38C7000
1CE38C7000
E39C738000
E39C738000
E39C738000
ENDCHAR
STARTCHAR 010F
ENCODING 271
SWIDTH 684 0
DWIDTH 38 0
BBX 31 58 4 0
BITMAP
039C7380
039C7380
00E00C00
00E00C00
00E00C00
039C7380
039C7380
039C7380
00E38C00
00E38C00
00E38C00
001C7000
001C7000
001C7000
00000000
00000000
E39C7380
E39C7380
E39C7380
1CE38C70
1CE38C70
1CE38C70
E39C738E
E39C738E
E39C738E
1C000070
1C000070
E380038E
E380038E
E380038E
1C000070
1C000070
1C000070
E380038E
E380038E
E380038E
1C000070
1C000070
1C000070
E380038E
E380038E
1C000070
1C000070
1C000070
E380038E
E380038E
E380038E
1C000070
1C000070
1C000070
E39C738E
E39C738E
1CE38C70
1CE38C70
1CE38C70
E39C7380
E39C7380
E39C7380
ENDCHAR
STARTCHAR 0110
ENCODING 272
SWIDTH 846 0
DWIDTH 47 0
BBX 42 42 1 0
BITMAP
039C718E0000
039C718E0000
039C718E0000
00738E71C000
00738E71C000
00738E71C000
039C718E3800
039C718E3800
039C718E3800
00700001CE00
00700001CE00
039C000039C0
039C000039C0
039C000039C0
007000000E00
007000000E00
007000000E00
E39C700039C0
E39C700039C0
E39C700039C0
1C7380000E00
1C7380000E00
1C7380000E00
E39C700039C0
E39C700039C0
007000000E00
007000000E00
007000000E00
039C000039C0
039C000039C0
039C000039C0
00700001CE00
00700001CE00
00700001CE00
039C718E3800
039C718E3800
00738E71C000
00738E71C000
00738E71C000
039C718E0000
039C718E0000
039C718E0000
ENDCHAR
STARTCHAR 0111
ENCODING 273
SWIDTH 738 0
DWIDTH 41 0
BBX 37 42 1 0
BITMAP
039C718E00
039C718E00
039C718E00
00738E71C0
00738E71C0
00738E71C0
039C718E38
039C718E38
039C718E38
00700001C0
00700001C0
039C000E38
039C000E38
039C000E38
00700001C0
00700001C0
00700001C0
E39C700E38
E39C700E38
E39C700E38
1C738001C0
1C738001C0
1C738001C0
E39C700E38
E39C700E38
00700001C0
00700001C0
00700001C0
039C000E38
039C000E38
039C000E38
00700001C0
00700001C0
00700001C0
039C718E38
039C718E38
00738E71C0
00738E71C0
00738E71C0
039C718E00
039C718E00
039C718E00
ENDCHAR
STARTCHAR 0112
ENCODING 274
SWIDTH 684 0
DWIDTH 38 0
BBX 31 53 4 0
BITMAP
039C7380
039C7380
039C7380
00E38C00
00E38C00
00E38C00
039C7380
039C7380
039C7380
00000000
00000000
001C738E
001C738E
001C738E
00E38C70
00E38C70
00E38C70
039C738E
039C738E
039C738E
1CE00000
1CE00000
E3800000
E3800000
E3800000
1C000000
1C000000
1C000000
E39C7380
E39C7380
E39C7380
1CE38C00
1CE38C00
1CE38C00
E39C7380
E39C7380
1C000000
1C000000
1C000000
E3800000
E3800000
E3800000
1CE00000
1CE00000
1CE00000
039C738E
039C738E
00E38C70
00E38C70
00E38C70
001C738E
001C738E
001C738E
ENDCHAR
STARTCHAR 0113
ENCODING 275
SWIDTH 684 0
DWIDTH 38 0
BBX 31 53 4 0
BITMAP
039C7380
039C7380
039C7380
00E38C00
00E38C00
00E38C00
039C7380
039C7380
039C7380
00000000
00000000
039C738E
039C738E
039C738E
1CE38C70
1CE38C70
1CE38C70
E39C738E
E39C738E
E39C738E
1C000000
1C000000
E3800000
E3800000
E3800000
1C000000
1C000000
1C000000
E39C7380
E39C7380
E39C7380
1CE38C00
1CE38C00
1CE38C00
E39C7380
E39C7380
1C000000
1C000000
1C000000
E3800000
E3800000
E3800000
1C000000
1C000000
1C000000
E39C738E
E39C738E
1CE38C70
1CE38C70
1CE38C70
039C738E
039C738E
039C738E
ENDCHAR
STARTCHAR 0116
ENCODING 278
SWIDTH 684 0
DWIDTH 38 0
BBX 31 53 4 0
BITMAP
001C7000
001C7000
001C7000
00038000
00038000
00038000
001C7000
001C7000
001C7000
00000000
00000000
001C738E
001C738E
001C738E
00E38C70
00E38C70
00E38C70
039C738E
039C738E
039C738E
1CE00000
1CE00000
E3800000
E3800000
E3800000
1C000000
1C000000
1C000000
E39C7380
E39C7380
E39C7380
1CE38C00
1CE38C00
1CE38C00
E39C7380
E39C7380
1C000000
1C000000
1C000000
E3800000
E3800000
E3800000
1CE00000
1CE00000
1CE00000
039C738E
039C738E
00E38C70
00E38C70
00E38C70
001C738E
001C738E
001C738E
ENDCHAR
STARTCHAR 0117
ENCODING 279
SWIDTH 684 0
DWIDTH 38 0
BBX 31 53 4 0
BITMAP
001C7000
001C7000
001C7000
00038000
00038000
00038000
001C7000
001C7000
001C7000
00000000
00000000
039C738E
039C738E
039C738E
1CE38C70
1CE38C70
1CE38C70
E39C738E
E39C738E
E39C738E
1C000000
1C000000
E3800000
E3800000
E3800000
1C000000
1C000000
1C000000
E39C7380
E39C7380
E39C7380
1CE38C00
1CE38C00
1CE38C00
E39C7380
E39C7380
1C000000
1C000000
1C000000
E3800000
E3800000
E3800000
1C000000
1C000000
1C000000
E39C738E
E39C738E
1CE38C70
1CE38C70
1CE38C70
039C738E
039C738E
039C738E
ENDCHAR
STARTCHAR 0118
ENCODING 280
SWIDTH 684 0
DWIDTH 38 0
BBX 36 53 4 -11
BITMAP
001C738E00
001C738E00
001C738E00
00E38C7000
00E38C7000
00E38C7000
039C738E00
039C738E00
039C738E00
1CE0000000
1CE0000000
E380000000
E380000000
E380000000
1C00000000
1C00000000
1C00000000
E39C738000
E39C738000
E39C738000
1CE38C0000
1CE38C0000
1CE38C0000
E39C738000
E39C738000
1C00000000
1C00000000
1C00000000
E380000000
E380000000
E380000000
1CE0000000
1CE0000000
1CE0000000
039C738E00
039C738E00
00E38C7000
00E38C7000
00E38C7000
001C738E00
001C738E00
001C738E00
0000007000
0000007000
0000007000
0000038E70
0000038E70
0000038E70
00000071C0
00000071C0
0000000E70
0000000E70
0000000E70
ENDCHAR
STARTCHAR 0119
ENCODING 281
SWIDTH 684 0
DWIDTH 38 0
BBX 36 53 4 -11
BITMAP
039C738E00
039C738E00
039C738E00
1CE38C7000
1CE38C7000
1CE38C7000
E39C738E00
E39C738E00
E39C738E00
1C00000000
1C00000000
E380000000
E380000000
E380000000
1C00000000
1C00000000
1C00000000
E39C738000
E39C738000
E39C738000
1CE38C0000
1CE38C0000
1CE38C0000
E39C738000
E39C738000
1C00000000
1C00000000
1C00000000
E380000000
E380000000
E380000000
1C00000000
1C00000000
1C00000000
E39C738E00
E39C738E00
1CE38C7000
1CE38C7000
1CE38C7000
039C738E00
039C738E00
039C738E00
0000007000
0000007000
0000007000
0000038E70
0000038E70
0000038E70
00000071C0
00000071C0
0000000E70
0000000E70
0000000E70
ENDCHAR
STARTCHAR 011A
ENCODING 282
SWIDTH 684 0
DWIDTH 38 0
BBX 31 58 4 0
BITMAP
039C7380
039C7380
00E00C00
00E00C00
00E00C00
039C7380
039C7380
039C7380
00E38C00
00E38C00
00E38C00
001C7000
001C7000
001C7000
00000000
00000000
001C738E
001C738E
001C738E
00E38C70
00E38C70
00E38C70
039C738E
039C738E
039C738E
1CE00000
1CE00000
E3800000
E3800000
E3800000
1C000000
1C000000
1C000000
E39C7380
E39C7380
E39C7380
1CE38C00
1CE38C00
1CE38C00
E39C7380
E39C7380
1C000000
1C000000
1C000000
E3800000
E3800000
E3800000
1CE00000
1CE00000
1CE00000
039C738E
039C738E
00E38C70
00E38C70
00E38C70
001C738E
001C738E
001C738E
ENDCHAR
STARTCHAR 011B
ENCODING 283
SWIDTH 684 0
DWIDTH 38 0
BBX 31 58 4 0
BITMAP
039C7380
039C7380
00E00C00
00E00C00
00E00C00
039C7380
039C7380
039C7380
00E38C00
00E38C00
00E38C00
001C7000
001C7000
001C7000
00000000
00000000
039C738E
039C738E
039C738E
1CE38C70
1CE38C70
1CE38C70
E39C738E
E39C738E
E39C738E
1C000000
1C000000
E3800000
E3800000
E3800000
1C000000
1C000000
1C000000
E39C7380
E39C7380
E39C7380
1CE38C00
1CE38C00
1CE38C00
E39C7380
E39C7380
1C000000
1C000000
1C000000
E3800000
E3800000
E3800000
1C000000
1C000000
1C000000
E39C738E
E39C738E
1CE38C70
1CE38C70
1CE38C70
039C738E
039C738E
039C738E
ENDCHAR
STARTCHAR 011E
ENCODING 286
SWIDTH 792 0
DWIDTH 44 0
BBX 36 58 4 0
BITMAP
039C038E00
039C038E00
00E0007000
00E0007000
00E0007000
039C738E00
039C738E00
039C738E00
00E38C7000
00E38C7000
00E38C7000
001C738000
001C738000
001C738000
0000000000
0000000000
001C738E70
001C738E70
001C738E70
00E38C71C0
00E38C71C0
00E38C71C0
039C738E70
039C738E70
039C738E70
1CE0000000
1CE0000000
E380000000
E380000000
E380000000
1C00000000
1C00000000
1C00000000
E380738E70
E380738E70
E380738E70
1C000C71C0
1C000C71C0
1C000C71C0
E380738E70
E380738E70
1C000001C0
1C000001C0
1C000001C0
E380000E70
E380000E70
E380000E70
1CE00001C0
1CE00001C0
1CE00001C0
039C738E70
039C738E70
00E38C71C0
00E38C71C0
00E38C71C0
001C738E70
001C738E70
001C738E70
ENDCHAR
STARTCHAR 011F
ENCODING 287
SWIDTH 684 0
DWIDTH 38 0
BBX 31 58 4 0
BITMAP
1CE00C70
1CE00C70
03800380
03800380
03800380
1CE38C70
1CE38C70
1CE38C70
039C7380
039C7380
039C7380
00E38C00
00E38C00
00E38C00
00000000
00000000
039C738E
039C738E
039C738E
1CE38C70
1CE38C70
1CE38C70
E39C738E
E39C738E
E39C738E
1C000000
1C000000
E3800000
E3800000
E3800000
1C000000
1C000000
1C000000
E380738E
E380738E
E380738E
1C000C70
1C000C70
1C000C70
E380738E
E380738E
1C000070
1C000070
1C000070
E380038E
E380038E
E380038E
1C000070
1C000070
1C000070
E39C738E
E39C738E
1CE38C70
1CE38C70
1CE38C70
039C7380
039C7380
039C7380
ENDCHAR
STARTCHAR 0120
ENCODING 288
SWIDTH 792 0
DWIDTH 44 0
BBX 36 53 4 0
BITMAP
00038C0000
00038C0000
00038C0000
0000700000
0000700000
0000700000
00038C0000
00038C0000
00038C0000
0000000000
0000000000
001C738E70
001C738E70
001C738E70
00E38C71C0
00E38C71C0
00E38C71C0
039C738E70
039C738E70
039C738E70
1CE0000000
1CE0000000
E380000000
E380000000
E380000000
1C00000000
1C00000000
1C00000000
E380738E70
E380738E70
E380738E70
1C000C71C0
1C000C71C0
1C000C71C0
E380738E70
E380738E70
1C000001C0
1C000001C0
1C000001C0
E380000E70
E380000E70
E380000E70
1CE00001C0
1CE00001C0
1CE00001C0
039C738E70
039C738E70
00E38C71C0
00E38C71C0
00E38C71C0
001C738E70
001C738E70
001C738E70
ENDCHAR
STARTCHAR 0121
ENCODING 289
SWIDTH 684 0
DWIDTH 38 0
BBX 31 53 4 0
BITMAP
001C7000
001C7000
001C7000
00038000
00038000
00038000
001C7000
001C7000
001C7000
00000000
00000000
039C738E
039C738E
039C738E
1CE38C70
1CE38C70
1CE38C70
E39C738E
E39C738E
E39C738E
1C000000
1C000000
E3800000
E3800000
E3800000
1C000000
1C000000
1C000000
E380738E
E380738E
E380738E
1C000C70
1C000C70
1C000C70
E380738E
E380738E
1C000070
1C000070
1C000070
E380038E
E380038E
E380038E
1C000070
1C000070
1C000070
E39C738E
E39C738E
1CE38C70
1CE38C70
1CE38C70
039C7380
039C7380
039C7380
ENDCHAR
STARTCHAR 0122
ENCODING 290
SWIDTH 792 0
DWIDTH 44 0
BBX 36 59 4 -17
BITMAP
001C738E70
001C738E70
001C738E70
00E38C71C0
00E38C71C0
00E38C71C0
039C738E70
039C738E70
039C738E70
1CE0000000
1CE0000000
E380000000
E380000000
E380000000
1C00000000
1C00000000
1C00000000
E380738E70
E380738E70
E380738E70
1C000C71C0
1C000C71C0
1C000C71C0
E380738E70
E380738E70
1C000001C0
1C000001C0
1C000001C0
E380000E70
E380000E70
E380000E70
1CE00001C0
1CE00001C0
1CE00001C0
039C738E70
039C738E70
00E38C71C0
00E38C71C0
00E38C71C0
001C738E70
001C738E70
001C738E70
0000000000
0000000000
0000000000
00038C0000
00038C0000
00038C0000
0000700000
0000700000
00038C0000
00038C0000
00038C0000
0000700000
0000700000
0000700000
0003800000
0003800000
0003800000
ENDCHAR
STARTCHAR 0123
ENCODING 291
SWIDTH 684 0
DWIDTH 38 0
BBX 31 59 4 -17
BITMAP
039C738E
039C738E
039C738E
1CE38C70
1CE38C70
1CE38C70
E39C738E
E39C738E
E39C738E
1C000000
1C000000
E3800000
E3800000
E3800000
1C000000
1C000000
1C000000
E380738E
E380738E
E380738E
1C000C70
1C000C70
1C000C70
E380738E
E380738E
1C000070
1C000070
1C000070
E380038E
E380038E
E380038E
1C000070
1C000070
1C000070
E39C738E
E39C738E
1CE38C70
1CE38C70
1CE38C70
039C7380
039C7380
039C7380
00000000
00000000
00000000
001C7000
001C7000
001C7000
00038000
00038000
001C7000
001C7000
001C7000
00038000
00038000
00038000
001C0000
001C0000
001C0000
ENDCHAR
STARTCHAR 0126
ENCODING 294
SWIDTH 900 0
DWIDTH 50 0
BBX 48 42 1 0
BITMAP
039C000039C0
039C000039C0
039C000039C0
007000000E00
007000000E00
007000000E00
E39C718E39C7
E39C718E39C7
E39C718E39C7
1C738E71CE38
1C738E71CE38
E39C718E39C7
E39C718E39C7
E39C718E39C7
007000000E00
007000000E00
007000000E00
039C718E39C0
039C718E39C0
039C718E39C0
00738E71CE00
00738E71CE00
00738E71CE00
039C718E39C0
039C718E39C0
007000000E00
007000000E00
007000000E00
039C000039C0
039C000039C0
039C000039C0
007000000E00
007000000E00
007000000E00
039C000039C0
039C000039C0
007000000E00
007000000E00
007000000E00
039C000039C0
039C000039C0
039C000039C0
ENDCHAR
STARTCHAR 0127
ENCODING 295
SWIDTH 792 0
DWIDTH 44 0
BBX 42 42 1 0
BITMAP
039C000E3800
039C000E3800
039C000E3800
00700001C000
00700001C000
00700001C000
E39C718E39C0
E39C718E39C0
E39C718E39C0
1C738E71CE00
1C738E71CE00
E39C718E39C0
E39C718E39C0
E39C718E39C0
00700001C000
00700001C000
00700001C000
039C718E3800
039C718E3800
039C718E3800
00738E71C000
00738E71C000
00738E71C000
039C718E3800
039C718E3800
00700001C000
00700001C000
00700001C000
039C000E3800
039C000E3800
039C000E3800
00700001C000
00700001C000
00700001C000
039C000E3800
039C000E3800
00700001C000
00700001C000
00700001C000
039C000E3800
039C000E3800
039C000E3800
ENDCHAR
STARTCHAR 0128
ENCODING 296
SWIDTH 486 0
DWIDTH 27 0
BBX 30 58 -1 0
BITMAP
071C039C
071C039C
38E70060
38E70060
38E70060
C71CE39C
C71CE39C
C71CE39C
38071C60
38071C60
38071C60
C700E380
C700E380
C700E380
00000000
00000000
071CE380
071CE380
071CE380
00E71C00
00E71C00
00E71C00
071CE380
071CE380
071CE380
00070000
00070000
001CE000
001CE000
001CE000
00070000
00070000
00070000
001CE000
001CE000
001CE000
00070000
00070000
00070000
001CE000
001CE000
00070000
00070000
00070000
001CE000
001CE000
001CE000
00070000
00070000
00070000
071CE380
071CE380
00E71C00
00E71C00
00E71C00
071CE380
071CE380
071CE380
ENDCHAR
STARTCHAR 0129
ENCODING 297
SWIDTH 288 0
DWIDTH 16 0
BBX 31 58 -7 0
BITMAP
031C038E
031C038E
1CE38070
1CE38070
1CE38070
E31C738E
E31C738E
E31C738E
1C039C70
1C039C70
1C039C70
E3007380
E3007380
E3007380
00000000
00000000
001C7000
001C7000
001C7000
00038000
00038000
00038000
001C7000
001C7000
001C7000
00038000
00038000
001C7000
001C7000
001C7000
00038000
00038000
00038000
001C7000
001C7000
001C7000
00038000
00038000
00038000
001C7000
001C7000
00038000
00038000
00038000
001C7000
001C7000
001C7000
00038000
00038000
00038000
001C7000
001C7000
00038000
00038000
00038000
001C7000
001C7000
001C7000
ENDCHAR
STARTCHAR 012A
ENCODING 298
SWIDTH 486 0
DWIDTH 27 0
BBX 20 53 4 0
BITMAP
E39C70
E39C70
E39C70
1CE380
1CE380
1CE380
E39C70
E39C70
E39C70
000000
000000
E39C70
E39C70
E39C70
1CE380
1CE380
1CE380
E39C70
E39C70
E39C70
00E000
00E000
039C00
039C00
039C00
00E000
00E000
00E000
039C00
039C00
039C00
00E000
00E000
00E000
039C00
039C00
00E000
00E000
00E000
039C00
039C00
039C00
00E000
00E000
00E000
E39C70
E39C70
1CE380
1CE380
1CE380
E39C70
E39C70
E39C70
ENDCHAR
STARTCHAR 012B
ENCODING 299
SWIDTH 288 0
DWIDTH 16 0
BBX 19 53 -1 0
BITMAP
C71CE0
C71CE0
C71CE0
38E700
38E700
38E700
C71CE0
C71CE0
C71CE0
000000
000000
071C00
071C00
071C00
00E000
00E000
00E000
071C00
071C00
071C00
00E000
00E000
071C00
071C00
071C00
00E000
00E000
00E000
071C00
071C00
071C00
00E000
00E000
00E000
071C00
071C00
00E000
00E000
00E000
071C00
071C00
071C00
00E000
00E000
00E000
071C00
071C00
00E000
00E000
00E000
071C00
071C00
071C00
ENDCHAR
STARTCHAR 012E
ENCODING 302
SWIDTH 486 0
DWIDTH 27 0
BBX 25 53 4 -11
BITMAP
E39C7000
E39C7000
E39C7000
1CE38000
1CE38000
1CE38000
E39C7000
E39C7000
E39C7000
00E00000
00E00000
039C0000
039C0000
039C0000
00E00000
00E00000
00E00000
039C0000
039C0000
039C0000
00E00000
00E00000
00E00000
039C0000
039C0000
00E00000
00E00000
00E00000
039C0000
039C0000
039C0000
00E00000
00E00000
00E00000
E39C7000
E39C7000
1CE38000
1CE38000
1CE38000
E39C7000
E39C7000
E39C7000
00038000
00038000
00038000
001C7380
001C7380
001C7380
00038C00
00038C00
00007380
00007380
00007380
ENDCHAR
STARTCHAR 012F
ENCODING 303
SWIDTH 288 0
DWIDTH 16 0
BBX 14 53 4 -11
BITMAP
E380
E380
E380
1C00
1C00
1C00
E380
E380
E380
1C00
1C00
E380
E380
E380
1C00
1C00
1C00
E380
E380
E380
1C00
1C00
1C00
E380
E380
1C00
1C00
1C00
E380
E380
E380
1C00
1C00
1C00
E380
E380
1C00
1C00
1C00
E380
E380
E380
1C00
1C00
1C00
E39C
E39C
E39C
1CE0
1CE0
039C
039C
039C
ENDCHAR
STARTCHAR 0130
ENCODING 304
SWIDTH 486 0
DWIDTH 27 0
BBX 20 53 4 0
BITMAP
039C00
039C00
039C00
00E000
00E000
00E000
039C00
039C00
039C00
000000
000000
E39C70
E39C70
E39C70
1CE380
1CE380
1CE380
E39C70
E39C70
E39C70
00E000
00E000
039C00
039C00
039C00
00E000
00E000
00E000
039C00
039C00
039C00
00E000
00E000
00E000
039C00
039C00
00E000
00E000
00E000
039C00
039C00
039C00
00E000
00E000
00E000
E39C70
E39C70
1CE380
1CE380
1CE380
E39C70
E39C70
E39C70
ENDCHAR
STARTCHAR 0131
ENCODING 305
SWIDTH 288 0
DWIDTH 16 0
BBX 9 42 4 0
BITMAP
E380
E380
E380
1C00
1C00
1C00
E380
E380
E380
1C00
1C00
E380
E380
E380
1C00
1C00
1C00
E380
E380
E380
1C00
1C00
1C00
E380
E380
1C00
1C00
1C00
E380
E380
E380
1C00
1C00
1C00
E380
E380
1C00
1C00
1C00
E380
E380
E380
ENDCHAR
STARTCHAR 0136
ENCODING 310
SWIDTH 684 0
DWIDTH 38 0
BBX 31 59 4 -17
BITMAP
E380038E
E380038E
E380038E
1C000070
1C000070
1C000070
E380038E
E380038E
E380038E
1C000C70
1C000C70
E3807380
E3807380
E3807380
1C038C00
1C038C00
1C038C00
E39C7000
E39C7000
E39C7000
1CE38000
1CE38000
1CE38000
E39C7000
E39C7000
1C038C00
1C038C00
1C038C00
E3807380
E3807380
E3807380
1C000C70
1C000C70
1C000C70
E380038E
E380038E
1C000070
1C000070
1C000070
E380038E
E380038E
E380038E
00000000
00000000
00000000
001C7000
001C7000
001C7000
00038000
00038000
001C7000
001C7000
001C7000
00038000
00038000
00038000
001C0000
001C0000
001C0000
ENDCHAR
STARTCHAR 0137
ENCODING 311
SWIDTH 684 0
DWIDTH 38 0
BBX 31 59 4 -17
BITMAP
E380038E
E380038E
E380038E
1C000070
1C000070
1C000070
E380038E
E380038E
E380038E
1C000070
1C000070
E380038E
E380038E
E380038E
1C000C70
1C000C70
1C000C70
E39C7380
E39C7380
E39C7380
1CE38C00
1CE38C00
1CE38C00
E39C7380
E39C7380
1C000C70
1C000C70
1C000C70
E380038E
E380038E
E380038E
1C000070
1C000070
1C000070
E380038E
E380038E
1C000070
1C000070
1C000070
E380038E
E380038E
E380038E
00000000
00000000
00000000
001C7000
001C7000
001C7000
00038000
00038000
001C7000
001C7000
001C7000
00038000
00038000
00038000
001C0000
001C0000
001C0000
ENDCHAR
STARTCHAR 0139
ENCODING 313
SWIDTH 684 0
DWIDTH 38 0
BBX 34 58 1 0
BITMAP
001C700000
001C700000
0073800000
0073800000
0073800000
039C000000
039C000000
039C000000
1C70000000
1C70000000
1C70000000
E380000000
E380000000
E380000000
0000000000
0000000000
1C70000000
1C70000000
1C70000000
0380000000
0380000000
0380000000
1C70000000
1C70000000
1C70000000
0380000000
0380000000
1C70000000
1C70000000
1C70000000
0380000000
0380000000
0380000000
1C70000000
1C70000000
1C70000000
0380000000
0380000000
0380000000
1C70000000
1C70000000
0380000000
0380000000
0380000000
1C70000000
1C70000000
1C70000000
0380000000
0380000000
0380000000
1C738E71C0
1C738E71C0
039C718E00
039C718E00
039C718E00
00738E71C0
00738E71C0
00738E71C0
ENDCHAR
STARTCHAR 013A
ENCODING 314
SWIDTH 594 0
DWIDTH 33 0
BBX 28 58 1 0
BITMAP
001C7000
001C7000
00738000
00738000
00738000
039C0000
039C0000
039C0000
1C700000
1C700000
1C700000
E3800000
E3800000
E3800000
00000000
00000000
1C700000
1C700000
1C700000
03800000
03800000
03800000
1C700000
1C700000
1C700000
03800000
03800000
1C700000
1C700000
1C700000
03800000
03800000
03800000
1C700000
1C700000
1C700000
03800000
03800000
03800000
1C700000
1C700000
03800000
03800000
03800000
1C700000
1C700000
1C700000
03800000
03800000
03800000
1C738E70
1C738E70
039C7180
039C7180
039C7180
00738E70
00738E70
00738E70
ENDCHAR
STARTCHAR 013B
ENCODING 315
SWIDTH 684 0
DWIDTH 38 0
BBX 31 59 4 -17
BITMAP
E3800000
E3800000
E3800000
1C000000
1C000000
1C000000
E3800000
E3800000
E3800000
1C000000
1C000000
E3800000
E3800000
E3800000
1C000000
1C000000
1C000000
E3800000
E3800000
E3800000
1C000000
1C000000
1C000000
E3800000
E3800000
1C000000
1C000000
1C000000
E3800000
E3800000
E3800000
1C000000
1C000000
1C000000
E39C738E
E39C738E
1CE38C70
1CE38C70
1CE38C70
039C738E
039C738E
039C738E
00000000
00000000
00000000
001C7000
001C7000
001C7000
00038000
00038000
001C7000
001C7000
001C7000
00038000
00038000
00038000
001C0000
001C0000
001C0000
ENDCHAR
STARTCHAR 013C
ENCODING 316
SWIDTH 594 0
DWIDTH 33 0
BBX 25 59 4 -17
BITMAP
E3800000
E3800000
E3800000
1C000000
1C000000
1C000000
E3800000
E3800000
E3800000
1C000000
1C000000
E3800000
E3800000
E3800000
1C000000
1C000000
1C000000
E3800000
E3800000
E3800000
1C000000
1C000000
1C000000
E3800000
E3800000
1C000000
1C000000
1C000000
E3800000
E3800000
E3800000
1C000000
1C000000
1C000000
E39C7380
E39C7380
1CE38C00
1CE38C00
1CE38C00
039C7380
039C7380
039C7380
00000000
00000000
00000000
00E38000
00E38000
00E38000
001C0000
001C0000
00E38000
00E38000
00E38000
001C0000
001C0000
001C0000
00E00000
00E00000
00E00000
ENDCHAR
STARTCHAR 013D
ENCODING 317
SWIDTH 684 0
DWIDTH 38 0
BBX 31 42 4 0
BITMAP
E380038E
E380038E
E380038E
1C000070
1C000070
1C000070
E380038E
E380038E
E380038E
1C000070
1C000070
E3800380
E3800380
E3800380
1C000000
1C000000
1C000000
E3800000
E3800000
E3800000
1C000000
1C000000
1C000000
E3800000
E3800000
1C000000
1C000000
1C000000
E3800000
E3800000
E3800000
1C000000
1C000000
1C000000
E39C738E
E39C738E
1CE38C70
1CE38C70
1CE38C70
039C738E
039C738E
039C738E
ENDCHAR
STARTCHAR 013E
ENCODING 318
SWIDTH 594 0
DWIDTH 33 0
BBX 25 42 4 0
BITMAP
E3807380
E3807380
E3807380
1C000C00
1C000C00
1C000C00
E3807380
E3807380
E3807380
1C000C00
1C000C00
E3807000
E3807000
E3807000
1C000000
1C000000
1C000000
E3800000
E3800000
E3800000
1C000000
1C000000
1C000000
E3800000
E3800000
1C000000
1C000000
1C000000
E3800000
E3800000
E3800000
1C000000
1C000000
1C000000
E39C7380
E39C7380
1CE38C00
1CE38C00
1CE38C00
039C7380
039C7380
039C7380
ENDCHAR
STARTCHAR 0141
ENCODING 321
SWIDTH 738 0
DWIDTH 41 0
BBX 37 42 1 0
BITMAP
039C000000
039C000000
039C000000
0070000000
0070000000
0070000000
039C000000
039C000000
039C000000
0070000000
0070000000
039C700000
039C700000
039C700000
0073800000
0073800000
0073800000
E39C700000
E39C700000
E39C700000
1C70000000
1C70000000
1C70000000
E39C000000
E39C000000
0070000000
0070000000
0070000000
039C000000
039C000000
039C000000
0070000000
0070000000
0070000000
039C718E38
039C718E38
00738E71C0
00738E71C0
00738E71C0
001C718E38
001C718E38
001C718E38
ENDCHAR
STARTCHAR 0142
ENCODING 322
SWIDTH 648 0
DWIDTH 36 0
BBX 31 42 1 0
BITMAP
039C0000
039C0000
039C0000
00700000
00700000
00700000
039C0000
039C0000
039C0000
00700000
00700000
039C7000
039C7000
039C7000
00738000
00738000
00738000
E39C7000
E39C7000
E39C7000
1C700000
1C700000
1C700000
E39C0000
E39C0000
00700000
00700000
00700000
039C0000
039C0000
039C0000
00700000
00700000
00700000
039C718E
039C718E
00738E70
00738E70
00738E70
001C718E
001C718E
001C718E
ENDCHAR
STARTCHAR 0143
ENCODING 323
SWIDTH 792 0
DWIDTH 44 0
BBX 36 58 4 0
BITMAP
0000038E00
0000038E00
00000C7000
00000C7000
00000C7000
0000738000
0000738000
0000738000
00038C0000
00038C0000
00038C0000
001C700000
001C700000
001C700000
0000000000
0000000000
E380000E70
E380000E70
E380000E70
1CE00001C0
1CE00001C0
1CE00001C0
E39C000E70
E39C000E70
E39C000E70
1CE38001C0
1CE38001C0
E39C700E70
E39C700E70
E39C700E70
1C038C01C0
1C038C01C0
1C038C01C0
E380738E70
E380738E70
E380738E70
1C000C71C0
1C000C71C0
1C000C71C0
E380038E70
E380038E70
1C000071C0
1C000071C0
1C000071C0
E380000E70
E380000E70
E380000E70
1C000001C0
1C000001C0
1C000001C0
E380000E70
E380000E70
1C000001C0
1C000001C0
1C000001C0
E380000E70
E380000E70
E380000E70
ENDCHAR
STARTCHAR 0144
ENCODING 324
SWIDTH 684 0
DWIDTH 38 0
BBX 31 58 4 0
BITMAP
00000C70
00000C70
00007380
00007380
00007380
00038C00
00038C00
00038C00
001C7000
001C7000
001C7000
00E38000
00E38000
00E38000
00000000
00000000
E380038E
E380038E
E380038E
1CE00070
1CE00070
1CE00070
E39C038E
E39C038E
E39C038E
1CE38070
1CE38070
E39C738E
E39C738E
E39C738E
1C038C70
1C038C70
1C038C70
E380738E
E380738E
E380738E
1C000C70
1C000C70
1C000C70
E380038E
E380038E
1C000070
1C000070
1C000070
E380038E
E380038E
E380038E
1C000070
1C000070
1C000070
E380038E
E380038E
1C000070
1C000070
1C000070
E380038E
E380038E
E380038E
ENDCHAR
STARTCHAR 0145
ENCODING 325
SWIDTH 792 0
DWIDTH 44 0
BBX 36 59 4 -17
BITMAP
E380000E70
E380000E70
E380000E70
1CE00001C0
1CE00001C0
1CE00001C0
E39C000E70
E39C000E70
E39C000E70
1CE38001C0
1CE38001C0
E39C700E70
E39C700E70
E39C700E70
1C038C01C0
1C038C01C0
1C038C01C0
E380738E70
E380738E70
E380738E70
1C000C71C0
1C000C71C0
1C000C71C0
E380038E70
E380038E70
1C000071C0
1C000071C0
1C000071C0
E380000E70
E380000E70
E380000E70
1C000001C0
1C000001C0
1C000001C0
E380000E70
E380000E70
1C000001C0
1C000001C0
1C000001C0
E380000E70
E380000E70
E380000E70
0000000000
0000000000
0000000000
00038C0000
00038C0000
00038C0000
0000700000
0000700000
00038C0000
00038C0000
00038C0000
0000700000
0000700000
0000700000
0003800000
0003800000
0003800000
ENDCHAR
STARTCHAR 0146
ENCODING 326
SWIDTH 684 0
DWIDTH 38 0
BBX 31 59 4 -17
BITMAP
E380038E
E380038E
E380038E
1CE00070
1CE00070
1CE00070
E39C038E
E39C038E
E39C038E
1CE38070
1CE38070
E39C738E
E39C738E
E39C738E
1C038C70
1C038C70
1C038C70
E380738E
E380738E
E380738E
1C000C70
1C000C70
1C000C70
E380038E
E380038E
1C000070
1C000070
1C000070
E380038E
E380038E
E380038E
1C000070
1C000070
1C000070
E380038E
E380038E
1C000070
1C000070
1C000070
E380038E
E380038E
E380038E
00000000
00000000
00000000
001C7000
001C7000
001C7000
00038000
00038000
001C7000
001C7000
001C7000
00038000
00038000
00038000
001C0000
001C0000
001C0000
ENDCHAR
STARTCHAR 0147
ENCODING 327
SWIDTH 792 0
DWIDTH 44 0
BBX 36 58 4 0
BITMAP
00E38C7000
00E38C7000
001C038000
001C038000
001C038000
00E38C7000
00E38C7000
00E38C7000
001C738000
001C738000
001C738000
00038C0000
00038C0000
00038C0000
0000000000
0000000000
E380000E70
E380000E70
E380000E70
1CE00001C0
1CE00001C0
1CE00001C0
E39C000E70
E39C000E70
E39C000E70
1CE38001C0
1CE38001C0
E39C700E70
E39C700E70
E39C700E70
1C038C01C0
1C038C01C0
1C038C01C0
E380738E70
E380738E70
E380738E70
1C000C71C0
1C000C71C0
1C000C71C0
E380038E70
E380038E70
1C000071C0
1C000071C0
1C000071C0
E380000E70
E380000E70
E380000E70
1C000001C0
1C000001C0
1C000001C0
E380000E70
E380000E70
1C000001C0
1C000001C0
1C000001C0
E380000E70
E380000E70
E380000E70
ENDCHAR
STARTCHAR 0148
ENCODING 328
SWIDTH 684 0
DWIDTH 38 0
BBX 31 58 4 0
BITMAP
039C7380
039C7380
00E00C00
00E00C00
00E00C00
039C7380
039C7380
039C7380
00E38C00
00E38C00
00E38C00
001C7000
001C7000
001C7000
00000000
00000000
E380038E
E380038E
E380038E
1CE00070
1CE00070
1CE00070
E39C038E
E39C038E
E39C038E
1CE38070
1CE38070
E39C738E
E39C738E
E39C738E
1C038C70
1C038C70
1C038C70
E380738E
E380738E
E380738E
1C000C70
1C000C70
1C000C70
E380038E
E380038E
1C000070
1C000070
1C000070
E380038E
E380038E
E380038E
1C000070
1C000070
1C000070
E380038E
E380038E
1C000070
1C000070
1C000070
E380038E
E380038E
E380038E
ENDCHAR
STARTCHAR 014A
ENCODING 330
SWIDTH 792 0
DWIDTH 44 0
BBX 36 53 4 -11
BITMAP
E380000E70
E380000E70
E380000E70
1CE00001C0
1CE00001C0
1CE00001C0
E39C000E70
E39C000E70
E39C000E70
1CE38001C0
1CE38001C0
E39C700E70
E39C700E70
E39C700E70
1C038C01C0
1C038C01C0
1C038C01C0
E380738E70
E380738E70
E380738E70
1C000C71C0
1C000C71C0
1C000C71C0
E380038E70
E380038E70
1C000071C0
1C000071C0
1C000071C0
E380000E70
E380000E70
E380000E70
1C000001C0
1C000001C0
1C000001C0
E380000E70
E380000E70
1C000001C0
1C000001C0
1C000001C0
E380000E70
E380000E70
E380000E70
00000001C0
00000001C0
00000001C0
0000038E70
0000038E70
0000038E70
00000071C0
00000071C0
0000038E00
0000038E00
0000038E00
ENDCHAR
STARTCHAR 014B
ENCODING 331
SWIDTH 684 0
DWIDTH 38 0
BBX 31 53 4 -11
BITMAP
E380038E
E380038E
E380038E
1CE00070
1CE00070
1CE00070
E39C038E
E39C038E
E39C038E
1CE38070
1CE38070
E39C738E
E39C738E
E39C738E
1C038C70
1C038C70
1C038C70
E380738E
E380738E
E380738E
1C000C70
1C000C70
1C000C70
E380038E
E380038E
1C000070
1C000070
1C000070
E380038E
E380038E
E380038E
1C000070
1C000070
1C000070
E380038E
E380038E
1C000070
1C000070
1C000070
E380038E
E380038E
E380038E
00000070
00000070
00000070
0000738E
0000738E
0000738E
00000C70
00000C70
00007380
00007380
00007380
ENDCHAR
STARTCHAR 014C
ENCODING 332
SWIDTH 792 0
DWIDTH 44 0
BBX 36 53 4 0
BITMAP
00E38C7000
00E38C7000
00E38C7000
001C738000
001C738000
001C738000
00E38C7000
00E38C7000
00E38C7000
0000000000
0000000000
001C738000
001C738000
001C738000
00E38C7000
00E38C7000
00E38C7000
039C738E00
039C738E00
039C738E00
1CE00071C0
1CE00071C0
E380000E70
E380000E70
E380000E70
1C000001C0
1C000001C0
1C000001C0
E380000E70
E380000E70
E380000E70
1C000001C0
1C000001C0
1C000001C0
E380000E70
E380000E70
1C000001C0
1C000001C0
1C000001C0
E380000E70
E380000E70
E380000E70
1CE00071C0
1CE00071C0
1CE00071C0
039C738E00
039C738E00
00E38C7000
00E38C7000
00E38C7000
001C738000
001C738000
001C738000
ENDCHAR
STARTCHAR 014D
ENCODING 333
SWIDTH 684 0
DWIDTH 38 0
BBX 31 53 4 0
BITMAP
039C7380
039C7380
039C7380
00E38C00
00E38C00
00E38C00
039C7380
039C7380
039C7380
00000000
00000000
039C7380
039C7380
039C7380
1CE38C70
1CE38C70
1CE38C70
E39C738E
E39C738E
E39C738E
1C000070
1C000070
E380038E
E380038E
E380038E
1C000070
1C000070
1C000070
E380038E
E380038E
E380038E
1C000070
1C000070
1C000070
E380038E
E380038E
1C000070
1C000070
1C000070
E380038E
E380038E
E380038E
1C000070
1C000070
1C000070
E39C738E
E39C738E
1CE38C70
1CE38C70
1CE38C70
039C7380
039C7380
039C7380
ENDCHAR
STARTCHAR 0150
ENCODING 336
SWIDTH 792 0
DWIDTH 44 0
BBX 39 58 4 0
BITMAP
00038C01CE
00038C01CE
001C700E70
001C700E70
001C700E70
00E38071C0
00E38071C0
00E38071C0
039C038E00
039C038E00
039C038E00
1CE00C7000
1CE00C7000
1CE00C7000
0000000000
0000000000
001C738000
001C738000
001C738000
00E38C7000
00E38C7000
00E38C7000
039C738E00
039C738E00
039C738E00
1CE00071C0
1CE00071C0
E380000E70
E380000E70
E380000E70
1C000001C0
1C000001C0
1C000001C0
E380000E70
E380000E70
E380000E70
1C000001C0
1C000001C0
1C000001C0
E380000E70
E380000E70
1C000001C0
1C000001C0
1C000001C0
E380000E70
E380000E70
E380000E70
1CE00071C0
1CE00071C0
1CE00071C0
039C738E00
039C738E00
00E38C7000
00E38C7000
00E38C7000
001C738000
001C738000
001C738000
ENDCHAR
STARTCHAR 0151
ENCODING 337
SWIDTH 684 0
DWIDTH 38 0
BBX 36 58 4 0
BITMAP
001C700E70
001C700E70
00E38071C0
00E38071C0
00E38071C0
039C038E00
039C038E00
039C038E00
1CE00C7000
1CE00C7000
1CE00C7000
E380738000
E380738000
E380738000
0000000000
0000000000
039C738000
039C738000
039C738000
1CE38C7000
1CE38C7000
1CE38C7000
E39C738E00
E39C738E00
E39C738E00
1C00007000
1C00007000
E380038E00
E380038E00
E380038E00
1C00007000
1C00007000
1C00007000
E380038E00
E380038E00
E380038E00
1C00007000
1C00007000
1C00007000
E380038E00
E380038E00
1C00007000
1C00007000
1C00007000
E380038E00
E380038E00
E380038E00
1C00007000
1C00007000
1C00007000
E39C738E00
E39C738E00
1CE38C7000
1CE38C7000
1CE38C7000
039C738000
039C738000
039C738000
ENDCHAR
STARTCHAR 0152
ENCODING 338
SWIDTH 1188 0
DWIDTH 66 0
BBX 59 42 4 0
BITMAP
001C738001C638E0
001C738001C638E0
001C738001C638E0
00E38C700E39C700
00E38C700E39C700
00E38C700E39C700
039C738E71C638E0
039C738E71C638E0
039C738E71C638E0
1CE00071CE000000
1CE00071CE000000
E380000E70000000
E380000E70000000
E380000E70000000
1C000001C0000000
1C000001C0000000
1C000001C0000000
E380000E71C63800
E380000E71C63800
E380000E71C63800
1C000001CE39C000
1C000001CE39C000
1C000001CE39C000
E380000E71C63800
E380000E71C63800
1C000001C0000000
1C000001C0000000
1C000001C0000000
E380000E70000000
E380000E70000000
E380000E70000000
1CE00071CE000000
1CE00071CE000000
1CE00071CE000000
039C738E71C638E0
039C738E71C638E0
00E38C700E39C700
00E38C700E39C700
00E38C700E39C700
001C738001C638E0
001C738001C638E0
001C738001C638E0
ENDCHAR
STARTCHAR 0153
ENCODING 339
SWIDTH 1098 0
DWIDTH 61 0
BBX 53 42 4 0
BITMAP
039C738E71C638
039C738E71C638
039C738E71C638
1CE38C71CE39C0
1CE38C71CE39C0
1CE38C71CE39C0
E39C738E71C638
E39C738E71C638
E39C738E71C638
1C000070000000
1C000070000000
E380038E000000
E380038E000000
E380038E000000
1C000070000000
1C000070000000
1C000070000000
E380038E71C600
E380038E71C600
E380038E71C600
1C000071CE3800
1C000071CE3800
1C000071CE3800
E380038E71C600
E380038E71C600
1C000070000000
1C000070000000
1C000070000000
E380038E000000
E380038E000000
E380038E000000
1C000070000000
1C000070000000
1C000070000000
E39C738E71C638
E39C738E71C638
1CE38C71CE39C0
1CE38C71CE39C0
1CE38C71CE39C0
039C738E71C638
039C738E71C638
039C738E71C638
ENDCHAR
STARTCHAR 0154
ENCODING 340
SWIDTH 684 0
DWIDTH 38 0
BBX 31 58 4 0
BITMAP
00000C70
00000C70
00007380
00007380
00007380
00038C00
00038C00
00038C00
001C7000
001C7000
001C7000
00E38000
00E38000
00E38000
00000000
00000000
E39C7000
E39C7000
E39C7000
1CE38C00
1CE38C00
1CE38C00
E39C7380
E39C7380
E39C7380
1C000C70
1C000C70
E380038E
E380038E
E380038E
1C000070
1C000070
1C000070
E380038E
E380038E
E380038E
1C000070
1C000070
1C000070
E380038E
E380038E
1C000C70
1C000C70
1C000C70
E39C7380
E39C7380
E39C7380
1CE38C00
1CE38C00
1CE38C00
E39C7380
E39C7380
1C000C70
1C000C70
1C000C70
E380038E
E380038E
E380038E
ENDCHAR
STARTCHAR 0155
ENCODING 341
SWIDTH 684 0
DWIDTH 38 0
BBX 31 58 4 0
BITMAP
00000C70
00000C70
00007380
00007380
00007380
00038C00
00038C00
00038C00
001C7000
001C7000
001C7000
00E38000
00E38000
00E38000
00000000
00000000
E39C7380
E39C7380
E39C7380
1CE38C70
1CE38C70
1CE38C70
E39C738E
E39C738E
E39C738E
1C000070
1C000070
E380038E
E380038E
E380038E
1C000070
1C000070
1C000070
E380038E
E380038E
E380038E
1C000070
1C000070
1C000070
E39C738E
E39C738E
1CE38C70
1CE38C70
1CE38C70
E39C7380
E39C7380
E39C7380
1C000C70
1C000C70
1C000C70
E380038E
E380038E
1C000070
1C000070
1C000070
E380038E
E380038E
E380038E
ENDCHAR
STARTCHAR 0156
ENCODING 342
SWIDTH 684 0
DWIDTH 38 0
BBX 31 59 4 -17
BITMAP
E39C7000
E39C7000
E39C7000
1CE38C00
1CE38C00
1CE38C00
E39C7380
E39C7380
E39C7380
1C000C70
1C000C70
E380038E
E380038E
E380038E
1C000070
1C000070
1C000070
E380038E
E380038E
E380038E
1C000070
1C000070
1C000070
E380038E
E380038E
1C000C70
1C000C70
1C000C70
E39C7380
E39C7380
E39C7380
1CE38C00
1CE38C00
1CE38C00
E39C7380
E39C7380
1C000C70
1C000C70
1C000C70
E380038E
E380038E
E380038E
00000000
00000000
00000000
001C7000
001C7000
001C7000
00038000
00038000
001C7000
001C7000
001C7000
00038000
00038000
00038000
001C0000
001C0000
001C0000
ENDCHAR
STARTCHAR 0157
ENCODING 343
SWIDTH 684 0
DWIDTH 38 0
BBX 31 59 4 -17
BITMAP
E39C7380
E39C7380
E39C7380
1CE38C70
1CE38C70
1CE38C70
E39C738E
E39C738E
E39C738E
1C000070
1C000070
E380038E
E380038E
E380038E
1C000070
1C000070
1C000070
E380038E
E380038E
E380038E
1C000070
1C000070
1C000070
E39C738E
E39C738E
1CE38C70
1CE38C70
1CE38C70
E39C7380
E39C7380
E39C7380
1C000C70
1C000C70
1C000C70
E380038E
E380038E
1C000070
1C000070
1C000070
E380038E
E380038E
E380038E
00000000
00000000
00000000
001C7000
001C7000
001C7000
00038000
00038000
001C7000
001C7000
001C7000
00038000
00038000
00038000
001C0000
001C0000
001C0000
ENDCHAR
STARTCHAR 0158
ENCODING 344
SWIDTH 684 0
DWIDTH 38 0
BBX 31 58 4 0
BITMAP
039C7380
039C7380
00E00C00
00E00C00
00E00C00
039C7380
039C7380
039C7380
00E38C00
00E38C00
00E38C00
001C7000
001C7000
001C7000
00000000
00000000
E39C7000
E39C7000
E39C7000
1CE38C00
1CE38C00
1CE38C00
E39C7380
E39C7380
E39C7380
1C000C70
1C000C70
E380038E
E380038E
E380038E
1C000070
1C000070
1C000070
E380038E
E380038E
E380038E
1C000070
1C000070
1C000070
E380038E
E380038E
1C000C70
1C000C70
1C000C70
E39C7380
E39C7380
E39C7380
1CE38C00
1CE38C00
1CE38C00
E39C7380
E39C7380
1C000C70
1C000C70
1C000C70
E380038E
E380038E
E380038E
ENDCHAR
STARTCHAR 0159
ENCODING 345
SWIDTH 684 0
DWIDTH 38 0
BBX 31 58 4 0
BITMAP
039C7380
039C7380
00E00C00
00E00C00
00E00C00
039C7380
039C7380
039C7380
00E38C00
00E38C00
00E38C00
001C7000
001C7000
001C7000
00000000
00000000
E39C7380
E39C7380
E39C7380
1CE38C70
1CE38C70
1CE38C70
E39C738E
E39C738E
E39C738E
1C000070
1C000070
E380038E
E380038E
E380038E
1C000070
1C000070
1C000070
E380038E
E380038E
E380038E
1C000070
1C000070
1C000070
E39C738E
E39C738E
1CE38C70
1CE38C70
1CE38C70
E39C7380
E39C7380
E39C7380
1C000C70
1C000C70
1C000C70
E380038E
E380038E
1C000070
1C000070
1C000070
E380038E
E380038E
E380038E
ENDCHAR
STARTCHAR 015A
ENCODING 346
SWIDTH 684 0
DWIDTH 38 0
BBX 31 58 4 0
BITMAP
00000C70
00000C70
00007380
00007380
00007380
00038C00
00038C00
00038C00
001C7000
001C7000
001C7000
00E38000
00E38000
00E38000
00000000
00000000
039C7380
039C7380
039C7380
1CE38C70
1CE38C70
1CE38C70
E39C738E
E39C738E
E39C738E
1C000070
1C000070
E380038E
E380038E
E380038E
1C000000
1C000000
1C000000
E39C7380
E39C7380
E39C7380
1CE38C70
1CE38C70
1CE38C70
039C738E
039C738E
00000070
00000070
00000070
E380038E
E380038E
E380038E
1C000070
1C000070
1C000070
E39C738E
E39C738E
1CE38C70
1CE38C70
1CE38C70
039C7380
039C7380
039C7380
ENDCHAR
STARTCHAR 015B
ENCODING 347
SWIDTH 684 0
DWIDTH 38 0
BBX 31 58 4 0
BITMAP
00000C70
00000C70
00007380
00007380
00007380
00038C00
00038C00
00038C00
001C7000
001C7000
001C7000
00E38000
00E38000
00E38000
00000000
00000000
039C7380
039C7380
039C7380
1CE38C70
1CE38C70
1CE38C70
E39C738E
E39C738E
E39C738E
1C000070
1C000070
E380038E
E380038E
E380038E
1C000000
1C000000
1C000000
E39C7380
E39C7380
E39C7380
1CE38C70
1CE38C70
1CE38C70
039C738E
039C738E
00000070
00000070
00000070
E380038E
E380038E
E380038E
1C000070
1C000070
1C000070
E39C738E
E39C738E
1CE38C70
1CE38C70
1CE38C70
039C7380
039C7380
039C7380
ENDCHAR
STARTCHAR 015E
ENCODING 350
SWIDTH 684 0
DWIDTH 38 0
BBX 31 53 4 -11
BITMAP
039C7380
039C7380
039C7380
1CE38C70
1CE38C70
1CE38C70
E39C738E
E39C738E
E39C738E
1C000070
1C000070
E380038E
E380038E
E380038E
1C000000
1C000000
1C000000
E39C7380
E39C7380
E39C7380
1CE38C70
1CE38C70
1CE38C70
039C738E
039C738E
00000070
00000070
00000070
E380038E
E380038E
E380038E
1C000070
1C000070
1C000070
E39C738E
E39C738E
1CE38C70
1CE38C70
1CE38C70
039C7380
039C7380
039C7380
00038000
00038000
00038000
039C7000
039C7000
039C7000
00E38000
00E38000
039C0000
039C0000
039C0000
ENDCHAR
STARTCHAR 015F
ENCODING 351
SWIDTH 684 0
DWIDTH 38 0
BBX 31 53 4 -11
BITMAP
039C7380
039C7380
039C7380
1CE38C70
1CE38C70
1CE38C70
E39C738E
E39C738E
E39C738E
1C000070
1C000070
E380038E
E380038E
E380038E
1C000000
1C000000
1C000000
E39C7380
E39C7380
E39C7380
1CE38C70
1CE38C70
1CE38C70
039C738E
039C738E
00000070
00000070
00000070
E380038E
E380038E
E380038E
1C000070
1C000070
1C000070
E39C738E
E39C738E
1CE38C70
1CE38C70
1CE38C70
039C7380
039C7380
039C7380
00038000
00038000
00038000
039C7000
039C7000
039C7000
00E38000
00E38000
039C0000
039C0000
039C0000
ENDCHAR
STARTCHAR 0160
ENCODING 352
SWIDTH 684 0
DWIDTH 38 0
BBX 31 58 4 0
BITMAP
039C7380
039C7380
00E00C00
00E00C00
00E00C00
039C7380
039C7380
039C7380
00E38C00
00E38C00
00E38C00
001C7000
001C7000
001C7000
00000000
00000000
039C7380
039C7380
039C7380
1CE38C70
1CE38C70
1CE38C70
E39C738E
E39C738E
E39C738E
1C000070
1C000070
E380038E
E380038E
E380038E
1C000000
1C000000
1C000000
E39C7380
E39C7380
E39C7380
1CE38C70
1CE38C70
1CE38C70
039C738E
039C738E
00000070
00000070
00000070
E380038E
E380038E
E380038E
1C000070
1C000070
1C000070
E39C738E
E39C738E
1CE38C70
1CE38C70
1CE38C70
039C7380
039C7380
039C7380
ENDCHAR
STARTCHAR 0161
ENCODING 353
SWIDTH 684 0
DWIDTH 38 0
BBX 31 58 4 0
BITMAP
039C7380
039C7380
00E00C00
00E00C00
00E00C00
039C7380
039C7380
039C7380
00E38C00
00E38C00
00E38C00
001C7000
001C7000
001C7000
00000000
00000000
039C7380
039C7380
039C7380
1CE38C70
1CE38C70
1CE38C70
E39C738E
E39C738E
E39C738E
1C000070
1C000070
E380038E
E380038E
E380038E
1C000000
1C000000
1C000000
E39C7380
E39C7380
E39C7380
1CE38C70
1CE38C70
1CE38C70
039C738E
039C738E
00000070
00000070
00000070
E380038E
E380038E
E380038E
1C000070
1C000070
1C000070
E39C738E
E39C738E
1CE38C70
1CE38C70
1CE38C70
039C7380
039C7380
039C7380
ENDCHAR
STARTCHAR 0162
ENCODING 354
SWIDTH 684 0
DWIDTH 38 0
BBX 31 53 4 -11
BITMAP
E39C738E
E39C738E
E39C738E
1CE38C70
1CE38C70
1CE38C70
E39C738E
E39C738E
E39C738E
00038000
00038000
001C7000
001C7000
001C7000
00038000
00038000
00038000
001C7000
001C7000
001C7000
00038000
00038000
00038000
001C7000
001C7000
00038000
00038000
00038000
001C7000
001C7000
001C7000
00038000
00038000
00038000
001C7000
001C7000
00038000
00038000
00038000
001C7000
001C7000
001C7000
00038000
00038000
00038000
039C7000
039C7000
039C7000
00E38000
00E38000
039C0000
039C0000
039C0000
ENDCHAR
STARTCHAR 0163
ENCODING 355
SWIDTH 684 0
DWIDTH 38 0
BBX 31 53 4 -11
BITMAP
E39C738E
E39C738E
E39C738E
1CE38C70
1CE38C70
1CE38C70
E39C738E
E39C738E
E39C738E
00038000
00038000
001C7000
001C7000
001C7000
00038000
00038000
00038000
001C7000
001C7000
001C7000
00038000
00038000
00038000
001C7000
001C7000
00038000
00038000
00038000
001C7000
001C7000
001C7000
00038000
00038000
00038000
001C7000
001C7000
00038000
00038000
00038000
001C7000
001C7000
001C7000
00038000
00038000
00038000
039C7000
039C7000
039C7000
00E38000
00E38000
039C0000
039C0000
039C0000
ENDCHAR
STARTCHAR 0164
ENCODING 356
SWIDTH 684 0
DWIDTH 38 0
BBX 31 58 4 0
BITMAP
039C7380
039C7380
00E00C00
00E00C00
00E00C00
039C7380
039C7380
039C7380
00E38C00
00E38C00
00E38C00
001C7000
001C7000
001C7000
00000000
00000000
E39C738E
E39C738E
E39C738E
1CE38C70
1CE38C70
1CE38C70
E39C738E
E39C738E
E39C738E
00038000
00038000
001C7000
001C7000
001C7000
00038000
00038000
00038000
001C7000
001C7000
001C7000
00038000
00038000
00038000
001C7000
001C7000
00038000
00038000
00038000
001C7000
001C7000
001C7000
00038000
00038000
00038000
001C7000
001C7000
00038000
00038000
00038000
001C7000
001C7000
001C7000
ENDCHAR
STARTCHAR 0165
ENCODING 357
SWIDTH 684 0
DWIDTH 38 0
BBX 31 58 4 0
BITMAP
039C7380
039C7380
00E00C00
00E00C00
00E00C00
039C7380
039C7380
039C7380
00E38C00
00E38C00
00E38C00
001C7000
001C7000
001C7000
00000000
00000000
E39C738E
E39C738E
E39C738E
1CE38C70
1CE38C70
1CE38C70
E39C738E
E39C738E
E39C738E
00038000
00038000
001C7000
001C7000
001C7000
00038000
00038000
00038000
001C7000
001C7000
001C7000
00038000
00038000
00038000
001C7000
001C7000
00038000
00038000
00038000
001C7000
001C7000
001C7000
00038000
00038000
00038000
001C7000
001C7000
00038000
00038000
00038000
001C7000
001C7000
001C7000
ENDCHAR
STARTCHAR 0166
ENCODING 358
SWIDTH 684 0
DWIDTH 38 0
BBX 31 42 4 0
BITMAP
E39C738E
E39C738E
E39C738E
1CE38C70
1CE38C70
1CE38C70
E39C738E
E39C738E
E39C738E
00038000
00038000
001C7000
001C7000
001C7000
00038000
00038000
00038000
039C7380
039C7380
039C7380
00E38C00
00E38C00
00E38C00
039C7380
039C7380
00038000
00038000
00038000
001C7000
001C7000
001C7000
00038000
00038000
00038000
001C7000
001C7000
00038000
00038000
00038000
001C7000
001C7000
001C7000
ENDCHAR
STARTCHAR 0167
ENCODING 359
SWIDTH 684 0
DWIDTH 38 0
BBX 31 42 4 0
BITMAP
E39C738E
E39C738E
E39C738E
1CE38C70
1CE38C70
1CE38C70
E39C738E
E39C738E
E39C738E
00038000
00038000
001C7000
001C7000
001C7000
00038000
00038000
00038000
039C7380
039C7380
039C7380
00E38C00
00E38C00
00E38C00
039C7380
039C7380
00038000
00038000
00038000
001C7000
001C7000
001C7000
00038000
00038000
00038000
001C7000
001C7000
00038000
00038000
00038000
001C7000
001C7000
001C7000
ENDCHAR
STARTCHAR 0168
ENCODING 360
SWIDTH 792 0
DWIDTH 44 0
BBX 36 58 4 0
BITMAP
00E38071C0
00E38071C0
039C700E00
039C700E00
039C700E00
1CE38C71C0
1CE38C71C0
1CE38C71C0
0380738E00
0380738E00
0380738E00
1CE00C7000
1CE00C7000
1CE00C7000
0000000000
0000000000
E380000E70
E380000E70
E380000E70
1C000001C0
1C000001C0
1C000001C0
E380000E70
E380000E70
E380000E70
1C000001C0
1C000001C0
E380000E70
E380000E70
E380000E70
1C000001C0
1C000001C0
1C000001C0
E380000E70
E380000E70
E380000E70
1C000001C0
1C000001C0
1C000001C0
E380000E70
E380000E70
1C000001C0
1C000001C0
1C000001C0
E380000E70
E380000E70
E380000E70
1CE00071C0
1CE00071C0
1CE00071C0
039C738E00
039C738E00
00E38C7000
00E38C7000
00E38C7000
001C738000
001C738000
001C738000
ENDCHAR
STARTCHAR 0169
ENCODING 361
SWIDTH 684 0
DWIDTH 38 0
BBX 31 58 4 0
BITMAP
039C038E
039C038E
1CE38070
1CE38070
1CE38070
E39C738E
E39C738E
E39C738E
1C038C70
1C038C70
1C038C70
E3807380
E3807380
E3807380
00000000
00000000
E380038E
E380038E
E380038E
1C000070
1C000070
1C000070
E380038E
E380038E
E380038E
1C000070
1C000070
E380038E
E380038E
E380038E
1C000070
1C000070
1C000070
E380038E
E380038E
E380038E
1C000070
1C000070
1C000070
E380038E
E380038E
1C000070
1C000070
1C000070
E380038E
E380038E
E380038E
1C000070
1C000070
1C000070
E39C738E
E39C738E
1CE38C70
1CE38C70
1CE38C70
039C7380
039C7380
039C7380
ENDCHAR
STARTCHAR 016A
ENCODING 362
SWIDTH 792 0
DWIDTH 44 0
BBX 36 53 4 0
BITMAP
00E38C7000
00E38C7000
00E38C7000
001C738000
001C738000
001C738000
00E38C7000
00E38C7000
00E38C7000
0000000000
0000000000
E380000E70
E380000E70
E380000E70
1C000001C0
1C000001C0
1C000001C0
E380000E70
E380000E70
E380000E70
1C000001C0
1C000001C0
E380000E70
E380000E70
E380000E70
1C000001C0
1C000001C0
1C000001C0
E380000E70
E380000E70
E380000E70
1C000001C0
1C000001C0
1C000001C0
E380000E70
E380000E70
1C000001C0
1C000001C0
1C000001C0
E380000E70
E380000E70
E380000E70
1CE00071C0
1CE00071C0
1CE00071C0
039C738E00
039C738E00
00E38C7000
00E38C7000
00E38C7000
001C738000
001C738000
001C738000
ENDCHAR
STARTCHAR 016B
ENCODING 363
SWIDTH 684 0
DWIDTH 38 0
BBX 31 53 4 0
BITMAP
039C7380
039C7380
039C7380
00E38C00
00E38C00
00E38C00
039C7380
039C7380
039C7380
00000000
00000000
E380038E
E380038E
E380038E
1C000070
1C000070
1C000070
E380038E
E380038E
E380038E
1C000070
1C000070
E380038E
E380038E
E380038E
1C000070
1C000070
1C000070
E380038E
E380038E
E380038E
1C000070
1C000070
1C000070
E380038E
E380038E
1C000070
1C000070
1C000070
E380038E
E380038E
E380038E
1C000070
1C000070
1C000070
E39C738E
E39C738E
1CE38C70
1CE38C70
1CE38C70
039C7380
039C7380
039C7380
ENDCHAR
STARTCHAR 016E
ENCODING 366
SWIDTH 792 0
DWIDTH 44 0
BBX 36 69 4 0
BITMAP
001C738000
001C738000
00E38C7000
00E38C7000
00E38C7000
039C738E00
039C738E00
039C738E00
00E0007000
00E0007000
00E0007000
039C038E00
039C038E00
00E0007000
00E0007000
00E0007000
039C738E00
039C738E00
039C738E00
00E38C7000
00E38C7000
00E38C7000
001C738000
001C738000
001C738000
0000000000
0000000000
E380000E70
E380000E70
E380000E70
1C000001C0
1C000001C0
1C000001C0
E380000E70
E380000E70
E380000E70
1C000001C0
1C000001C0
E380000E70
E380000E70
E380000E70
1C000001C0
1C000001C0
1C000001C0
E380000E70
E380000E70
E380000E70
1C000001C0
1C000001C0
1C000001C0
E380000E70
E380000E70
1C000001C0
1C000001C0
1C000001C0
E380000E70
E380000E70
E380000E70
1CE00071C0
1CE00071C0
1CE00071C0
039C738E00
039C738E00
00E38C7000
00E38C7000
00E38C7000
001C738000
001C738000
001C738000
ENDCHAR
STARTCHAR 016F
ENCODING 367
SWIDTH 684 0
DWIDTH 38 0
BBX 31 69 4 0
BITMAP
00E38C00
00E38C00
039C7380
039C7380
039C7380
1CE38C70
1CE38C70
1CE38C70
03800380
03800380
03800380
1CE00C70
1CE00C70
03800380
03800380
03800380
1CE38C70
1CE38C70
1CE38C70
039C7380
039C7380
039C7380
00E38C00
00E38C00
00E38C00
00000000
00000000
E380038E
E380038E
E380038E
1C000070
1C000070
1C000070
E380038E
E380038E
E380038E
1C000070
1C000070
E380038E
E380038E
E380038E
1C000070
1C000070
1C000070
E380038E
E380038E
E380038E
1C000070
1C000070
1C000070
E380038E
E380038E
1C000070
1C000070
1C000070
E380038E
E380038E
E380038E
1C000070
1C000070
1C000070
E39C738E
E39C738E
1CE38C70
1CE38C70
1CE38C70
039C7380
039C7380
039C7380
ENDCHAR
STARTCHAR 0170
ENCODING 368
SWIDTH 792 0
DWIDTH 44 0
BBX 39 58 4 0
BITMAP
00038C01CE
00038C01CE
001C700E70
001C700E70
001C700E70
00E38071C0
00E38071C0
00E38071C0
039C038E00
039C038E00
039C038E00
1CE00C7000
1CE00C7000
1CE00C7000
0000000000
0000000000
E380000E70
E380000E70
E380000E70
1C000001C0
1C000001C0
1C000001C0
E380000E70
E380000E70
E380000E70
1C000001C0
1C000001C0
E380000E70
E380000E70
E380000E70
1C000001C0
1C000001C0
1C000001C0
E380000E70
E380000E70
E380000E70
1C000001C0
1C000001C0
1C000001C0
E380000E70
E380000E70
1C000001C0
1C000001C0
1C000001C0
E380000E70
E380000E70
E380000E70
1CE00071C0
1CE00071C0
1CE00071C0
039C738E00
039C738E00
00E38C7000
00E38C7000
00E38C7000
001C738000
001C738000
001C738000
ENDCHAR
STARTCHAR 0171
ENCODING 369
SWIDTH 684 0
DWIDTH 38 0
BBX 36 58 4 0
BITMAP
001C700E70
001C700E70
00E38071C0
00E38071C0
00E38071C0
039C038E00
039C038E00
039C038E00
1CE00C7000
1CE00C7000
1CE00C7000
E380738000
E380738000
E380738000
0000000000
0000000000
E380038E00
E380038E00
E380038E00
1C00007000
1C00007000
1C00007000
E380038E00
E380038E00
E380038E00
1C00007000
1C00007000
E380038E00
E380038E00
E380038E00
1C00007000
1C00007000
1C00007000
E380038E00
E380038E00
E380038E00
1C00007000
1C00007000
1C00007000
E380038E00
E380038E00
1C00007000
1C00007000
1C00007000
E380038E00
E380038E00
E380038E00
1C00007000
1C00007000
1C00007000
E39C738E00
E39C738E00
1CE38C7000
1CE38C7000
1CE38C7000
039C738000
039C738000
039C738000
ENDCHAR
STARTCHAR 0172
ENCODING 370
SWIDTH 792 0
DWIDTH 44 0
BBX 36 53 4 -11
BITMAP
E380000E70
E380000E70
E380000E70
1C000001C0
1C000001C0
1C000001C0
E380000E70
E380000E70
E380000E70
1C000001C0
1C000001C0
E380000E70
E380000E70
E380000E70
1C000001C0
1C000001C0
1C000001C0
E380000E70
E380000E70
E380000E70
1C000001C0
1C000001C0
1C000001C0
E380000E70
E380000E70
1C000001C0
1C000001C0
1C000001C0
E380000E70
E380000E70
E380000E70
1CE00071C0
1CE00071C0
1CE00071C0
039C738E00
039C738E00
00E38C7000
00E38C7000
00E38C7000
001C738000
001C738000
001C738000
00000C0000
00000C0000
00000C0000
0000738E00
0000738E00
0000738E00
00000C7000
00000C7000
0000038E00
0000038E00
0000038E00
ENDCHAR
STARTCHAR 0173
ENCODING 371
SWIDTH 684 0
DWIDTH 38 0
BBX 31 53 4 -11
BITMAP
E380038E
E380038E
E380038E
1C000070
1C000070
1C000070
E380038E
E380038E
E380038E
1C000070
1C000070
E380038E
E380038E
E380038E
1C000070
1C000070
1C000070
E380038E
E380038E
E380038E
1C000070
1C000070
1C000070
E380038E
E380038E
1C000070
1C000070
1C000070
E380038E
E380038E
E380038E
1C000070
1C000070
1C000070
E39C738E
E39C738E
1CE38C70
1CE38C70
1CE38C70
039C7380
039C7380
039C7380
00000C00
00000C00
00000C00
0000738E
0000738E
0000738E
00000C70
00000C70
0000038E
0000038E
0000038E
ENDCHAR
STARTCHAR 0174
ENCODING 372
SWIDTH 1098 0
DWIDTH 61 0
BBX 53 58 4 0
BITMAP
0000038E000000
0000038E000000
00000C71C00000
00000C71C00000
00000C71C00000
0000738E700000
0000738E700000
0000738E700000
00000C01C00000
00000C01C00000
00000C01C00000
0000738E700000
0000738E700000
0000738E700000
00000000000000
00000000000000
E380038E000638
E380038E000638
E380038E000638
1C0000700001C0
1C0000700001C0
1C0000700001C0
E380038E000638
E380038E000638
E380038E000638
1C0000700001C0
1C0000700001C0
E380038E000638
E380038E000638
E380038E000638
1C0000700001C0
1C0000700001C0
1C0000700001C0
E380038E000638
E380038E000638
E380038E000638
1C0000700001C0
1C0000700001C0
1C0000700001C0
E380038E000638
E380038E000638
1C0000700001C0
1C0000700001C0
1C0000700001C0
E380038E000638
E380038E000638
E380038E000638
1CE00C71C039C0
1CE00C71C039C0
1CE00C71C039C0
039C738E71C600
039C738E71C600
00E38C01CE3800
00E38C01CE3800
00E38C01CE3800
001C700071C000
001C700071C000
001C700071C000
ENDCHAR
STARTCHAR 0175
ENCODING 373
SWIDTH 1098 0
DWIDTH 61 0
BBX 53 58 4 0
BITMAP
0000038E000000
0000038E000000
00000C71C00000
00000C71C00000
00000C71C00000
0000738E700000
0000738E700000
0000738E700000
00000C01C00000
00000C01C00000
00000C01C00000
0000738E700000
0000738E700000
0000738E700000
00000000000000
00000000000000
E380038E000638
E380038E000638
E380038E000638
1C0000700001C0
1C0000700001C0
1C0000700001C0
E380038E000638
E380038E000638
E380038E000638
1C0000700001C0
1C0000700001C0
E380038E000638
E380038E000638
E380038E000638
1C0000700001C0
1C0000700001C0
1C0000700001C0
E380038E000638
E380038E000638
E380038E000638
1C0000700001C0
1C0000700001C0
1C0000700001C0
E380038E000638
E380038E000638
1C0000700001C0
1C0000700001C0
1C0000700001C0
E380038E000638
E380038E000638
E380038E000638
1C000C71C001C0
1C000C71C001C0
1C000C71C001C0
E39C738E71C638
E39C738E71C638
1CE38C01CE39C0
1CE38C01CE39C0
1CE38C01CE39C0
039C700071C600
039C700071C600
039C700071C600
ENDCHAR
STARTCHAR 0176
ENCODING 374
SWIDTH 684 0
DWIDTH 38 0
BBX 31 58 4 0
BITMAP
001C7000
001C7000
00E38C00
00E38C00
00E38C00
039C7380
039C7380
039C7380
00E00C00
00E00C00
00E00C00
039C7380
039C7380
039C7380
00000000
00000000
E380038E
E380038E
E380038E
1C000070
1C000070
1C000070
E380038E
E380038E
E380038E
1C000070
1C000070
E380038E
E380038E
E380038E
1C000070
1C000070
1C000070
E380038E
E380038E
E380038E
1CE00C70
1CE00C70
1CE00C70
039C7380
039C7380
00E38C00
00E38C00
00E38C00
001C7000
001C7000
001C7000
00038000
00038000
00038000
001C7000
001C7000
00038000
00038000
00038000
001C7000
001C7000
001C7000
ENDCHAR
STARTCHAR 0177
ENCODING 375
SWIDTH 684 0
DWIDTH 38 0
BBX 31 58 4 0
BITMAP
001C7000
001C7000
00E38C00
00E38C00
00E38C00
039C7380
039C7380
039C7380
00E00C00
00E00C00
00E00C00
039C7380
039C7380
039C7380
00000000
00000000
E380038E
E380038E
E380038E
1C000070
1C000070
1C000070
E380038E
E380038E
E380038E
1C000070
1C000070
E380038E
E380038E
E380038E
1C000070
1C000070
1C000070
E380038E
E380038E
E380038E
1C000070
1C000070
1C000070
E39C738E
E39C738E
1CE38C70
1CE38C70
1CE38C70
039C7380
039C7380
039C7380
00038000
00038000
00038000
001C7000
001C7000
00038000
00038000
00038000
001C7000
001C7000
001C7000
ENDCHAR
STARTCHAR 0178
ENCODING 376
SWIDTH 684 0
DWIDTH 38 0
BBX 31 53 4 0
BITMAP
039C7380
039C7380
039C7380
00E00C00
00E00C00
00E00C00
039C7380
039C7380
039C7380
00000000
00000000
E380038E
E380038E
E380038E
1C000070
1C000070
1C000070
E380038E
E380038E
E380038E
1C000070
1C000070
E380038E
E380038E
E380038E
1C000070
1C000070
1C000070
E380038E
E380038E
E380038E
1CE00C70
1CE00C70
1CE00C70
039C7380
039C7380
00E38C00
00E38C00
00E38C00
001C7000
001C7000
001C7000
00038000
00038000
00038000
001C7000
001C7000
00038000
00038000
00038000
001C7000
001C7000
001C7000
ENDCHAR
STARTCHAR 0179
ENCODING 377
SWIDTH 684 0
DWIDTH 38 0
BBX 31 58 4 0
BITMAP
00000C70
00000C70
00007380
00007380
00007380
00038C00
00038C00
00038C00
001C7000
001C7000
001C7000
00E38000
00E38000
00E38000
00000000
00000000
E39C738E
E39C738E
E39C738E
1CE38C70
1CE38C70
1CE38C70
E39C738E
E39C738E
E39C738E
00000C70
00000C70
00007380
00007380
00007380
00038C00
00038C00
00038C00
001C7000
001C7000
001C7000
00E38000
00E38000
00E38000
039C0000
039C0000
1CE00000
1CE00000
1CE00000
E3800000
E3800000
E3800000
1C000000
1C000000
1C000000
E39C738E
E39C738E
1CE38C70
1CE38C70
1CE38C70
E39C738E
E39C738E
E39C738E
ENDCHAR
STARTCHAR 017A
ENCODING 378
SWIDTH 684 0
DWIDTH 38 0
BBX 31 58 4 0
BITMAP
00000C70
00000C70
00007380
00007380
00007380
00038C00
00038C00
00038C00
001C7000
001C7000
001C7000
00E38000
00E38000
00E38000
00000000
00000000
E39C738E
E39C738E
E39C738E
1CE38C70
1CE38C70
1CE38C70
E39C738E
E39C738E
E39C738E
00000070
00000070
0000038E
0000038E
0000038E
00000070
00000070
00000070
039C738E
039C738E
039C738E
1CE38C70
1CE38C70
1CE38C70
E39C7380
E39C7380
1C000000
1C000000
1C000000
E3800000
E3800000
E3800000
1C000000
1C000000
1C000000
E39C738E
E39C738E
1CE38C70
1CE38C70
1CE38C70
E39C738E
E39C738E
E39C738E
ENDCHAR
STARTCHAR 017B
ENCODING 379
SWIDTH 684 0
DWIDTH 38 0
BBX 31 53 4 0
BITMAP
001C7000
001C7000
001C7000
00038000
00038000
00038000
001C7000
001C7000
001C7000
00000000
00000000
E39C738E
E39C738E
E39C738E
1CE38C70
1CE38C70
1CE38C70
E39C738E
E39C738E
E39C738E
00000C70
00000C70
00007380
00007380
00007380
00038C00
00038C00
00038C00
001C7000
001C7000
001C7000
00E38000
00E38000
00E38000
039C0000
039C0000
1CE00000
1CE00000
1CE00000
E3800000
E3800000
E3800000
1C000000
1C000000
1C000000
E39C738E
E39C738E
1CE38C70
1CE38C70
1CE38C70
E39C738E
E39C738E
E39C738E
ENDCHAR
STARTCHAR 017C
ENCODING 380
SWIDTH 684 0
DWIDTH 38 0
BBX 31 53 4 0
BITMAP
001C7000
001C7000
001C7000
00038000
00038000
00038000
001C7000
001C7000
001C7000
00000000
00000000
E39C738E
E39C738E
E39C738E
1CE38C70
1CE38C70
1CE38C70
E39C738E
E39C738E
E39C738E
00000070
00000070
0000038E
0000038E
0000038E
00000070
00000070
00000070
039C738E
039C738E
039C738E
1CE38C70
1CE38C70
1CE38C70
E39C7380
E39C7380
1C000000
1C000000
1C000000
E3800000
E3800000
E3800000
1C000000
1C000000
1C000000
E39C738E
E39C738E
1CE38C70
1CE38C70
1CE38C70
E39C738E
E39C738E
E39C738E
ENDCHAR
STARTCHAR 017D
ENCODING 381
SWIDTH 684 0
DWIDTH 38 0
BBX 31 58 4 0
BITMAP
039C7380
039C7380
00E00C00
00E00C00
00E00C00
039C7380
039C7380
039C7380
00E38C00
00E38C00
00E38C00
001C7000
001C7000
001C7000
00000000
00000000
E39C738E
E39C738E
E39C738E
1CE38C70
1CE38C70
1CE38C70
E39C738E
E39C738E
E39C738E
00000C70
00000C70
00007380
00007380
00007380
00038C00
00038C00
00038C00
001C7000
001C7000
001C7000
00E38000
00E38000
00E38000
039C0000
039C0000
1CE00000
1CE00000
1CE00000
E3800000
E3800000
E3800000
1C000000
1C000000
1C000000
E39C738E
E39C738E
1CE38C70
1CE38C70
1CE38C70
E39C738E
E39C738E
E39C738E
ENDCHAR
STARTCHAR 017E
ENCODING 382
SWIDTH 684 0
DWIDTH 38 0
BBX 31 58 4 0
BITMAP
039C7380
039C7380
00E00C00
00E00C00
00E00C00
039C7380
039C7380
039C7380
00E38C00
00E38C00
00E38C00
001C7000
001C7000
001C7000
00000000
00000000
E39C738E
E39C738E
E39C738E
1CE38C70
1CE38C70
1CE38C70
E39C738E
E39C738E
E39C738E
00000070
00000070
0000038E
0000038E
0000038E
00000070
00000070
00000070
039C738E
039C738E
039C738E
1CE38C70
1CE38C70
1CE38C70
E39C7380
E39C7380
1C000000
1C000000
1C000000
E3800000
E3800000
E3800000
1C000000
1C000000
1C000000
E39C738E
E39C738E
1CE38C70
1CE38C70
1CE38C70
E39C738E
E39C738E
E39C738E
ENDCHAR
STARTCHAR 0192
ENCODING 402
SWIDTH 684 0
DWIDTH 38 0
BBX 31 53 4 -11
BITMAP
0000738E
0000738E
0000738E
00038C70
00038C70
00038C70
001C738E
001C738E
001C738E
00038000
00038000
001C7000
001C7000
001C7000
00038000
00038000
00038000
039C7380
039C7380
039C7380
00E38C00
00E38C00
00E38C00
039C7380
039C7380
00038000
00038000
00038000
001C7000
001C7000
001C7000
00038000
00038000
00038000
001C7000
001C7000
00038000
00038000
00038000
001C7000
001C7000
001C7000
00038000
00038000
00038000
E39C7000
E39C7000
E39C7000
1CE38000
1CE38000
E39C0000
E39C0000
E39C0000
ENDCHAR
STARTCHAR 01A0
ENCODING 416
SWIDTH 936 0
DWIDTH 52 0
BBX 47 47 4 0
BITMAP
0000000001C6
0000000001C6
0000000001C6
000000000038
000000000038
039C738E71C6
039C738E71C6
039C738E71C6
1CE38C71CE38
1CE38C71CE38
1CE38C71CE38
E39C738E71C0
E39C738E71C0
E39C738E71C0
1C000001C000
1C000001C000
E380000E7000
E380000E7000
E380000E7000
1C000001C000
1C000001C000
1C000001C000
E380000E7000
E380000E7000
E380000E7000
1C000001C000
1C000001C000
1C000001C000
E380000E7000
E380000E7000
1C000001C000
1C000001C000
1C000001C000
E380000E7000
E380000E7000
E380000E7000
1C000001C000
1C000001C000
1C000001C000
E39C738E7000
E39C738E7000
1CE38C71C000
1CE38C71C000
1CE38C71C000
039C738E0000
039C738E0000
039C738E0000
ENDCHAR
STARTCHAR 01A1
ENCODING 417
SWIDTH 846 0
DWIDTH 47 0
BBX 42 47 4 0
BITMAP
0000000071C0
0000000071C0
0000000071C0
000000000E00
000000000E00
039C738E71C0
039C738E71C0
039C738E71C0
1CE38C71CE00
1CE38C71CE00
1CE38C71CE00
E39C738E7000
E39C738E7000
E39C738E7000
1C0000700000
1C0000700000
E380038E0000
E380038E0000
E380038E0000
1C0000700000
1C0000700000
1C0000700000
E380038E0000
E380038E0000
E380038E0000
1C0000700000
1C0000700000
1C0000700000
E380038E0000
E380038E0000
1C0000700000
1C0000700000
1C0000700000
E380038E0000
E380038E0000
E380038E0000
1C0000700000
1C0000700000
1C0000700000
E39C738E0000
E39C738E0000
1CE38C700000
1CE38C700000
1CE38C700000
039C73800000
039C73800000
039C73800000
ENDCHAR
STARTCHAR 01AF
ENCODING 431
SWIDTH 936 0
DWIDTH 52 0
BBX 47 47 4 0
BITMAP
0000000001C6
0000000001C6
0000000001C6
000000000038
000000000038
E380000E71C6
E380000E71C6
E380000E71C6
1C000001CE38
1C000001CE38
1C000001CE38
E380000E71C0
E380000E71C0
E380000E71C0
1C000001C000
1C000001C000
E380000E7000
E380000E7000
E380000E7000
1C000001C000
1C000001C000
1C000001C000
E380000E7000
E380000E7000
E380000E7000
1C000001C000
1C000001C000
1C000001C000
E380000E7000
E380000E7000
1C000001C000
1C000001C000
1C000001C000
E380000E7000
E380000E7000
E380000E7000
1CE00071C000
1CE00071C000
1CE00071C000
039C738E0000
039C738E0000
00E38C700000
00E38C700000
00E38C700000
001C73800000
001C73800000
001C73800000
ENDCHAR
STARTCHAR 01B0
ENCODING 432
SWIDTH 846 0
DWIDTH 47 0
BBX 42 47 4 0
BITMAP
0000000071C0
0000000071C0
0000000071C0
000000000E00
000000000E00
E380038E71C0
E380038E71C0
E380038E71C0
1C000071CE00
1C000071CE00
1C000071CE00
E380038E7000
E380038E7000
E380038E7000
1C0000700000
1C0000700000
E380038E0000
E380038E0000
E380038E0000
1C0000700000
1C0000700000
1C0000700000
E380038E0000
E380038E0000
E380038E0000
1C0000700000
1C0000700000
1C0000700000
E380038E0000
E380038E0000
1C0000700000
1C0000700000
1C0000700000
E380038E0000
E380038E0000
E380038E0000
1C0000700000
1C0000700000
1C0000700000
E39C738E0000
E39C738E0000
1CE38C700000
1CE38C700000
1CE38C700000
039C73800000
039C73800000
039C73800000
ENDCHAR
STARTCHAR 01CD
ENCODING 461
SWIDTH 684 0
DWIDTH 38 0
BBX 31 58 4 0
BITMAP
039C7380
039C7380
00E00C00
00E00C00
00E00C00
039C7380
039C7380
039C7380
00E38C00
00E38C00
00E38C00
001C7000
001C7000
001C7000
00000000
00000000
001C7000
001C7000
001C7000
00E38C00
00E38C00
00E38C00
039C7380
039C7380
039C7380
1CE00C70
1CE00C70
E380038E
E380038E
E380038E
1C000070
1C000070
1C000070
E380038E
E380038E
E380038E
1C000070
1C000070
1C000070
E39C738E
E39C738E
1CE38C70
1CE38C70
1CE38C70
E39C738E
E39C738E
E39C738E
1C000070
1C000070
1C000070
E380038E
E380038E
1C000070
1C000070
1C000070
E380038E
E380038E
E380038E
ENDCHAR
STARTCHAR 01CE
ENCODING 462
SWIDTH 684 0
DWIDTH 38 0
BBX 31 58 4 0
BITMAP
039C7380
039C7380
00E00C00
00E00C00
00E00C00
039C7380
039C7380
039C7380
00E38C00
00E38C00
00E38C00
001C7000
001C7000
001C7000
00000000
00000000
039C7380
039C7380
039C7380
1CE38C70
1CE38C70
1CE38C70
E39C738E
E39C738E
E39C738E
1C000070
1C000070
E380038E
E380038E
E380038E
1C000070
1C000070
1C000070
E380038E
E380038E
E380038E
1C000070
1C000070
1C000070
E39C738E
E39C738E
1CE38C70
1CE38C70
1CE38C70
E39C738E
E39C738E
E39C738E
1C000070
1C000070
1C000070
E380038E
E380038E
1C000070
1C000070
1C000070
E380038E
E380038E
E380038E
ENDCHAR
STARTCHAR 01CF
ENCODING 463
SWIDTH 486 0
DWIDTH 27 0
BBX 20 58 4 0
BITMAP
E39C70
E39C70
1C0380
1C0380
1C0380
E39C70
E39C70
E39C70
1CE380
1CE380
1CE380
039C00
039C00
039C00
000000
000000
E39C70
E39C70
E39C70
1CE380
1CE380
1CE380
E39C70
E39C70
E39C70
00E000
00E000
039C00
039C00
039C00
00E000
00E000
00E000
039C00
039C00
039C00
00E000
00E000
00E000
039C00
039C00
00E000
00E000
00E000
039C00
039C00
039C00
00E000
00E000
00E000
E39C70
E39C70
1CE380
1CE380
1CE380
E39C70
E39C70
E39C70
ENDCHAR
STARTCHAR 01D0
ENCODING 464
SWIDTH 288 0
DWIDTH 16 0
BBX 19 58 -1 0
BITMAP
C71CE0
C71CE0
380700
380700
380700
C71CE0
C71CE0
C71CE0
38E700
38E700
38E700
071C00
071C00
071C00
000000
000000
071C00
071C00
071C00
00E000
00E000
00E000
071C00
071C00
071C00
00E000
00E000
071C00
071C00
071C00
00E000
00E000
00E000
071C00
071C00
071C00
00E000
00E000
00E000
071C00
071C00
00E000
00E000
00E000
071C00
071C00
071C00
00E000
00E000
00E000
071C00
071C00
00E000
00E000
00E000
071C00
071C00
071C00
ENDCHAR
STARTCHAR 01D1
ENCODING 465
SWIDTH 792 0
DWIDTH 44 0
BBX 36 58 4 0
BITMAP
00E38C7000
00E38C7000
001C038000
001C038000
001C038000
00E38C7000
00E38C7000
00E38C7000
001C738000
001C738000
001C738000
00038C0000
00038C0000
00038C0000
0000000000
0000000000
001C738000
001C738000
001C738000
00E38C7000
00E38C7000
00E38C7000
039C738E00
039C738E00
039C738E00
1CE00071C0
1CE00071C0
E380000E70
E380000E70
E380000E70
1C000001C0
1C000001C0
1C000001C0
E380000E70
E380000E70
E380000E70
1C000001C0
1C000001C0
1C000001C0
E380000E70
E380000E70
1C000001C0
1C000001C0
1C000001C0
E380000E70
E380000E70
E380000E70
1CE00071C0
1CE00071C0
1CE00071C0
039C738E00
039C738E00
00E38C7000
00E38C7000
00E38C7000
001C738000
001C738000
001C738000
ENDCHAR
STARTCHAR 01D2
ENCODING 466
SWIDTH 684 0
DWIDTH 38 0
BBX 31 58 4 0
BITMAP
039C7380
039C7380
00E00C00
00E00C00
00E00C00
039C7380
039C7380
039C7380
00E38C00
00E38C00
00E38C00
001C7000
001C7000
001C7000
00000000
00000000
039C7380
039C7380
039C7380
1CE38C70
1CE38C70
1CE38C70
E39C738E
E39C738E
E39C738E
1C000070
1C000070
E380038E
E380038E
E380038E
1C000070
1C000070
1C000070
E380038E
E380038E
E380038E
1C000070
1C000070
1C000070
E380038E
E380038E
1C000070
1C000070
1C000070
E380038E
E380038E
E380038E
1C000070
1C000070
1C000070
E39C738E
E39C738E
1CE38C70
1CE38C70
1CE38C70
039C7380
039C7380
039C7380
ENDCHAR
STARTCHAR 01D3
ENCODING 467
SWIDTH 792 0
DWIDTH 44 0
BBX 36 58 4 0
BITMAP
00E38C7000
00E38C7000
001C038000
001C038000
001C038000
00E38C7000
00E38C7000
00E38C7000
001C738000
001C738000
001C738000
00038C0000
00038C0000
00038C0000
0000000000
0000000000
E380000E70
E380000E70
E380000E70
1C000001C0
1C000001C0
1C000001C0
E380000E70
E380000E70
E380000E70
1C000001C0
1C000001C0
E380000E70
E380000E70
E380000E70
1C000001C0
1C000001C0
1C000001C0
E380000E70
E380000E70
E380000E70
1C000001C0
1C000001C0
1C000001C0
E380000E70
E380000E70
1C000001C0
1C000001C0
1C000001C0
E380000E70
E380000E70
E380000E70
1CE00071C0
1CE00071C0
1CE00071C0
039C738E00
039C738E00
00E38C7000
00E38C7000
00E38C7000
001C738000
001C738000
001C738000
ENDCHAR
STARTCHAR 01D4
ENCODING 468
SWIDTH 684 0
DWIDTH 38 0
BBX 31 58 4 0
BITMAP
039C7380
039C7380
00E00C00
00E00C00
00E00C00
039C7380
039C7380
039C7380
00E38C00
00E38C00
00E38C00
001C7000
001C7000
001C7000
00000000
00000000
E380038E
E380038E
E380038E
1C000070
1C000070
1C000070
E380038E
E380038E
E380038E
1C000070
1C000070
E380038E
E380038E
E380038E
1C000070
1C000070
1C000070
E380038E
E380038E
E380038E
1C000070
1C000070
1C000070
E380038E
E380038E
1C000070
1C000070
1C000070
E380038E
E380038E
E380038E
1C000070
1C000070
1C000070
E39C738E
E39C738E
1CE38C70
1CE38C70
1CE38C70
039C7380
039C7380
039C7380
ENDCHAR
STARTCHAR 01D5
ENCODING 469
SWIDTH 792 0
DWIDTH 44 0
BBX 36 64 4 0
BITMAP
00E38C7000
00E38C7000
00E38C7000
001C738000
001C738000
001C738000
00E38C7000
00E38C7000
0000000000
0000000000
0000000000
00E38C7000
00E38C7000
00E38C7000
001C038000
001C038000
001C038000
00E38C7000
00E38C7000
00E38C7000
0000000000
0000000000
E380000E70
E380000E70
E380000E70
1C000001C0
1C000001C0
1C000001C0
E380000E70
E380000E70
E380000E70
1C000001C0
1C000001C0
E380000E70
E380000E70
E380000E70
1C000001C0
1C000001C0
1C000001C0
E380000E70
E380000E70
E380000E70
1C000001C0
1C000001C0
1C000001C0
E380000E70
E380000E70
1C000001C0
1C000001C0
1C000001C0
E380000E70
E380000E70
E380000E70
1CE00071C0
1CE00071C0
1CE00071C0
039C738E00
039C738E00
00E38C7000
00E38C7000
00E38C7000
001C738000
001C738000
001C738000
ENDCHAR
STARTCHAR 01D6
ENCODING 470
SWIDTH 684 0
DWIDTH 38 0
BBX 31 64 4 0
BITMAP
039C7380
039C7380
039C7380
00E38C00
00E38C00
00E38C00
039C7380
039C7380
00000000
00000000
00000000
039C7380
039C7380
039C7380
00E00C00
00E00C00
00E00C00
039C7380
039C7380
039C7380
00000000
00000000
E380038E
E380038E
E380038E
1C000070
1C000070
1C000070
E380038E
E380038E
E380038E
1C000070
1C000070
E380038E
E380038E
E380038E
1C000070
1C000070
1C000070
E380038E
E380038E
E380038E
1C000070
1C000070
1C000070
E380038E
E380038E
1C000070
1C000070
1C000070
E380038E
E380038E
E380038E
1C000070
1C000070
1C000070
E39C738E
E39C738E
1CE38C70
1CE38C70
1CE38C70
039C7380
039C7380
039C7380
ENDCHAR
STARTCHAR 01D7
ENCODING 471
SWIDTH 792 0
DWIDTH 44 0
BBX 36 69 4 0
BITMAP
0000038E00
0000038E00
00000C7000
00000C7000
00000C7000
0000738000
0000738000
0000738000
00038C0000
00038C0000
00038C0000
001C700000
001C700000
0000000000
0000000000
0000000000
00E38C7000
00E38C7000
00E38C7000
001C038000
001C038000
001C038000
00E38C7000
00E38C7000
00E38C7000
0000000000
0000000000
E380000E70
E380000E70
E380000E70
1C000001C0
1C000001C0
1C000001C0
E380000E70
E380000E70
E380000E70
1C000001C0
1C000001C0
E380000E70
E380000E70
E380000E70
1C000001C0
1C000001C0
1C000001C0
E380000E70
E380000E70
E380000E70
1C000001C0
1C000001C0
1C000001C0
E380000E70
E380000E70
1C000001C0
1C000001C0
1C000001C0
E380000E70
E380000E70
E380000E70
1CE00071C0
1CE00071C0
1CE00071C0
039C738E00
039C738E00
00E38C7000
00E38C7000
00E38C7000
001C738000
001C738000
001C738000
ENDCHAR
STARTCHAR 01D8
ENCODING 472
SWIDTH 684 0
DWIDTH 38 0
BBX 31 69 4 0
BITMAP
00000C70
00000C70
00007380
00007380
00007380
00038C00
00038C00
00038C00
001C7000
001C7000
001C7000
00E38000
00E38000
00000000
00000000
00000000
039C7380
039C7380
039C7380
00E00C00
00E00C00
00E00C00
039C7380
039C7380
039C7380
00000000
00000000
E380038E
E380038E
E380038E
1C000070
1C000070
1C000070
E380038E
E380038E
E380038E
1C000070
1C000070
E380038E
E380038E
E380038E
1C000070
1C000070
1C000070
E380038E
E380038E
E380038E
1C000070
1C000070
1C000070
E380038E
E380038E
1C000070
1C000070
1C000070
E380038E
E380038E
E380038E
1C000070
1C000070
1C000070
E39C738E
E39C738E
1CE38C70
1CE38C70
1CE38C70
039C7380
039C7380
039C7380
ENDCHAR
STARTCHAR 01D9
ENCODING 473
SWIDTH 792 0
DWIDTH 44 0
BBX 36 69 4 0
BITMAP
00E38C7000
00E38C7000
001C038000
001C038000
001C038000
00E38C7000
00E38C7000
00E38C7000
001C738000
001C738000
001C738000
00038C0000
00038C0000
0000000000
0000000000
0000000000
00E38C7000
00E38C7000
00E38C7000
001C038000
001C038000
001C038000
00E38C7000
00E38C7000
00E38C7000
0000000000
0000000000
E380000E70
E380000E70
E380000E70
1C000001C0
1C000001C0
1C000001C0
E380000E70
E380000E70
E380000E70
1C000001C0
1C000001C0
E380000E70
E380000E70
E380000E70
1C000001C0
1C000001C0
1C000001C0
E380000E70
E380000E70
E380000E70
1C000001C0
1C000001C0
1C000001C0
E380000E70
E380000E70
1C000001C0
1C000001C0
1C000001C0
E380000E70
E380000E70
E380000E70
1CE00071C0
1CE00071C0
1CE00071C0
039C738E00
039C738E00
00E38C7000
00E38C7000
00E38C7000
001C738000
001C738000
001C738000
ENDCHAR
STARTCHAR 01DA
ENCODING 474
SWIDTH 684 0
DWIDTH 38 0
BBX 31 69 4 0
BITMAP
039C7380
039C7380
00E00C00
00E00C00
00E00C00
039C7380
039C7380
039C7380
00E38C00
00E38C00
00E38C00
001C7000
001C7000
00000000
00000000
00000000
039C7380
039C7380
039C7380
00E00C00
00E00C00
00E00C00
039C7380
039C7380
039C7380
00000000
00000000
E380038E
E380038E
E380038E
1C000070
1C000070
1C000070
E380038E
E380038E
E380038E
1C000070
1C000070
E380038E
E380038E
E380038E
1C000070
1C000070
1C000070
E380038E
E380038E
E380038E
1C000070
1C000070
1C000070
E380038E
E380038E
1C000070
1C000070
1C000070
E380038E
E380038E
E380038E
1C000070
1C000070
1C000070
E39C738E
E39C738E
1CE38C70
1CE38C70
1CE38C70
039C7380
039C7380
039C7380
ENDCHAR
STARTCHAR 01DB
ENCODING 475
SWIDTH 792 0
DWIDTH 44 0
BBX 36 69 4 0
BITMAP
1CE0000000
1CE0000000
039C000000
039C000000
039C000000
00E3800000
00E3800000
00E3800000
001C700000
001C700000
001C700000
00038C0000
00038C0000
0000000000
0000000000
0000000000
00E38C7000
00E38C7000
00E38C7000
001C038000
001C038000
001C038000
00E38C7000
00E38C7000
00E38C7000
0000000000
0000000000
E380000E70
E380000E70
E380000E70
1C000001C0
1C000001C0
1C000001C0
E380000E70
E380000E70
E380000E70
1C000001C0
1C000001C0
E380000E70
E380000E70
E380000E70
1C000001C0
1C000001C0
1C000001C0
E380000E70
E380000E70
E380000E70
1C000001C0
1C000001C0
1C000001C0
E380000E70
E380000E70
1C000001C0
1C000001C0
1C000001C0
E380000E70
E380000E70
E380000E70
1CE00071C0
1CE00071C0
1CE00071C0
039C738E00
039C738E00
00E38C7000
00E38C7000
00E38C7000
001C738000
001C738000
001C738000
ENDCHAR
STARTCHAR 01DC
ENCODING 476
SWIDTH 684 0
DWIDTH 38 0
BBX 31 69 4 0
BITMAP
E3800000
E3800000
1CE00000
1CE00000
1CE00000
039C0000
039C0000
039C0000
00E38000
00E38000
00E38000
001C7000
001C7000
00000000
00000000
00000000
039C7380
039C7380
039C7380
00E00C00
00E00C00
00E00C00
039C7380
039C7380
039C7380
00000000
00000000
E380038E
E380038E
E380038E
1C000070
1C000070
1C000070
E380038E
E380038E
E380038E
1C000070
1C000070
E380038E
E380038E
E380038E
1C000070
1C000070
1C000070
E380038E
E380038E
E380038E
1C000070
1C000070
1C000070
E380038E
E380038E
1C000070
1C000070
1C000070
E380038E
E380038E
E380038E
1C000070
1C000070
1C000070
E39C738E
E39C738E
1CE38C70
1CE38C70
1CE38C70
039C7380
039C7380
039C7380
ENDCHAR
STARTCHAR 0218
ENCODING 536
SWIDTH 684 0
DWIDTH 38 0
BBX 31 59 4 -17
BITMAP
039C7380
039C7380
039C7380
1CE38C70
1CE38C70
1CE38C70
E39C738E
E39C738E
E39C738E
1C000070
1C000070
E380038E
E380038E
E380038E
1C000000
1C000000
1C000000
E39C7380
E39C7380
E39C7380
1CE38C70
1CE38C70
1CE38C70
039C738E
039C738E
00000070
00000070
00000070
E380038E
E380038E
E380038E
1C000070
1C000070
1C000070
E39C738E
E39C738E
1CE38C70
1CE38C70
1CE38C70
039C7380
039C7380
039C7380
00000000
00000000
00000000
001C7000
001C7000
001C7000
00038000
00038000
001C7000
001C7000
001C7000
00038000
00038000
00038000
001C0000
001C0000
001C0000
ENDCHAR
STARTCHAR 0219
ENCODING 537
SWIDTH 684 0
DWIDTH 38 0
BBX 31 59 4 -17
BITMAP
039C7380
039C7380
039C7380
1CE38C70
1CE38C70
1CE38C70
E39C738E
E39C738E
E39C738E
1C000070
1C000070
E380038E
E380038E
E380038E
1C000000
1C000000
1C000000
E39C7380
E39C7380
E39C7380
1CE38C70
1CE38C70
1CE38C70
039C738E
039C738E
00000070
00000070
00000070
E380038E
E380038E
E380038E
1C000070
1C000070
1C000070
E39C738E
E39C738E
1CE38C70
1CE38C70
1CE38C70
039C7380
039C7380
039C7380
00000000
00000000
00000000
001C7000
001C7000
001C7000
00038000
00038000
001C7000
001C7000
001C7000
00038000
00038000
00038000
001C0000
001C0000
001C0000
ENDCHAR
STARTCHAR 021A
ENCODING 538
SWIDTH 684 0
DWIDTH 38 0
BBX 31 59 4 -17
BITMAP
E39C738E
E39C738E
E39C738E
1CE38C70
1CE38C70
1CE38C70
E39C738E
E39C738E
E39C738E
00038000
00038000
001C7000
001C7000
001C7000
00038000
00038000
00038000
001C7000
001C7000
001C7000
00038000
00038000
00038000
001C7000
001C7000
00038000
00038000
00038000
001C7000
001C7000
001C7000
00038000
00038000
00038000
001C7000
001C7000
00038000
00038000
00038000
001C7000
001C7000
001C7000
00000000
00000000
00000000
001C7000
001C7000
001C7000
00038000
00038000
001C7000
001C7000
001C7000
00038000
00038000
00038000
001C0000
001C0000
001C0000
ENDCHAR
STARTCHAR 021B
ENCODING 539
SWIDTH 684 0
DWIDTH 38 0
BBX 31 59 4 -17
BITMAP
E39C738E
E39C738E
E39C738E
1CE38C70
1CE38C70
1CE38C70
E39C738E
E39C738E
E39C738E
00038000
00038000
001C7000
001C7000
001C7000
00038000
00038000
00038000
001C7000
001C7000
001C7000
00038000
00038000
00038000
001C7000
001C7000
00038000
00038000
00038000
001C7000
001C7000
001C7000
00038000
00038000
00038000
001C7000
001C7000
00038000
00038000
00038000
001C7000
001C7000
001C7000
00000000
00000000
00000000
001C7000
001C7000
001C7000
00038000
00038000
001C7000
001C7000
001C7000
00038000
00038000
00038000
001C0000
001C0000
001C0000
ENDCHAR
STARTCHAR 02BC
ENCODING 700
SWIDTH 198 0
DWIDTH 11 0
BBX 9 14 1 28
BITMAP
E380
E380
E380
1C00
1C00
1C00
E380
E380
E380
1C00
1C00
E000
E000
E000
ENDCHAR
STARTCHAR 02C6
ENCODING 710
SWIDTH 396 0
DWIDTH 22 0
BBX 20 14 1 44
BITMAP
039C00
039C00
1C7380
1C7380
1C7380
E39C70
E39C70
E39C70
1C0380
1C0380
1C0380
E39C70
E39C70
E39C70
ENDCHAR
STARTCHAR 02C7
ENCODING 711
SWIDTH 396 0
DWIDTH 22 0
BBX 20 14 1 44
BITMAP
E39C70
E39C70
1C0380
1C0380
1C0380
E39C70
E39C70
E39C70
1C7380
1C7380
1C7380
039C00
039C00
039C00
ENDCHAR
STARTCHAR 02D8
ENCODING 728
SWIDTH 486 0
DWIDTH 27 0
BBX 25 14 1 44
BITMAP
E3807180
E3807180
1C000E00
1C000E00
1C000E00
E39C7180
E39C7180
E39C7180
1C738E00
1C738E00
1C738E00
039C7000
039C7000
039C7000
ENDCHAR
STARTCHAR 02D9
ENCODING 729
SWIDTH 198 0
DWIDTH 11 0
BBX 9 9 1 44
BITMAP
E380
E380
E380
1C00
1C00
1C00
E380
E380
E380
ENDCHAR
STARTCHAR 02DA
ENCODING 730
SWIDTH 486 0
DWIDTH 27 0
BBX 25 25 1 44
BITMAP
039C7000
039C7000
1C738E00
1C738E00
1C738E00
E39C7180
E39C7180
E39C7180
1C000E00
1C000E00
1C000E00
E3807180
E3807180
1C000E00
1C000E00
1C000E00
E39C7180
E39C7180
E39C7180
1C738E00
1C738E00
1C738E00
039C7000
039C7000
039C7000
ENDCHAR
STARTCHAR 02DB
ENCODING 731
SWIDTH 234 0
DWIDTH 13 0
BBX 14 11 4 -11
BITMAP
1C00
1C00
1C00
E39C
E39C
E39C
1CE0
1CE0
039C
039C
039C
ENDCHAR
STARTCHAR 02DC
ENCODING 732
SWIDTH 594 0
DWIDTH 33 0
BBX 31 14 1 44
BITMAP
039C018E
039C018E
1C738070
1C738070
1C738070
E39C718E
E39C718E
E39C718E
1C038E70
1C038E70
1C038E70
E3807180
E3807180
E3807180
ENDCHAR
STARTCHAR 02DD
ENCODING 733
SWIDTH 648 0
DWIDTH 36 0
BBX 37 14 1 44
BITMAP
001C700E38
001C700E38
00738071C0
00738071C0
00738071C0
039C018E00
039C018E00
039C018E00
1C700E7000
1C700E7000
1C700E7000
E380718000
E380718000
E380718000
ENDCHAR
STARTCHAR 0300
ENCODING 768
SWIDTH 0 0
DWIDTH 0 0
BBX 20 14 -24 44
BITMAP
E38000
E38000
1C7000
1C7000
1C7000
039C00
039C00
039C00
007380
007380
007380
001C70
001C70
001C70
ENDCHAR
STARTCHAR 0301
ENCODING 769
SWIDTH 0 0
DWIDTH 0 0
BBX 19 14 -18 44
BITMAP
001C60
001C60
00E380
00E380
00E380
071C00
071C00
071C00
1CE000
1CE000
1CE000
E70000
E70000
E70000
ENDCHAR
STARTCHAR 0302
ENCODING 770
SWIDTH 0 0
DWIDTH 0 0
BBX 20 14 -21 44
BITMAP
039C00
039C00
1CE380
1CE380
1CE380
E39C70
E39C70
E39C70
1C0380
1C0380
1C0380
E39C70
E39C70
E39C70
ENDCHAR
STARTCHAR 0303
ENCODING 771
SWIDTH 0 0
DWIDTH 0 0
BBX 31 14 -32 44
BITMAP
031C038E
031C038E
1CE38070
1CE38070
1CE38070
E31C738E
E31C738E
E31C738E
1C039C70
1C039C70
1C039C70
E3007380
E3007380
E3007380
ENDCHAR
STARTCHAR 0304
ENCODING 772
SWIDTH 0 0
DWIDTH 0 0
BBX 20 9 -21 44
BITMAP
E39C70
E39C70
E39C70
1CE380
1CE380
1CE380
E39C70
E39C70
E39C70
ENDCHAR
STARTCHAR 0306
ENCODING 774
SWIDTH 0 0
DWIDTH 0 0
BBX 25 14 -26 44
BITMAP
C700E380
C700E380
38001C00
38001C00
38001C00
C71CE380
C71CE380
C71CE380
38E71C00
38E71C00
38E71C00
071CE000
071CE000
071CE000
ENDCHAR
STARTCHAR 0307
ENCODING 775
SWIDTH 0 0
DWIDTH 0 0
BBX 9 9 -10 44
BITMAP
E380
E380
E380
1C00
1C00
1C00
E380
E380
E380
ENDCHAR
STARTCHAR 0308
ENCODING 776
SWIDTH 0 0
DWIDTH 0 0
BBX 20 9 -21 44
BITMAP
E39C70
E39C70
E39C70
1C0380
1C0380
1C0380
E39C70
E39C70
E39C70
ENDCHAR
STARTCHAR 0309
ENCODING 777
SWIDTH 0 0
DWIDTH 0 0
BBX 20 20 -21 44
BITMAP
E39C00
E39C00
E39C00
1CE380
1CE380
1CE380
E39C70
E39C70
000380
000380
000380
039C70
039C70
039C70
00E380
00E380
00E380
039C00
039C00
039C00
ENDCHAR
STARTCHAR 030A
ENCODING 778
SWIDTH 0 0
DWIDTH 0 0
BBX 25 25 -26 44
BITMAP
071CE000
071CE000
38E71C00
38E71C00
38E71C00
C71CE380
C71CE380
C71CE380
38001C00
38001C00
38001C00
C700E380
C700E380
38001C00
38001C00
38001C00
C71CE380
C71CE380
C71CE380
38E71C00
38E71C00
38E71C00
071CE000
071CE000
071CE000
ENDCHAR
STARTCHAR 030B
ENCODING 779
SWIDTH 0 0
DWIDTH 0 0
BBX 36 14 -35 44
BITMAP
001C700E30
001C700E30
00638071C0
00638071C0
00638071C0
039C038E00
039C038E00
039C038E00
1C600E7000
1C600E7000
1C600E7000
E380738000
E380738000
E380738000
ENDCHAR
STARTCHAR 030C
ENCODING 780
SWIDTH 0 0
DWIDTH 0 0
BBX 20 14 -21 44
BITMAP
E39C70
E39C70
1C0380
1C0380
1C0380
E39C70
E39C70
E39C70
1CE380
1CE380
1CE380
039C00
039C00
039C00
ENDCHAR
STARTCHAR 031B
ENCODING 795
SWIDTH 0 0
DWIDTH 0 0
BBX 20 14 -21 33
BITMAP
001C70
001C70
001C70
000380
000380
E39C70
E39C70
E39C70
1CE380
1CE380
1CE380
E39C00
E39C00
E39C00
ENDCHAR
STARTCHAR 0323
ENCODING 803
SWIDTH 0 0
DWIDTH 0 0
BBX 9 8 -10 -11
BITMAP
E380
E380
E380
1C00
1C00
E380
E380
E380
ENDCHAR
STARTCHAR 0326
ENCODING 806
SWIDTH 0 0
DWIDTH 0 0
BBX 9 14 -10 -17
BITMAP
E380
E380
E380
1C00
1C00
E380
E380
E380
1C00
1C00
1C00
E000
E000
E000
ENDCHAR
STARTCHAR 0327
ENCODING 807
SWIDTH 0 0
DWIDTH 0 0
BBX 14 11 -15 -11
BITMAP
00E0
00E0
00E0
E71C
E71C
E71C
38E0
38E0
E700
E700
E700
ENDCHAR
STARTCHAR 0328
ENCODING 808
SWIDTH 0 0
DWIDTH 0 0
BBX 14 11 -10 -11
BITMAP
1C00
1C00
1C00
E39C
E39C
E39C
1C60
1C60
039C
039C
039C
ENDCHAR
STARTCHAR 0335
ENCODING 821
SWIDTH 0 0
DWIDTH 0 0
BBX 20 8 -24 17
BITMAP
E39C70
E39C70
E39C70
1C7380
1C7380
1C7380
E39C70
E39C70
ENDCHAR
STARTCHAR 0336
ENCODING 822
SWIDTH 0 0
DWIDTH 0 0
BBX 48 8 -49 28
BITMAP
E39C718E39C7
E39C718E39C7
E39C718E39C7
1C738E71CE38
1C738E71CE38
E39C718E39C7
E39C718E39C7
E39C718E39C7
ENDCHAR
STARTCHAR 0337
ENCODING 823
SWIDTH 0 0
DWIDTH 0 0
BBX 20 8 -24 17
BITMAP
E39C70
E39C70
E39C70
1C7380
1C7380
1C7380
E39C70
E39C70
ENDCHAR
STARTCHAR 0338
ENCODING 824
SWIDTH 0 0
DWIDTH 0 0
BBX 20 42 -21 0
BITMAP
001C70
001C70
001C70
000380
000380
000380
001C70
001C70
001C70
00E380
00E380
001C00
001C00
001C00
00E380
00E380
00E380
039C00
039C00
039C00
00E000
00E000
00E000
039C00
039C00
1CE000
1CE000
1CE000
038000
038000
038000
1CE000
1CE000
1CE000
E38000
E38000
1C0000
1C0000
1C0000
E38000
E38000
E38000
ENDCHAR
STARTCHAR 0401
ENCODING 1025
SWIDTH 684 0
DWIDTH 38 0
BBX 31 53 4 0
BITMAP
039C7380
039C7380
039C7380
00E00C00
00E00C00
00E00C00
039C7380
039C7380
039C7380
00000000
00000000
001C738E
001C738E
001C738E
00E38C70
00E38C70
00E38C70
039C738E
039C738E
039C738E
1CE00000
1CE00000
E3800000
E3800000
E3800000
1C000000
1C000000
1C000000
E39C7380
E39C7380
E39C7380
1CE38C00
1CE38C00
1CE38C00
E39C7380
E39C7380
1C000000
1C000000
1C000000
E3800000
E3800000
E3800000
1CE00000
1CE00000
1CE00000
039C738E
039C738E
00E38C70
00E38C70
00E38C70
001C738E
001C738E
001C738E
ENDCHAR
STARTCHAR 0410
ENCODING 1040
SWIDTH 684 0
DWIDTH 38 0
BBX 31 42 4 0
BITMAP
001C7000
001C7000
001C7000
00E38C00
00E38C00
00E38C00
039C7380
039C7380
039C7380
1CE00C70
1CE00C70
E380038E
E380038E
E380038E
1C000070
1C000070
1C000070
E380038E
E380038E
E380038E
1C000070
1C000070
1C000070
E39C738E
E39C738E
1CE38C70
1CE38C70
1CE38C70
E39C738E
E39C738E
E39C738E
1C000070
1C000070
1C000070
E380038E
E380038E
1C000070
1C000070
1C000070
E380038E
E380038E
E380038E
ENDCHAR
STARTCHAR 0411
ENCODING 1041
SWIDTH 684 0
DWIDTH 38 0
BBX 31 42 4 0
BITMAP
E39C738E
E39C738E
E39C738E
1CE38C70
1CE38C70
1CE38C70
E39C738E
E39C738E
E39C738E
1C000000
1C000000
E3800000
E3800000
E3800000
1C000000
1C000000
1C000000
E39C7380
E39C7380
E39C7380
1CE38C70
1CE38C70
1CE38C70
E39C738E
E39C738E
1C000070
1C000070
1C000070
E380038E
E380038E
E380038E
1C000070
1C000070
1C000070
E39C738E
E39C738E
1CE38C70
1CE38C70
1CE38C70
039C7380
039C7380
039C7380
ENDCHAR
STARTCHAR 0412
ENCODING 1042
SWIDTH 684 0
DWIDTH 38 0
BBX 31 42 4 0
BITMAP
E39C7380
E39C7380
E39C7380
1CE38C70
1CE38C70
1CE38C70
E39C738E
E39C738E
E39C738E
1C000070
1C000070
E380038E
E380038E
E380038E
1C000C70
1C000C70
1C000C70
E39C7380
E39C7380
E39C7380
1CE38C70
1CE38C70
1CE38C70
E39C738E
E39C738E
1C000070
1C000070
1C000070
E380038E
E380038E
E380038E
1C000070
1C000070
1C000070
E39C738E
E39C738E
1CE38C70
1CE38C70
1CE38C70
E39C7380
E39C7380
E39C7380
ENDCHAR
STARTCHAR 0413
ENCODING 1043
SWIDTH 684 0
DWIDTH 38 0
BBX 31 42 4 0
BITMAP
039C738E
039C738E
039C738E
1CE38C70
1CE38C70
1CE38C70
E39C738E
E39C738E
E39C738E
1C000000
1C000000
E3800000
E3800000
E3800000
1C000000
1C000000
1C000000
E3800000
E3800000
E3800000
1C000000
1C000000
1C000000
E3800000
E3800000
1C000000
1C000000
1C000000
E3800000
E3800000
E3800000
1C000000
1C000000
1C000000
E3800000
E3800000
1C000000
1C000000
1C000000
E3800000
E3800000
E3800000
ENDCHAR
STARTCHAR 0414
ENCODING 1044
SWIDTH 792 0
DWIDTH 44 0
BBX 42 48 1 -6
BITMAP
001C718E3800
001C718E3800
001C718E3800
00738E71C000
00738E71C000
00738E71C000
039C718E3800
039C718E3800
039C718E3800
00700001C000
00700001C000
039C000E3800
039C000E3800
039C000E3800
00700001C000
00700001C000
00700001C000
039C000E3800
039C000E3800
039C000E3800
00700001C000
00700001C000
00700001C000
039C000E3800
039C000E3800
00700001C000
00700001C000
00700001C000
039C000E3800
039C000E3800
039C000E3800
00700001C000
00700001C000
00700001C000
039C718E3800
039C718E3800
1C738E71CE00
1C738E71CE00
1C738E71CE00
E39C718E39C0
E39C718E39C0
E39C718E39C0
1C0000000E00
1C0000000E00
1C0000000E00
E380000039C0
E380000039C0
E380000039C0
ENDCHAR
STARTCHAR 0415
ENCODING 1045
SWIDTH 684 0
DWIDTH 38 0
BBX 31 42 4 0
BITMAP
001C738E
001C738E
001C738E
00E38C70
00E38C70
00E38C70
039C738E
039C738E
039C738E
1CE00000
1CE00000
E3800000
E3800000
E3800000
1C000000
1C000000
1C000000
E39C7380
E39C7380
E39C7380
1CE38C00
1CE38C00
1CE38C00
E39C7380
E39C7380
1C000000
1C000000
1C000000
E3800000
E3800000
E3800000
1CE00000
1CE00000
1CE00000
039C738E
039C738E
00E38C70
00E38C70
00E38C70
001C738E
001C738E
001C738E
ENDCHAR
STARTCHAR 0416
ENCODING 1046
SWIDTH 1098 0
DWIDTH 61 0
BBX 53 42 4 0
BITMAP
E380038E000638
E380038E000638
E380038E000638
1C0000700001C0
1C0000700001C0
1C0000700001C0
E380038E000638
E380038E000638
E380038E000638
1CE000700039C0
1CE000700039C0
039C038E01C600
039C038E01C600
039C038E01C600
00E380700E3800
00E380700E3800
00E380700E3800
001C738E71C000
001C738E71C000
001C738E71C000
00038C71CE0000
00038C71CE0000
00038C71CE0000
001C738E71C000
001C738E71C000
00E380700E3800
00E380700E3800
00E380700E3800
039C038E01C600
039C038E01C600
039C038E01C600
1CE000700039C0
1CE000700039C0
1CE000700039C0
E380038E000638
E380038E000638
1C0000700001C0
1C0000700001C0
1C0000700001C0
E380038E000638
E380038E000638
E380038E000638
ENDCHAR
STARTCHAR 0417
ENCODING 1047
SWIDTH 792 0
DWIDTH 44 0
BBX 36 42 4 0
BITMAP
001C738000
001C738000
001C738000
00E38C7000
00E38C7000
00E38C7000
039C738E00
039C738E00
039C738E00
1CE00071C0
1CE00071C0
E380000E70
E380000E70
E380000E70
00000071C0
00000071C0
00000071C0
001C738E00
001C738E00
001C738E00
00038C7000
00038C7000
00038C7000
001C738E00
001C738E00
00000071C0
00000071C0
00000071C0
E380000E70
E380000E70
E380000E70
1CE00071C0
1CE00071C0
1CE00071C0
039C738E00
039C738E00
00E38C7000
00E38C7000
00E38C7000
001C738000
001C738000
001C738000
ENDCHAR
STARTCHAR 0418
ENCODING 1048
SWIDTH 792 0
DWIDTH 44 0
BBX 36 42 4 0
BITMAP
E380000E70
E380000E70
E380000E70
1C000001C0
1C000001C0
1C000001C0
E380000E70
E380000E70
E380000E70
1C000001C0
1C000001C0
E380000E70
E380000E70
E380000E70
1C000071C0
1C000071C0
1C000071C0
E380038E70
E380038E70
E380038E70
1C000C71C0
1C000C71C0
1C000C71C0
E380738E70
E380738E70
1C038C01C0
1C038C01C0
1C038C01C0
E39C700E70
E39C700E70
E39C700E70
1CE38001C0
1CE38001C0
1CE38001C0
E39C000E70
E39C000E70
1CE00001C0
1CE00001C0
1CE00001C0
E380000E70
E380000E70
E380000E70
ENDCHAR
STARTCHAR 0419
ENCODING 1049
SWIDTH 792 0
DWIDTH 44 0
BBX 36 58 4 0
BITMAP
039C038E00
039C038E00
00E0007000
00E0007000
00E0007000
039C738E00
039C738E00
039C738E00
00E38C7000
00E38C7000
00E38C7000
001C738000
001C738000
001C738000
0000000000
0000000000
E380000E70
E380000E70
E380000E70
1C000001C0
1C000001C0
1C000001C0
E380000E70
E380000E70
E380000E70
1C000001C0
1C000001C0
E380000E70
E380000E70
E380000E70
1C000071C0
1C000071C0
1C000071C0
E380038E70
E380038E70
E380038E70
1C000C71C0
1C000C71C0
1C000C71C0
E380738E70
E380738E70
1C038C01C0
1C038C01C0
1C038C01C0
E39C700E70
E39C700E70
E39C700E70
1CE38001C0
1CE38001C0
1CE38001C0
E39C000E70
E39C000E70
1CE00001C0
1CE00001C0
1CE00001C0
E380000E70
E380000E70
E380000E70
ENDCHAR
STARTCHAR 041A
ENCODING 1050
SWIDTH 684 0
DWIDTH 38 0
BBX 31 42 4 0
BITMAP
E380038E
E380038E
E380038E
1C000070
1C000070
1C000070
E380038E
E380038E
E380038E
1C000C70
1C000C70
E3807380
E3807380
E3807380
1C038C00
1C038C00
1C038C00
E39C7000
E39C7000
E39C7000
1CE38000
1CE38000
1CE38000
E39C7000
E39C7000
1C038C00
1C038C00
1C038C00
E3807380
E3807380
E3807380
1C000C70
1C000C70
1C000C70
E380038E
E380038E
1C000070
1C000070
1C000070
E380038E
E380038E
E380038E
ENDCHAR
STARTCHAR 041B
ENCODING 1051
SWIDTH 792 0
DWIDTH 44 0
BBX 36 42 4 0
BITMAP
001C738E00
001C738E00
001C738E00
00E38C71C0
00E38C71C0
00E38C71C0
039C738E70
039C738E70
039C738E70
00E00001C0
00E00001C0
039C000E70
039C000E70
039C000E70
00E00001C0
00E00001C0
00E00001C0
039C000E70
039C000E70
039C000E70
00E00001C0
00E00001C0
00E00001C0
039C000E70
039C000E70
00E00001C0
00E00001C0
00E00001C0
039C000E70
039C000E70
039C000E70
00E00001C0
00E00001C0
00E00001C0
E39C000E70
E39C000E70
1CE00001C0
1CE00001C0
1CE00001C0
E380000E70
E380000E70
E380000E70
ENDCHAR
STARTCHAR 041C
ENCODING 1052
SWIDTH 990 0
DWIDTH 55 0
BBX 47 42 4 0
BITMAP
E380000001C6
E380000001C6
E380000001C6
1CE000000E38
1CE000000E38
1CE000000E38
E39C000071C6
E39C000071C6
E39C000071C6
1CE38001CE38
1CE38001CE38
E39C700E71C6
E39C700E71C6
E39C700E71C6
1C038C71C038
1C038C71C038
1C038C71C038
E380738E01C6
E380738E01C6
E380738E01C6
1C000C700038
1C000C700038
1C000C700038
E380038001C6
E380038001C6
1C0000000038
1C0000000038
1C0000000038
E380000001C6
E380000001C6
E380000001C6
1C0000000038
1C0000000038
1C0000000038
E380000001C6
E380000001C6
1C0000000038
1C0000000038
1C0000000038
E380000001C6
E380000001C6
E380000001C6
ENDCHAR
STARTCHAR 041D
ENCODING 1053
SWIDTH 792 0
DWIDTH 44 0
BBX 36 42 4 0
BITMAP
E380000E70
E380000E70
E380000E70
1C000001C0
1C000001C0
1C000001C0
E380000E70
E380000E70
E380000E70
1C000001C0
1C000001C0
E380000E70
E380000E70
E380000E70
1C000001C0
1C000001C0
1C000001C0
E39C738E70
E39C738E70
E39C738E70
1CE38C71C0
1CE38C71C0
1CE38C71C0
E39C738E70
E39C738E70
1C000001C0
1C000001C0
1C000001C0
E380000E70
E380000E70
E380000E70
1C000001C0
1C000001C0
1C000001C0
E380000E70
E380000E70
1C000001C0
1C000001C0
1C000001C0
E380000E70
E380000E70
E380000E70
ENDCHAR
STARTCHAR 041E
ENCODING 1054
SWIDTH 792 0
DWIDTH 44 0
BBX 36 42 4 0
BITMAP
001C738000
001C738000
001C738000
00E38C7000
00E38C7000
00E38C7000
039C738E00
039C738E00
039C738E00
1CE00071C0
1CE00071C0
E380000E70
E380000E70
E380000E70
1C000001C0
1C000001C0
1C000001C0
E380000E70
E380000E70
E380000E70
1C000001C0
1C000001C0
1C000001C0
E380000E70
E380000E70
1C000001C0
1C000001C0
1C000001C0
E380000E70
E380000E70
E380000E70
1CE00071C0
1CE00071C0
1CE00071C0
039C738E00
039C738E00
00E38C7000
00E38C7000
00E38C7000
001C738000
001C738000
001C738000
ENDCHAR
STARTCHAR 041F
ENCODING 1055
SWIDTH 792 0
DWIDTH 44 0
BBX 36 42 4 0
BITMAP
039C738E00
039C738E00
039C738E00
1CE38C71C0
1CE38C71C0
1CE38C71C0
E39C738E70
E39C738E70
E39C738E70
1C000001C0
1C000001C0
E380000E70
E380000E70
E380000E70
1C000001C0
1C000001C0
1C000001C0
E380000E70
E380000E70
E380000E70
1C000001C0
1C000001C0
1C000001C0
E380000E70
E380000E70
1C000001C0
1C000001C0
1C000001C0
E380000E70
E380000E70
E380000E70
1C000001C0
1C000001C0
1C000001C0
E380000E70
E380000E70
1C000001C0
1C000001C0
1C000001C0
E380000E70
E380000E70
E380000E70
ENDCHAR
STARTCHAR 0420
ENCODING 1056
SWIDTH 684 0
DWIDTH 38 0
BBX 31 42 4 0
BITMAP
E39C7000
E39C7000
E39C7000
1CE38C00
1CE38C00
1CE38C00
E39C7380
E39C7380
E39C7380
1C000C70
1C000C70
E380038E
E380038E
E380038E
1C000070
1C000070
1C000070
E380038E
E380038E
E380038E
1C000070
1C000070
1C000070
E380038E
E380038E
1C000C70
1C000C70
1C000C70
E39C7380
E39C7380
E39C7380
1CE38C00
1CE38C00
1CE38C00
E39C7000
E39C7000
1C000000
1C000000
1C000000
E3800000
E3800000
E3800000
ENDCHAR
STARTCHAR 0421
ENCODING 1057
SWIDTH 792 0
DWIDTH 44 0
BBX 36 42 4 0
BITMAP
001C738000
001C738000
001C738000
00E38C7000
00E38C7000
00E38C7000
039C738E00
039C738E00
039C738E00
1CE00071C0
1CE00071C0
E380000E70
E380000E70
E380000E70
1C000001C0
1C000001C0
1C000001C0
E380000E70
E380000E70
E380000E70
1C00000000
1C00000000
1C00000000
E380000000
E380000000
1C00000000
1C00000000
1C00000000
E380000E70
E380000E70
E380000E70
1CE00071C0
1CE00071C0
1CE00071C0
039C738E00
039C738E00
00E38C7000
00E38C7000
00E38C7000
001C738000
001C738000
001C738000
ENDCHAR
STARTCHAR 0422
ENCODING 1058
SWIDTH 684 0
DWIDTH 38 0
BBX 31 42 4 0
BITMAP
E39C738E
E39C738E
E39C738E
1CE38C70
1CE38C70
1CE38C70
E39C738E
E39C738E
E39C738E
00038000
00038000
001C7000
001C7000
001C7000
00038000
00038000
00038000
001C7000
001C7000
001C7000
00038000
00038000
00038000
001C7000
001C7000
00038000
00038000
00038000
001C7000
001C7000
001C7000
00038000
00038000
00038000
001C7000
001C7000
00038000
00038000
00038000
001C7000
001C7000
001C7000
ENDCHAR
STARTCHAR 0423
ENCODING 1059
SWIDTH 684 0
DWIDTH 38 0
BBX 31 42 4 0
BITMAP
E380038E
E380038E
E380038E
1C000070
1C000070
1C000070
E380038E
E380038E
E380038E
1C000070
1C000070
E380038E
E380038E
E380038E
1CE00070
1CE00070
1CE00070
039C738E
039C738E
039C738E
00E38C70
00E38C70
00E38C70
001C738E
001C738E
00000070
00000070
00000070
0000038E
0000038E
0000038E
00000070
00000070
00000070
E39C738E
E39C738E
1CE38C70
1CE38C70
1CE38C70
E39C7380
E39C7380
E39C7380
ENDCHAR
STARTCHAR 0424
ENCODING 1060
SWIDTH 900 0
DWIDTH 50 0
BBX 42 53 4 -6
BITMAP
000073800000
000073800000
000073800000
00000C000000
00000C000000
001C738E0000
001C738E0000
001C738E0000
00E38C71C000
00E38C71C000
00E38C71C000
039C738E7000
039C738E7000
039C738E7000
1CE00C01CE00
1CE00C01CE00
E380738071C0
E380738071C0
E380738071C0
1C000C000E00
1C000C000E00
1C000C000E00
E380738071C0
E380738071C0
E380738071C0
1C000C000E00
1C000C000E00
1C000C000E00
E380738071C0
E380738071C0
1C000C000E00
1C000C000E00
1C000C000E00
E380738071C0
E380738071C0
E380738071C0
1CE00C01CE00
1CE00C01CE00
1CE00C01CE00
039C738E7000
039C738E7000
00E38C71C000
00E38C71C000
00E38C71C000
001C738E0000
001C738E0000
001C738E0000
00000C000000
00000C000000
00000C000000
000073800000
000073800000
000073800000
ENDCHAR
STARTCHAR 0425
ENCODING 1061
SWIDTH 792 0
DWIDTH 44 0
BBX 36 42 4 0
BITMAP
E380000E70
E380000E70
E380000E70
1C000001C0
1C000001C0
1C000001C0
E380000E70
E380000E70
E380000E70
1C000001C0
1C000001C0
E380000E70
E380000E70
E380000E70
1CE00071C0
1CE00071C0
1CE00071C0
039C738E00
039C738E00
039C738E00
00E38C7000
00E38C7000
00E38C7000
039C738E00
039C738E00
1CE00071C0
1CE00071C0
1CE00071C0
E380000E70
E380000E70
E380000E70
1C000001C0
1C000001C0
1C000001C0
E380000E70
E380000E70
1C000001C0
1C000001C0
1C000001C0
E380000E70
E380000E70
E380000E70
ENDCHAR
STARTCHAR 0426
ENCODING 1062
SWIDTH 846 0
DWIDTH 47 0
BBX 42 48 4 -6
BITMAP
E380000E7000
E380000E7000
E380000E7000
1C000001C000
1C000001C000
1C000001C000
E380000E7000
E380000E7000
E380000E7000
1C000001C000
1C000001C000
E380000E7000
E380000E7000
E380000E7000
1C000001C000
1C000001C000
1C000001C000
E380000E7000
E380000E7000
E380000E7000
1C000001C000
1C000001C000
1C000001C000
E380000E7000
E380000E7000
1C000001C000
1C000001C000
1C000001C000
E380000E7000
E380000E7000
E380000E7000
1C000001C000
1C000001C000
1C000001C000
E39C738E7000
E39C738E7000
1CE38C71CE00
1CE38C71CE00
1CE38C71CE00
039C738E71C0
039C738E71C0
039C738E71C0
000000000E00
000000000E00
000000000E00
0000000071C0
0000000071C0
0000000071C0
ENDCHAR
STARTCHAR 0427
ENCODING 1063
SWIDTH 684 0
DWIDTH 38 0
BBX 31 42 4 0
BITMAP
E380038E
E380038E
E380038E
1C000070
1C000070
1C000070
E380038E
E380038E
E380038E
1C000070
1C000070
E380038E
E380038E
E380038E
1CE00070
1CE00070
1CE00070
039C738E
039C738E
039C738E
00E38C70
00E38C70
00E38C70
001C738E
001C738E
00000070
00000070
00000070
0000038E
0000038E
0000038E
00000070
00000070
00000070
0000038E
0000038E
00000070
00000070
00000070
0000038E
0000038E
0000038E
ENDCHAR
STARTCHAR 0428
ENCODING 1064
SWIDTH 1098 0
DWIDTH 61 0
BBX 53 42 4 0
BITMAP
E380038E000638
E380038E000638
E380038E000638
1C0000700001C0
1C0000700001C0
1C0000700001C0
E380038E000638
E380038E000638
E380038E000638
1C0000700001C0
1C0000700001C0
E380038E000638
E380038E000638
E380038E000638
1C0000700001C0
1C0000700001C0
1C0000700001C0
E380038E000638
E380038E000638
E380038E000638
1C0000700001C0
1C0000700001C0
1C0000700001C0
E380038E000638
E380038E000638
1C0000700001C0
1C0000700001C0
1C0000700001C0
E380038E000638
E380038E000638
E380038E000638
1C0000700001C0
1C0000700001C0
1C0000700001C0
E39C738E71C638
E39C738E71C638
1CE38C71CE39C0
1CE38C71CE39C0
1CE38C71CE39C0
039C738E71C600
039C738E71C600
039C738E71C600
ENDCHAR
STARTCHAR 0429
ENCODING 1065
SWIDTH 1134 0
DWIDTH 63 0
BBX 59 48 4 -6
BITMAP
E380038E00063800
E380038E00063800
E380038E00063800
1C0000700001C000
1C0000700001C000
1C0000700001C000
E380038E00063800
E380038E00063800
E380038E00063800
1C0000700001C000
1C0000700001C000
E380038E00063800
E380038E00063800
E380038E00063800
1C0000700001C000
1C0000700001C000
1C0000700001C000
E380038E00063800
E380038E00063800
E380038E00063800
1C0000700001C000
1C0000700001C000
1C0000700001C000
E380038E00063800
E380038E00063800
1C0000700001C000
1C0000700001C000
1C0000700001C000
E380038E00063800
E380038E00063800
E380038E00063800
1C0000700001C000
1C0000700001C000
1C0000700001C000
E39C738E71C63800
E39C738E71C63800
1CE38C71CE39C700
1CE38C71CE39C700
1CE38C71CE39C700
039C738E71C638E0
039C738E71C638E0
039C738E71C638E0
0000000000000700
0000000000000700
0000000000000700
00000000000038E0
00000000000038E0
00000000000038E0
ENDCHAR
STARTCHAR 042A
ENCODING 1066
SWIDTH 792 0
DWIDTH 44 0
BBX 36 42 4 0
BITMAP
E39C000000
E39C000000
E39C000000
1CE0000000
1CE0000000
1CE0000000
E39C000000
E39C000000
E39C000000
00E0000000
00E0000000
039C000000
039C000000
039C000000
00E0000000
00E0000000
00E0000000
039C738E00
039C738E00
039C738E00
00E38C71C0
00E38C71C0
00E38C71C0
039C738E70
039C738E70
00E00001C0
00E00001C0
00E00001C0
039C000E70
039C000E70
039C000E70
00E00001C0
00E00001C0
00E00001C0
039C738E70
039C738E70
00E38C71C0
00E38C71C0
00E38C71C0
001C738E00
001C738E00
001C738E00
ENDCHAR
STARTCHAR 042B
ENCODING 1067
SWIDTH 936 0
DWIDTH 52 0
BBX 45 42 4 0
BITMAP
E38000000E38
E38000000E38
E38000000E38
1C00000001C0
1C00000001C0
1C00000001C0
E38000000E38
E38000000E38
E38000000E38
1C00000001C0
1C00000001C0
E38000000E38
E38000000E38
E38000000E38
1C00000001C0
1C00000001C0
1C00000001C0
E39C73800E38
E39C73800E38
E39C73800E38
1CE38C7001C0
1CE38C7001C0
1CE38C7001C0
E39C738E0E38
E39C738E0E38
1C00007001C0
1C00007001C0
1C00007001C0
E380038E0E38
E380038E0E38
E380038E0E38
1C00007001C0
1C00007001C0
1C00007001C0
E39C738E0E38
E39C738E0E38
1CE38C7001C0
1CE38C7001C0
1CE38C7001C0
039C73800E38
039C73800E38
039C73800E38
ENDCHAR
STARTCHAR 042C
ENCODING 1068
SWIDTH 684 0
DWIDTH 38 0
BBX 31 42 4 0
BITMAP
E3800000
E3800000
E3800000
1C000000
1C000000
1C000000
E3800000
E3800000
E3800000
1C000000
1C000000
E3800000
E3800000
E3800000
1C000000
1C000000
1C000000
E39C7380
E39C7380
E39C7380
1CE38C70
1CE38C70
1CE38C70
E39C738E
E39C738E
1C000070
1C000070
1C000070
E380038E
E380038E
E380038E
1C000070
1C000070
1C000070
E39C738E
E39C738E
1CE38C70
1CE38C70
1CE38C70
039C7380
039C7380
039C7380
ENDCHAR
STARTCHAR 042D
ENCODING 1069
SWIDTH 792 0
DWIDTH 44 0
BBX 36 42 4 0
BITMAP
001C738000
001C738000
001C738000
00E38C7000
00E38C7000
00E38C7000
039C738E00
039C738E00
039C738E00
1CE00071C0
1CE00071C0
E380000E70
E380000E70
E380000E70
00000001C0
00000001C0
00000001C0
001C738E70
001C738E70
001C738E70
00038C71C0
00038C71C0
00038C71C0
001C738E70
001C738E70
00000001C0
00000001C0
00000001C0
E380000E70
E380000E70
E380000E70
1CE00071C0
1CE00071C0
1CE00071C0
039C738E00
039C738E00
00E38C7000
00E38C7000
00E38C7000
001C738000
001C738000
001C738000
ENDCHAR
STARTCHAR 042E
ENCODING 1070
SWIDTH 1098 0
DWIDTH 61 0
BBX 53 42 4 0
BITMAP
E380000E71C000
E380000E71C000
E380000E71C000
1C000071CE3800
1C000071CE3800
1C000071CE3800
E380038E71C600
E380038E71C600
E380038E71C600
1C000C700039C0
1C000C700039C0
E3807380000638
E3807380000638
E3807380000638
1C000C000001C0
1C000C000001C0
1C000C000001C0
E39C7380000638
E39C7380000638
E39C7380000638
1CE38C000001C0
1CE38C000001C0
1CE38C000001C0
E39C7380000638
E39C7380000638
1C000C000001C0
1C000C000001C0
1C000C000001C0
E3807380000638
E3807380000638
E3807380000638
1C000C700039C0
1C000C700039C0
1C000C700039C0
E380038E71C600
E380038E71C600
1C000071CE3800
1C000071CE3800
1C000071CE3800
E380000E71C000
E380000E71C000
E380000E71C000
ENDCHAR
STARTCHAR 042F
ENCODING 1071
SWIDTH 684 0
DWIDTH 38 0
BBX 31 42 4 0
BITMAP
001C738E
001C738E
001C738E
00E38C70
00E38C70
00E38C70
039C738E
039C738E
039C738E
1CE00070
1CE00070
E380038E
E380038E
E380038E
1C000070
1C000070
1C000070
E380038E
E380038E
E380038E
1C000070
1C000070
1C000070
E380038E
E380038E
1CE00070
1CE00070
1CE00070
039C738E
039C738E
039C738E
00E38C70
00E38C70
00E38C70
039C738E
039C738E
1CE00070
1CE00070
1CE00070
E380038E
E380038E
E380038E
ENDCHAR
STARTCHAR 0430
ENCODING 1072
SWIDTH 684 0
DWIDTH 38 0
BBX 31 42 4 0
BITMAP
039C7380
039C7380
039C7380
1CE38C70
1CE38C70
1CE38C70
E39C738E
E39C738E
E39C738E
1C000070
1C000070
E380038E
E380038E
E380038E
1C000070
1C000070
1C000070
E380038E
E380038E
E380038E
1C000070
1C000070
1C000070
E39C738E
E39C738E
1CE38C70
1CE38C70
1CE38C70
E39C738E
E39C738E
E39C738E
1C000070
1C000070
1C000070
E380038E
E380038E
1C000070
1C000070
1C000070
E380038E
E380038E
E380038E
ENDCHAR
STARTCHAR 0431
ENCODING 1073
SWIDTH 684 0
DWIDTH 38 0
BBX 31 42 4 0
BITMAP
E39C738E
E39C738E
E39C738E
1CE38C70
1CE38C70
1CE38C70
E39C738E
E39C738E
E39C738E
1C000000
1C000000
E3800000
E3800000
E3800000
1C000000
1C000000
1C000000
E39C7380
E39C7380
E39C7380
1CE38C70
1CE38C70
1CE38C70
E39C738E
E39C738E
1C000070
1C000070
1C000070
E380038E
E380038E
E380038E
1C000070
1C000070
1C000070
E39C738E
E39C738E
1CE38C70
1CE38C70
1CE38C70
039C7380
039C7380
039C7380
ENDCHAR
STARTCHAR 0432
ENCODING 1074
SWIDTH 684 0
DWIDTH 38 0
BBX 31 42 4 0
BITMAP
E39C7380
E39C7380
E39C7380
1CE38C70
1CE38C70
1CE38C70
E39C738E
E39C738E
E39C738E
1C000070
1C000070
E380038E
E380038E
E380038E
1C000C70
1C000C70
1C000C70
E39C7380
E39C7380
E39C7380
1CE38C00
1CE38C00
1CE38C00
E39C7380
E39C7380
1C000C70
1C000C70
1C000C70
E380038E
E380038E
E380038E
1C000070
1C000070
1C000070
E39C738E
E39C738E
1CE38C70
1CE38C70
1CE38C70
E39C7380
E39C7380
E39C7380
ENDCHAR
STARTCHAR 0433
ENCODING 1075
SWIDTH 594 0
DWIDTH 33 0
BBX 25 42 4 0
BITMAP
039C7380
039C7380
039C7380
1CE38C00
1CE38C00
1CE38C00
E39C7380
E39C7380
E39C7380
1C000000
1C000000
E3800000
E3800000
E3800000
1C000000
1C000000
1C000000
E3800000
E3800000
E3800000
1C000000
1C000000
1C000000
E3800000
E3800000
1C000000
1C000000
1C000000
E3800000
E3800000
E3800000
1C000000
1C000000
1C000000
E3800000
E3800000
1C000000
1C000000
1C000000
E3800000
E3800000
E3800000
ENDCHAR
STARTCHAR 0434
ENCODING 1076
SWIDTH 792 0
DWIDTH 44 0
BBX 42 48 1 -6
BITMAP
001C718E3800
001C718E3800
001C718E3800
00738E71C000
00738E71C000
00738E71C000
039C718E3800
039C718E3800
039C718E3800
00700001C000
00700001C000
039C000E3800
039C000E3800
039C000E3800
00700001C000
00700001C000
00700001C000
039C000E3800
039C000E3800
039C000E3800
00700001C000
00700001C000
00700001C000
039C000E3800
039C000E3800
00700001C000
00700001C000
00700001C000
039C000E3800
039C000E3800
039C000E3800
00700001C000
00700001C000
00700001C000
039C718E3800
039C718E3800
1C738E71CE00
1C738E71CE00
1C738E71CE00
E39C718E39C0
E39C718E39C0
E39C718E39C0
1C0000000E00
1C0000000E00
1C0000000E00
E380000039C0
E380000039C0
E380000039C0
ENDCHAR
STARTCHAR 0435
ENCODING 1077
SWIDTH 684 0
DWIDTH 38 0
BBX 31 42 4 0
BITMAP
039C738E
039C738E
039C738E
1CE38C70
1CE38C70
1CE38C70
E39C738E
E39C738E
E39C738E
1C000000
1C000000
E3800000
E3800000
E3800000
1C000000
1C000000
1C000000
E39C7380
E39C7380
E39C7380
1CE38C00
1CE38C00
1CE38C00
E39C7380
E39C7380
1C000000
1C000000
1C000000
E3800000
E3800000
E3800000
1C000000
1C000000
1C000000
E39C738E
E39C738E
1CE38C70
1CE38C70
1CE38C70
039C738E
039C738E
039C738E
ENDCHAR
STARTCHAR 0436
ENCODING 1078
SWIDTH 1098 0
DWIDTH 61 0
BBX 53 42 4 0
BITMAP
E380038E000638
E380038E000638
E380038E000638
1C0000700001C0
1C0000700001C0
1C0000700001C0
E380038E000638
E380038E000638
E380038E000638
1C0000700001C0
1C0000700001C0
E380038E000638
E380038E000638
E380038E000638
1CE000700039C0
1CE000700039C0
1CE000700039C0
039C738E71C600
039C738E71C600
039C738E71C600
00E38C71CE3800
00E38C71CE3800
00E38C71CE3800
039C738E71C600
039C738E71C600
1CE000700039C0
1CE000700039C0
1CE000700039C0
E380038E000638
E380038E000638
E380038E000638
1C0000700001C0
1C0000700001C0
1C0000700001C0
E380038E000638
E380038E000638
1C0000700001C0
1C0000700001C0
1C0000700001C0
E380038E000638
E380038E000638
E380038E000638
ENDCHAR
STARTCHAR 0437
ENCODING 1079
SWIDTH 684 0
DWIDTH 38 0
BBX 31 42 4 0
BITMAP
039C7380
039C7380
039C7380
1CE38C70
1CE38C70
1CE38C70
E39C738E
E39C738E
E39C738E
1C000070
1C000070
E380038E
E380038E
E380038E
00000C70
00000C70
00000C70
001C7380
001C7380
001C7380
00038C00
00038C00
00038C00
001C7380
001C7380
00000C70
00000C70
00000C70
E380038E
E380038E
E380038E
1C000070
1C000070
1C000070
E39C738E
E39C738E
1CE38C70
1CE38C70
1CE38C70
039C7380
039C7380
039C7380
ENDCHAR
STARTCHAR 0438
ENCODING 1080
SWIDTH 684 0
DWIDTH 38 0
BBX 31 42 4 0
BITMAP
E380038E
E380038E
E380038E
1C000070
1C000070
1C000070
E380038E
E380038E
E380038E
1C000070
1C000070
E380038E
E380038E
E380038E
1C000070
1C000070
1C000070
E380038E
E380038E
E380038E
1C000C70
1C000C70
1C000C70
E380738E
E380738E
1C038C70
1C038C70
1C038C70
E39C738E
E39C738E
E39C738E
1CE38070
1CE38070
1CE38070
E39C038E
E39C038E
1CE00070
1CE00070
1CE00070
E380038E
E380038E
E380038E
ENDCHAR
STARTCHAR 0439
ENCODING 1081
SWIDTH 684 0
DWIDTH 38 0
BBX 31 58 4 0
BITMAP
1CE00C70
1CE00C70
03800380
03800380
03800380
1CE38C70
1CE38C70
1CE38C70
039C7380
039C7380
039C7380
00E38C00
00E38C00
00E38C00
00000000
00000000
E380038E
E380038E
E380038E
1C000070
1C000070
1C000070
E380038E
E380038E
E380038E
1C000070
1C000070
E380038E
E380038E
E380038E
1C000070
1C000070
1C000070
E380038E
E380038E
E380038E
1C000C70
1C000C70
1C000C70
E380738E
E380738E
1C038C70
1C038C70
1C038C70
E39C738E
E39C738E
E39C738E
1CE38070
1CE38070
1CE38070
E39C038E
E39C038E
1CE00070
1CE00070
1CE00070
E380038E
E380038E
E380038E
ENDCHAR
STARTCHAR 043A
ENCODING 1082
SWIDTH 684 0
DWIDTH 38 0
BBX 31 42 4 0
BITMAP
E380038E
E380038E
E380038E
1C000070
1C000070
1C000070
E380038E
E380038E
E380038E
1C000070
1C000070
E380038E
E380038E
E380038E
1C000C70
1C000C70
1C000C70
E39C7380
E39C7380
E39C7380
1CE38C00
1CE38C00
1CE38C00
E39C7380
E39C7380
1C000C70
1C000C70
1C000C70
E380038E
E380038E
E380038E
1C000070
1C000070
1C000070
E380038E
E380038E
1C000070
1C000070
1C000070
E380038E
E380038E
E380038E
ENDCHAR
STARTCHAR 043B
ENCODING 1083
SWIDTH 792 0
DWIDTH 44 0
BBX 36 42 4 0
BITMAP
001C738E00
001C738E00
001C738E00
00E38C71C0
00E38C71C0
00E38C71C0
039C738E70
039C738E70
039C738E70
00E00001C0
00E00001C0
039C000E70
039C000E70
039C000E70
00E00001C0
00E00001C0
00E00001C0
039C000E70
039C000E70
039C000E70
00E00001C0
00E00001C0
00E00001C0
039C000E70
039C000E70
00E00001C0
00E00001C0
00E00001C0
039C000E70
039C000E70
039C000E70
00E00001C0
00E00001C0
00E00001C0
E39C000E70
E39C000E70
1CE00001C0
1CE00001C0
1CE00001C0
E380000E70
E380000E70
E380000E70
ENDCHAR
STARTCHAR 043C
ENCODING 1084
SWIDTH 900 0
DWIDTH 50 0
BBX 42 42 4 0
BITMAP
E380000071C0
E380000071C0
E380000071C0
1CE00001CE00
1CE00001CE00
1CE00001CE00
E39C000E71C0
E39C000E71C0
E39C000E71C0
1CE38071CE00
1CE38071CE00
E39C738E71C0
E39C738E71C0
E39C738E71C0
1C038C700E00
1C038C700E00
1C038C700E00
E380738071C0
E380738071C0
E380738071C0
1C000C000E00
1C000C000E00
1C000C000E00
E380000071C0
E380000071C0
1C0000000E00
1C0000000E00
1C0000000E00
E380000071C0
E380000071C0
E380000071C0
1C0000000E00
1C0000000E00
1C0000000E00
E380000071C0
E380000071C0
1C0000000E00
1C0000000E00
1C0000000E00
E380000071C0
E380000071C0
E380000071C0
ENDCHAR
STARTCHAR 043D
ENCODING 1085
SWIDTH 684 0
DWIDTH 38 0
BBX 31 42 4 0
BITMAP
E380038E
E380038E
E380038E
1C000070
1C000070
1C000070
E380038E
E380038E
E380038E
1C000070
1C000070
E380038E
E380038E
E380038E
1C000070
1C000070
1C000070
E39C738E
E39C738E
E39C738E
1CE38C70
1CE38C70
1CE38C70
E39C738E
E39C738E
1C000070
1C000070
1C000070
E380038E
E380038E
E380038E
1C000070
1C000070
1C000070
E380038E
E380038E
1C000070
1C000070
1C000070
E380038E
E380038E
E380038E
ENDCHAR
STARTCHAR 043E
ENCODING 1086
SWIDTH 684 0
DWIDTH 38 0
BBX 31 42 4 0
BITMAP
039C7380
039C7380
039C7380
1CE38C70
1CE38C70
1CE38C70
E39C738E
E39C738E
E39C738E
1C000070
1C000070
E380038E
E380038E
E380038E
1C000070
1C000070
1C000070
E380038E
E380038E
E380038E
1C000070
1C000070
1C000070
E380038E
E380038E
1C000070
1C000070
1C000070
E380038E
E380038E
E380038E
1C000070
1C000070
1C000070
E39C738E
E39C738E
1CE38C70
1CE38C70
1CE38C70
039C7380
039C7380
039C7380
ENDCHAR
STARTCHAR 043F
ENCODING 1087
SWIDTH 684 0
DWIDTH 38 0
BBX 31 42 4 0
BITMAP
039C7380
039C7380
039C7380
1CE38C70
1CE38C70
1CE38C70
E39C738E
E39C738E
E39C738E
1C000070
1C000070
E380038E
E380038E
E380038E
1C000070
1C000070
1C000070
E380038E
E380038E
E380038E
1C000070
1C000070
1C000070
E380038E
E380038E
1C000070
1C000070
1C000070
E380038E
E380038E
E380038E
1C000070
1C000070
1C000070
E380038E
E380038E
1C000070
1C000070
1C000070
E380038E
E380038E
E380038E
ENDCHAR
ENDFONT
